<svg width="184" height="218" viewBox="0 0 184 218" fill="none" xmlns="http://www.w3.org/2000/svg">
<g clip-path="url(#clip0)">
<path d="M42.9967 123.626C39.359 123.676 35.6579 123.726 32.2317 125.218C28.8055 126.711 25.6754 129.92 24.7659 134.298C24.4487 135.815 24.3852 137.531 23.5816 138.75C22.6721 140.168 21.0859 140.491 19.7112 141.063C15.3121 142.904 12.1397 148.526 12.2032 154.346C12.2243 156.784 12.7531 159.321 12.0128 161.56C11.0188 164.644 8.16364 165.888 5.94295 167.679C0.867085 171.833 -1.37475 180.664 0.867084 187.803C3.10892 194.942 9.58065 199.618 15.6082 198.449C17.9135 198.001 20.24 196.807 22.5029 197.603C25.6331 198.698 27.4308 203.2 30.5609 204.27C32.7393 204.991 35.0234 203.847 37.2864 203.872C43.6524 203.896 47.6708 212.478 53.4023 216.035C58.6262 219.269 64.8652 218.05 70.3429 215.737C75.8206 213.423 81.0869 210.04 86.8395 209.12C96.1241 207.603 105.261 212.602 114.524 214.319C124.295 216.135 134.214 214.344 143.964 212.553C152.551 210.986 161.391 209.294 168.815 203.747C175.054 199.096 179.982 191.783 182.604 183.3C184.19 178.151 184.846 171.908 182.266 167.356C178.226 160.242 168.899 161.286 164.373 154.67C160.376 148.799 161.814 139.422 158.198 133.178C155.237 128.079 149.717 126.487 144.704 126.462C139.692 126.437 134.637 127.606 129.709 126.387C124.697 125.144 120.277 121.512 115.624 118.826C104.499 112.358 91.8096 111.065 79.6698 112.657C67.4878 114.224 56.3843 123.452 42.9967 123.626Z" fill="#B3B3B3"/>
<path d="M81.4887 124.472C67.9742 124.024 54.4385 126.064 41.4951 130.442C39.5493 131.114 37.4555 131.935 36.3135 133.949C34.6004 136.959 35.7636 141.337 34.2831 144.521C32.0201 149.396 24.639 149.521 24.0257 155.068C23.8565 156.635 24.3429 158.301 23.9199 159.794C23.4123 161.585 21.8261 162.505 20.6206 163.724C16.2004 168.202 17.4059 177.455 21.8261 182.081C26.2252 186.708 32.57 187.604 38.3861 187.032C42.2988 186.634 46.571 185.788 49.8703 188.375C51.4565 189.594 52.5774 191.484 53.9521 193.001C59.7893 199.543 68.9047 199.22 76.6243 197.056C84.3438 194.892 92.1057 191.26 99.9944 192.628C103.251 193.2 106.382 194.618 109.617 195.464C117.4 197.504 125.458 196.235 133.305 194.767C140.051 193.524 146.798 192.156 153.524 190.663C158.325 189.618 163.273 188.4 167.165 184.917C171.056 181.435 173.51 175.017 171.564 169.644C168.222 160.441 155.448 160.54 152.466 151.187C151.874 149.322 151.768 147.307 151.282 145.416C149.399 138.178 142.568 134.72 136.477 132.556C117.273 125.815 97.3719 124.995 81.4887 124.472Z" fill="#665957"/>
<path d="M17.9135 152.382L17.9558 151.884C18.3365 147.283 21.2551 143.999 24.4698 144.546L170.951 169.918C174.165 170.466 176.45 174.645 176.048 179.271L176.005 179.769C175.625 184.37 172.706 187.654 169.491 187.107L23.0105 161.735C19.817 161.163 17.5328 156.984 17.9135 152.382Z" fill="#7D615C"/>
<path d="M11.9282 193.176L11.8436 192.703C11.1034 188.201 13.028 183.674 16.1792 182.579L144.895 138.551C148.046 137.482 151.197 140.268 151.937 144.77L152.022 145.243C152.762 149.745 150.838 154.272 147.686 155.367L18.971 199.394C15.8408 200.464 12.6896 197.678 11.9282 193.176Z" fill="#5E403A"/>
<path d="M70.0469 147.879L70.2161 147.457C71.76 143.377 75.3131 141.885 78.1471 144.099L148.363 199.046C151.197 201.26 152.255 206.359 150.69 210.439L150.52 210.862C148.977 214.941 145.423 216.434 142.589 214.22L72.3733 159.272C69.5393 157.058 68.4818 151.959 70.0469 147.879Z" fill="#664B46"/>
<path d="M92.8248 161.187C103.674 161.312 114.968 157.879 123.449 148.153C131.93 138.427 136.858 121.413 133.389 106.637C130.132 92.7575 120.15 81.4147 121.736 66.9626C120.975 74.8976 117.654 82.2604 112.938 86.5388C113.636 70.8679 106.17 57.2864 100.396 43.9288C94.6225 30.5961 90.4984 12.388 97.2239 0.000488281C84.2804 13.1342 71.0832 26.5664 61.714 44.9238C52.3448 63.2812 47.2689 87.6831 52.4928 109.15C53.0216 111.289 53.6349 113.702 52.9158 115.741C52.0276 118.328 49.6165 118.726 47.7977 119.92C43.0602 123.055 42.1508 132.88 44.6676 139.447C47.1843 146.014 51.9853 149.994 56.6593 153.401C67.7204 161.461 79.3526 161.013 92.8248 161.187Z" fill="#FBB626"/>
<path d="M85.7397 159.172C97.3719 158.451 109.491 152.058 116.195 138.402C122.899 124.746 122.032 103.105 112.388 93.7028C111.986 100.568 109.533 107.135 105.768 111.389C107.777 106.737 107.312 100.568 105.62 95.6679C103.928 90.7676 101.158 86.8125 98.514 82.8824C90.9425 71.664 83.371 57.1124 85.8878 41.939C72.5848 52.1873 63.9346 73.8281 64.5057 95.4937C64.5903 98.9513 64.8864 102.533 64.0404 105.792C63.0887 109.399 60.9103 111.961 59.3664 115.12C54.5866 124.97 57.2303 139.522 63.4694 147.506C69.7084 155.491 78.5066 159.62 85.7397 159.172Z" fill="#EE8340"/>
</g>
<defs>
<clipPath id="clip0">
<rect width="184" height="218" fill="white" transform="translate(0 0.000488281)"/>
</clipPath>
</defs>
</svg>
