<svg width="170" height="151" viewBox="0 0 170 151" fill="none" xmlns="http://www.w3.org/2000/svg">
<g clip-path="url(#clip0)">
<path d="M19.0638 148.254C18.0261 146.695 18.4704 144.61 20.034 143.573L134.232 68.1162C135.795 67.0801 137.886 67.5215 138.924 69.0801C139.961 70.6387 139.517 72.7241 137.953 73.7602L23.7511 149.187C22.1876 150.223 20.0709 149.817 19.0638 148.254Z" fill="#633E38"/>
<path d="M129.245 80.3142C142.23 83.427 152.624 64.6902 151.44 51.4331C150.853 45.0525 148.056 39.1183 145.455 33.2488C142.854 27.3793 140.453 21.1698 140.799 14.7776C141.146 8.38527 144.912 1.71234 151.115 0.000132647C142.386 3.6347 132.301 9.0835 131.647 18.5048C131.26 24.4056 134.947 30.2412 133.635 35.997C131.973 43.2027 123.605 46.5359 119.376 52.5926C116.18 57.1927 115.598 63.4639 117.896 68.5382C120.229 73.6385 124.461 79.1461 129.245 80.3142Z" fill="#FBB626"/>
<path d="M131.331 77.0883C137.851 76.6977 142.796 70.4125 143.884 63.9744C144.972 57.5362 143.181 51.0203 141.452 44.7129C139.722 38.4056 138.105 31.802 139.516 25.4411C136.448 28.5617 136.67 33.5034 137.239 37.8348C137.772 42.1403 138.325 47.0026 135.611 50.4135C133.397 53.192 129.644 54.1742 126.884 56.4105C123.2 59.3721 121.603 64.672 123.006 69.1618C124.382 73.6864 128.735 77.2488 131.331 77.0883Z" fill="#E36844"/>
</g>
<defs>
<clipPath id="clip0">
<rect width="152.388" height="129.601" fill="white" transform="translate(0.319702 21.9736) rotate(-8.2906)"/>
</clipPath>
</defs>
</svg>
