<svg width="143" height="235" viewBox="0 0 143 235" fill="none" xmlns="http://www.w3.org/2000/svg">
<path d="M58.0113 13.5659C50.1051 11.4344 41.861 10.545 33.6695 10.9372C32.1283 11.0195 30.5245 11.1494 29.2385 11.9708C27.8999 12.8148 27.0793 14.2851 26.3062 15.6729C21.4148 24.6669 16.5159 33.6435 11.6245 42.6375C11.0791 43.6377 10.5236 44.6629 10.5086 45.7872C10.4861 47.0389 11.0841 48.1897 11.677 49.2806C15.1823 55.7035 18.6951 62.144 22.2004 68.5669C22.7083 69.508 23.2487 70.4765 24.1719 71.0323C25.6131 71.9245 27.4896 71.5119 29.1384 71.0522C38.9061 68.389 48.6739 65.7259 58.4592 63.0552C59.4825 62.7813 60.5333 62.4749 61.3014 61.7517C61.9519 61.1412 62.3022 60.2662 62.6325 59.4412C65.2571 52.994 67.8641 46.5542 70.4887 40.107C70.9791 38.882 71.4895 37.6071 71.3794 36.2881C71.2718 34.9267 70.5237 33.7161 69.7882 32.583C66.2103 26.9571 62.6575 21.3412 58.0113 13.5659Z" fill="#B3B3B3"/>
<path d="M57.9212 14.8049C56.8779 23.968 55.842 33.1485 54.7987 42.3116C54.6786 43.3361 54.546 44.4281 53.9505 45.2635C53.3551 46.0988 52.3893 46.555 51.4586 46.9961C44.473 50.2446 37.3499 53.2211 30.1166 55.8928C28.6504 56.4397 27.1167 56.9742 25.563 56.8342C24.307 56.7112 23.1361 56.1583 22.0077 55.6079C19.0779 54.1958 16.1405 52.7662 13.1932 51.3616C16.0855 57.758 19.3806 63.9814 23.056 69.9793C23.4538 70.6158 23.8842 71.2797 24.5947 71.5335C25.1552 71.7275 25.7506 71.6167 26.3211 71.4959C36.6443 69.4015 46.8724 66.8926 56.9979 63.9516C58.1188 63.6151 59.2748 63.2635 60.1004 62.4328C60.7359 61.7873 61.1112 60.9223 61.4515 60.0723C64.2137 53.3175 66.9759 46.5628 69.7381 39.808C70.1784 38.708 70.6463 37.5756 70.5962 36.3964C70.5412 35.0124 69.8056 33.7344 69.0826 32.5338C65.4597 26.5132 61.8368 20.4927 57.9212 14.8049Z" fill="#828282"/>
<path d="M53.7229 46.0859C44.358 49.8802 34.9856 53.657 25.6206 57.4513C25.2879 57.5942 24.9126 57.7347 24.6974 58.0548C24.4822 58.3749 24.4672 58.7747 24.4697 59.1669C24.4247 63.2643 24.6098 67.3663 25.0352 71.448C36.0789 68.7129 47.1327 65.9529 58.1765 63.2178C58.817 63.067 59.5751 62.8035 59.7327 62.1562C59.8403 61.7787 59.6752 61.3943 59.535 61.0197C57.601 56.3232 55.6845 51.6193 53.7229 46.0859Z" fill="#999999"/>
<path d="M29.206 11.6535C26.3262 20.6945 23.4539 29.7529 20.5916 38.7863C20.3814 39.4562 20.1613 40.1511 20.2488 40.838C20.3364 41.5249 20.6842 42.1415 21.017 42.7231C22.6207 45.4913 24.232 48.277 25.8358 51.0453C26.0985 51.5121 26.3862 51.9888 26.8766 52.2129C27.3245 52.4346 27.8574 52.3713 28.3553 52.3231C32.386 51.8548 36.3992 51.3939 40.4299 50.9256C37.1548 52.622 33.8171 54.221 30.4444 55.6902C28.8407 56.3997 27.1618 57.0793 25.4179 56.9795C22.4055 56.8242 20.0111 54.4369 17.1063 53.6144C16.1156 53.3361 14.9972 53.1954 14.3341 52.4244C13.9914 52.0127 13.8262 51.4833 13.6611 50.9539C13.2133 49.4281 12.7579 47.8848 12.2925 46.3665C12.1224 45.7771 11.9523 45.1878 11.9873 44.5931C12.0348 43.931 12.3351 43.3259 12.6353 42.7209C17.7744 32.4198 22.3755 21.8322 29.206 11.6535Z" fill="#C7C7C7"/>
<path d="M57.561 18.8932C56.7003 26.8392 55.602 34.7632 54.2834 42.6575C54.1658 43.3498 54.0482 44.042 53.6879 44.6521C52.4519 46.7976 49.1293 46.6928 47.5656 48.6064C53.9481 40.8143 55.8672 30.4057 57.561 18.8932Z" fill="#C7C7C7"/>
<path d="M82.7102 167.527C73.9816 174.032 65.2423 180.512 56.5138 187.017C53.8464 188.988 51.1123 191.076 49.5919 194.034C48.3067 196.552 48.0386 199.454 47.7986 202.284C47.3762 207.334 46.9538 212.384 46.5314 217.434C46.437 218.604 46.4958 220.059 47.5805 220.53C48.1582 220.779 48.8122 220.629 49.4238 220.483C61.0612 217.606 72.6916 214.747 84.329 211.87C85.8278 211.503 87.3584 211.107 88.547 210.125C89.8378 209.041 90.4965 207.378 91.1024 205.798C94.6328 196.578 98.181 187.365 101.711 178.146C102.044 177.255 102.38 176.303 102.104 175.396C101.832 174.531 101.037 173.95 100.274 173.443C95.7577 170.508 90.8266 168.206 82.7102 167.527Z" fill="#B3B3B3"/>
<path d="M102.177 176.918C96.73 184.662 91.525 190.968 86.0779 198.712C85.5079 199.529 84.9132 200.357 84.1301 200.988C83.019 201.878 81.598 202.256 80.2195 202.63C71.584 204.917 62.9159 207.026 54.1906 208.97C53.3597 209.152 52.4333 209.317 51.7027 208.884C51.2061 208.585 50.9102 208.039 50.6498 207.506C49.3049 204.743 48.7492 201.126 48.3233 198.113C47.1899 205.009 46.3762 213.116 46.5171 220.108C47.53 221.225 48.904 220.604 49.7703 220.435C60.2714 218.357 70.051 215.46 80.5521 213.381C83.5362 212.783 87.1361 212.184 88.9949 209.77C89.7483 208.8 90.5627 207.159 91.0182 206.009C94.8392 196.005 97.6055 187.73 102.177 176.918Z" fill="#828282"/>
<path d="M83.65 202.148C73.5218 204.579 63.4113 207.018 53.2831 209.449C52.88 209.535 52.47 209.638 52.1489 209.879C51.7397 210.188 51.501 210.686 51.2871 211.175C49.9265 214.298 48.5412 217.432 47.1806 220.555C60.2706 218.151 73.4031 215.744 86.126 211.784C86.5925 211.641 87.0731 211.463 87.3298 211.074C87.6604 210.55 87.456 209.876 87.2591 209.286C86.426 207.094 85.5187 204.934 83.65 202.148Z" fill="#999999"/>
<path d="M95.0195 170.87C90.3385 173.68 84.7891 173.404 80.0583 176.133C77.4281 177.648 75.2569 179.815 73.0998 181.948C68.701 186.322 64.2952 190.714 59.8964 195.088C59.5511 195.443 59.174 195.825 59.0627 196.313C58.9513 196.801 59.1161 197.316 59.2773 197.789C59.6423 198.834 60.0074 199.879 60.3724 200.924C60.487 201.256 60.6015 201.588 60.8854 201.802C61.2332 202.063 61.6931 202.041 62.1283 202.029C69.0691 201.588 76.0346 201.136 82.9754 200.694C73.0351 204.1 62.7083 206.412 52.2389 207.583C50.1663 203.345 48.0695 198.34 50.2362 194.166C51.23 192.227 53.0149 190.827 54.7364 189.484C63.6896 182.515 72.6358 175.565 81.589 168.596C82.03 168.259 82.478 167.905 83.0261 167.815C83.6591 167.718 85.6495 168.18 86.2623 168.341C88.5293 168.932 89.4026 168.746 95.0195 170.87Z" fill="#C7C7C7"/>
<path d="M105.529 96.2852C112.864 92.7803 120.721 90.4028 128.757 89.2444C131.85 88.7989 135.358 88.6617 137.721 90.7009C139.233 92.0281 139.976 94.0136 140.53 95.9401C143.777 107.023 143.354 119.155 139.322 129.996C138.833 131.304 138.19 132.705 136.946 133.302C135.911 133.786 134.712 133.623 133.609 133.422C120.442 130.954 108.946 123.291 97.8675 115.784C97.0721 115.244 96.2202 114.646 95.8667 113.748C95.4947 112.794 95.7529 111.731 96.0672 110.764C97.7586 105.397 99.8604 98.9883 105.529 96.2852Z" fill="#B3B3B3"/>
<path d="M136.12 90.6666C138.419 95.3682 138.002 101.071 135.859 105.843C133.716 110.616 130.018 114.537 125.945 117.807C125.503 118.164 125.023 118.54 124.468 118.706C123.818 118.908 123.114 118.806 122.448 118.686C116.643 117.736 110.939 116.273 105.392 114.355C103.454 113.689 101.479 112.928 99.9674 111.544C98.4559 110.16 97.4664 108.02 98.0002 106.047C97.484 108.172 96.9678 110.297 96.4517 112.404C96.3126 112.992 96.1729 113.637 96.4346 114.173C96.6588 114.631 97.1133 114.94 97.5491 115.211C109.486 122.669 121.783 130.264 135.635 132.833C136.187 132.933 136.796 133.034 137.313 132.792C137.83 132.55 138.14 132.02 138.412 131.509C142.78 123.277 142.742 113.481 142.013 104.191C141.567 99.0129 140.67 93.2597 136.12 90.6666Z" fill="#828282"/>
<path d="M99.2877 110.871C98.1904 111.983 97.074 113.094 95.9769 114.187C102.941 117.412 109.187 121.962 115.802 125.868C122.398 129.775 129.608 133.135 137.267 133.552C136.188 130.841 134.937 128.184 133.494 125.641C131.919 122.867 129.964 120.071 127.041 118.787C125.257 118.009 123.276 117.876 121.333 117.686C113.563 116.925 105.748 114.985 99.2877 110.871Z" fill="#999999"/>
<path d="M134.132 89.2775C127.83 90.5288 121.728 92.7331 116.094 95.779C111.859 98.0775 107.675 101.08 105.821 105.532C105.098 107.275 104.811 109.346 105.749 110.972C106.517 112.311 107.977 113.105 109.362 113.822C110.613 114.481 111.884 115.14 113.136 115.799C110.038 114.837 106.94 113.894 103.823 112.932C102.683 112.578 101.505 112.205 100.578 111.454C98.5927 109.818 98.3169 106.81 99.0461 104.344C100.012 101.082 102.421 98.3664 105.26 96.4727C108.1 94.5791 111.371 93.4125 114.64 92.4551C121.082 90.5584 127.746 89.3676 134.132 89.2775Z" fill="#C7C7C7"/>
<path d="M135.859 105.843C134.32 109.233 132.249 112.409 129.518 114.95C128.287 116.099 126.866 117.131 125.223 117.514C124.172 117.771 123.067 117.741 121.981 117.692C120.419 117.639 118.837 117.605 117.274 117.551C120.888 116.407 124.428 115.053 127.668 113.087C130.87 111.121 133.774 108.543 135.859 105.843Z" fill="#C7C7C7"/>
</svg>
