<svg width="246" height="687" viewBox="0 0 246 687" fill="none" xmlns="http://www.w3.org/2000/svg" preserveAspectRatio="none">
<g clip-path="url(#clip0)">
<path d="M97.7601 0.712158C30.9277 31.6806 12.4422 66.5645 28.4393 116.043C44.4364 165.521 105.728 216.065 148.461 244.111C162.484 253.319 227.515 258.426 227.515 301.141C227.515 318.939 217.084 322.435 208.673 327.482C173.34 348.685 47.8531 360.656 17.7746 414.692C0.0493736 446.546 -1.7774 493.003 28.4393 520.768C58.6561 548.532 75.7197 554.584 114.62 561.882C153.521 569.181 191.899 587.946 200.497 626.678C205.817 650.642 174.578 654.575 161.038 668.134C173.994 651.331 207.195 654.213 208.673 626.678C212.247 560.108 116.957 553.872 73.9422 537.498C30.9277 521.124 4.8416 484.816 11.3757 443.525C24.5289 393.69 84.3809 382.164 111.562 371.163C142.003 358.833 173.128 348.174 203.126 334.776C217.672 328.268 233.285 319.685 238.335 304.554C242.258 292.828 238.717 279.813 232.943 268.893C212.904 230.975 143.393 232.333 109.491 206.1C85.67 187.685 63.4766 164.123 48.3468 138.112C37.1001 118.77 20.6185 94.5755 34.4827 59.8013C48.3468 25.0271 81.4634 10.363 97.7601 0.712158Z" fill="#B3B3B3" fill-opacity="0.2"/>
</g>
<defs>
<clipPath id="clip0">
<rect width="246" height="687" fill="white" transform="translate(0 0.000244141)"/>
</clipPath>
</defs>
</svg>
