<svg width="147" height="292" viewBox="0 0 147 292" fill="none" xmlns="http://www.w3.org/2000/svg">
<path d="M2.77602 100.67L2.93374 100.344C4.40205 97.2306 8.0935 95.8858 11.218 97.3382L109.11 143.44C112.213 144.912 113.553 148.615 112.104 151.75L111.947 152.076C110.478 155.189 106.787 156.534 103.662 155.082L5.74946 108.979C2.64638 107.507 1.30771 103.783 2.77602 100.67Z" fill="#7D615C"/>
<path d="M43.4963 213.897L43.7183 213.754C45.8071 212.37 49.3326 212.966 51.6268 215.098L123.345 282.301C125.615 284.438 125.779 287.289 123.701 288.694L123.479 288.837C121.39 290.221 117.865 289.625 115.571 287.492L43.835 220.282C41.5645 218.144 41.4074 215.281 43.4963 213.897Z" fill="#7D615C"/>
<path d="M145.121 68.917C144.587 69.937 143.344 70.3162 142.327 69.7846L43.508 18.0956C42.4906 17.564 42.1157 16.3209 42.6498 15.3009C43.184 14.2809 44.4271 13.9017 45.4444 14.4333L144.263 66.1223C145.252 66.6586 145.655 67.897 145.121 68.917Z" fill="#7D615C"/>
<path d="M68.1283 28.3162C68.0715 29.4515 67.1177 30.3468 65.9716 30.3103L45.372 29.4691C44.238 29.4158 43.3465 28.4638 43.3865 27.3164C43.4434 26.1811 44.3972 25.2857 45.5433 25.3223L66.1429 26.1634C67.3058 26.2121 68.1851 27.1809 68.1283 28.3162Z" fill="#7D615C"/>
<path d="M74.3713 32.4758C71.6433 31.2435 68.192 31.8915 66.0871 34.0253C63.3959 36.7579 62.8087 41.55 59.2973 43.1264C62.7971 43.9966 66.7061 43.5263 69.7186 41.5122C72.7431 39.4812 74.7176 35.872 74.3713 32.4758Z" fill="#219B96"/>
<path d="M12.2339 212.8L6.74632 206.68C4.44194 204.11 4.64971 200.179 7.21217 197.866L118.289 97.5955C120.852 95.2828 124.77 95.4899 127.074 98.0598L132.562 104.18C134.866 106.75 134.658 110.681 132.096 112.993L21.0189 213.264C18.4782 215.557 14.5394 215.349 12.2339 212.8Z" fill="#623D37"/>
</svg>
