<svg width="1254" height="502" viewBox="0 0 1254 502" fill="none" xmlns="http://www.w3.org/2000/svg">
  <path d="M126 0L134.485 31.5147L166 40L134.485 48.4853L126 80L117.515 48.4853L86 40L117.515 31.5147L126 0Z" fill="#FBB63B"/>
  <path d="M180.032 81.7138C180.292 80.7167 181.708 80.7167 181.968 81.7138L184.037 89.655C184.127 89.9998 184.393 90.2707 184.736 90.3662L192.537 92.5366C193.513 92.8081 193.513 94.1919 192.537 94.4634L184.736 96.6338C184.393 96.7293 184.127 97.0002 184.037 97.345L181.968 105.286C181.708 106.283 180.292 106.283 180.032 105.286L177.963 97.345C177.873 97.0002 177.607 96.7293 177.264 96.6338L169.463 94.4634C168.487 94.1919 168.487 92.8081 169.463 92.5366L177.264 90.3662C177.607 90.2707 177.873 89.9998 177.963 89.655L180.032 81.7138Z" fill="#FBB63B"/>
  <path d="M1144.03 289.714C1144.29 288.717 1145.71 288.717 1145.97 289.714L1148.04 297.655C1148.13 298 1148.39 298.271 1148.74 298.366L1156.54 300.537C1157.51 300.808 1157.51 302.192 1156.54 302.463L1148.74 304.634C1148.39 304.729 1148.13 305 1148.04 305.345L1145.97 313.286C1145.71 314.283 1144.29 314.283 1144.03 313.286L1141.96 305.345C1141.87 305 1141.61 304.729 1141.26 304.634L1133.46 302.463C1132.49 302.192 1132.49 300.808 1133.46 300.537L1141.26 298.366C1141.61 298.271 1141.87 298 1141.96 297.655L1144.03 289.714Z" fill="#FBB63B"/>
  <path d="M9.03134 126.778C9.28832 125.775 10.7117 125.775 10.9687 126.778L11.9784 130.715C12.0669 131.06 12.3322 131.332 12.675 131.429L16.5962 132.538C17.5668 132.812 17.5668 134.188 16.5962 134.462L12.675 135.571C12.3322 135.668 12.0669 135.94 11.9784 136.285L10.9687 140.222C10.7117 141.225 9.28832 141.225 9.03134 140.222L8.0216 136.285C7.93312 135.94 7.66777 135.668 7.32499 135.571L3.40377 134.462C2.43317 134.188 2.43317 132.812 3.40378 132.538L7.32499 131.429C7.66777 131.332 7.93312 131.06 8.0216 130.715L9.03134 126.778Z" fill="#FBB63B"/>
  <path d="M157.034 199.586C157.3 198.6 158.7 198.6 158.966 199.586L159.76 202.535C159.852 202.879 160.121 203.148 160.465 203.24L163.414 204.034C164.4 204.3 164.4 205.7 163.414 205.966L160.465 206.76C160.121 206.852 159.852 207.121 159.76 207.465L158.966 210.414C158.7 211.4 157.3 211.4 157.034 210.414L156.24 207.465C156.148 207.121 155.879 206.852 155.535 206.76L152.586 205.966C151.6 205.7 151.6 204.3 152.586 204.034L155.535 203.24C155.879 203.148 156.148 202.879 156.24 202.535L157.034 199.586Z" fill="#FBB63B"/>
  <path d="M1226.03 402.586C1226.3 401.6 1227.7 401.6 1227.97 402.586L1228.76 405.535C1228.85 405.879 1229.12 406.148 1229.47 406.24L1232.41 407.034C1233.4 407.3 1233.4 408.7 1232.41 408.966L1229.47 409.76C1229.12 409.852 1228.85 410.121 1228.76 410.465L1227.97 413.414C1227.7 414.4 1226.3 414.4 1226.03 413.414L1225.24 410.465C1225.15 410.121 1224.88 409.852 1224.53 409.76L1221.59 408.966C1220.6 408.7 1220.6 407.3 1221.59 407.034L1224.53 406.24C1224.88 406.148 1225.15 405.879 1225.24 405.535L1226.03 402.586Z" fill="#FBB63B"/>
  <path d="M1177.03 487.586C1177.3 486.6 1178.7 486.6 1178.97 487.586L1179.76 490.535C1179.85 490.879 1180.12 491.148 1180.47 491.24L1183.41 492.034C1184.4 492.3 1184.4 493.7 1183.41 493.966L1180.47 494.76C1180.12 494.852 1179.85 495.121 1179.76 495.465L1178.97 498.414C1178.7 499.4 1177.3 499.4 1177.03 498.414L1176.24 495.465C1176.15 495.121 1175.88 494.852 1175.53 494.76L1172.59 493.966C1171.6 493.7 1171.6 492.3 1172.59 492.034L1175.53 491.24C1175.88 491.148 1176.15 490.879 1176.24 490.535L1177.03 487.586Z" fill="#FBB63B"/>
  <path d="M1244.03 213.586C1244.3 212.6 1245.7 212.6 1245.97 213.586L1246.76 216.535C1246.85 216.879 1247.12 217.148 1247.47 217.24L1250.41 218.034C1251.4 218.3 1251.4 219.7 1250.41 219.966L1247.47 220.76C1247.12 220.852 1246.85 221.121 1246.76 221.465L1245.97 224.414C1245.7 225.4 1244.3 225.4 1244.03 224.414L1243.24 221.465C1243.15 221.121 1242.88 220.852 1242.53 220.76L1239.59 219.966C1238.6 219.7 1238.6 218.3 1239.59 218.034L1242.53 217.24C1242.88 217.148 1243.15 216.879 1243.24 216.535L1244.03 213.586Z" fill="#FBB63B"/>
  <path d="M1177.03 112.586C1177.3 111.6 1178.7 111.6 1178.97 112.586L1179.76 115.535C1179.85 115.879 1180.12 116.148 1180.47 116.24L1183.41 117.034C1184.4 117.3 1184.4 118.7 1183.41 118.966L1180.47 119.76C1180.12 119.852 1179.85 120.121 1179.76 120.465L1178.97 123.414C1178.7 124.4 1177.3 124.4 1177.03 123.414L1176.24 120.465C1176.15 120.121 1175.88 119.852 1175.53 119.76L1172.59 118.966C1171.6 118.7 1171.6 117.3 1172.59 117.034L1175.53 116.24C1175.88 116.148 1176.15 115.879 1176.24 115.535L1177.03 112.586Z" fill="#FBB63B"/>
  <path d="M55.0344 249.586C55.3001 248.6 56.6999 248.6 56.9656 249.586L57.7595 252.535C57.8522 252.879 58.121 253.148 58.4651 253.24L61.4137 254.034C62.4004 254.3 62.4004 255.7 61.4137 255.966L58.4651 256.76C58.121 256.852 57.8522 257.121 57.7595 257.465L56.9656 260.414C56.6999 261.4 55.3001 261.4 55.0344 260.414L54.2405 257.465C54.1478 257.121 53.879 256.852 53.5349 256.76L50.5863 255.966C49.5996 255.7 49.5996 254.3 50.5863 254.034L53.5349 253.24C53.879 253.148 54.1478 252.879 54.2405 252.535L55.0344 249.586Z" fill="#FBB63B"/>
</svg>
