<svg width="272" height="383" viewBox="0 0 272 383" fill="none" xmlns="http://www.w3.org/2000/svg">
  <path d="M185.557 85.1664L84.2195 113.822L93.1671 145.467L194.505 116.812L185.557 85.1664Z" fill="#D9D9D9"/>
  <g opacity="0.349">
    <g opacity="0.349">
      <path opacity="0.349" d="M195.793 110.733C194.611 102.075 191.573 93.6721 186.972 86.2511C186.59 85.6327 185.644 85.0143 184.243 84.5596C185.535 90.0889 186.39 95.7274 186.79 101.402C186.99 104.24 187.081 107.186 186.026 109.842C185.989 109.933 185.953 110.042 185.899 110.133C162.709 117.936 139.028 124.247 115.02 128.976C110.219 129.922 105.326 130.814 100.452 130.304C95.5774 129.795 90.6667 127.721 87.793 123.738C88.9024 130.468 90.7212 137.07 93.213 143.4C93.504 144.128 93.8677 144.928 94.5952 145.183C95.1409 145.383 95.7411 145.219 96.3049 145.073C105.944 142.345 115.566 139.617 125.205 136.889C148.413 130.322 171.603 123.756 194.756 117.026C194.538 115.808 194.32 114.571 194.156 113.28C194.556 113.261 194.956 113.207 195.265 112.952C195.938 112.497 195.902 111.533 195.793 110.733Z" fill="#BDBDBD"/>
    </g>
  </g>
  <path d="M240.648 66.1517L198.993 77.9307L210.029 116.962L251.685 105.183L240.648 66.1517Z" fill="#3D3D3D"/>
  <path d="M208.633 117.044L197.648 78.1932C197.52 77.7567 197.775 77.302 198.212 77.1747C198.648 77.0473 199.103 77.302 199.23 77.7385L210.216 116.59C210.343 117.026 210.088 117.481 209.652 117.608C209.215 117.735 208.761 117.481 208.633 117.044Z" fill="#3D3D3D"/>
  <path d="M31.4469 160.425L24.9902 133.123L28.9915 134.033C29.5371 134.16 29.9737 134.578 30.1374 135.106L36.9578 158.969C37.1943 159.788 36.5577 160.588 35.721 160.552L31.4469 160.425Z" fill="#616161"/>
  <path d="M198.123 79.8717L184.121 83.8311L194.167 119.362L208.169 115.403L198.123 79.8717Z" fill="#3D3D3D"/>
  <path d="M57.8999 128.899L46.3484 132.166L50.654 147.393L62.2055 144.127L57.8999 128.899Z" fill="#A8A8A8"/>
  <path d="M47.5325 129.812L37.9062 132.534L43.0531 150.737L52.6794 148.015L47.5325 129.812Z" fill="#3D3D3D"/>
  <path d="M85.5524 118.624L54.2234 127.483L60.3601 149.186L91.6891 140.327L85.5524 118.624Z" fill="#3D3D3D"/>
  <path d="M39.6805 131.66L32.8546 133.591L38.2489 152.669L45.0748 150.739L39.6805 131.66Z" fill="#3D3D3D"/>
  <path d="M35.5944 133.641L28.856 135.546L33.8049 153.049L40.5433 151.144L35.5944 133.641Z" fill="#3D3D3D"/>
  <path d="M9.65779 139.198L2.30988 113.225C1.96431 111.988 2.67364 110.696 3.9286 110.351L15.1869 107.168C16.4237 106.822 17.715 107.532 18.0606 108.787L25.4085 134.742C25.7541 135.979 25.0448 137.27 23.7898 137.616L12.5315 140.799C11.2947 141.144 10.0034 140.435 9.65779 139.198Z" fill="#3D3D3D"/>
  <path d="M0.709333 142.654L30.8285 160.206C31.938 160.843 33.2657 159.824 32.9201 158.587L26.0087 134.087C25.7904 133.323 24.9902 132.887 24.2263 133.105L1.01853 140.053C-0.181874 140.417 -0.363753 142.017 0.709333 142.654Z" fill="#3D3D3D"/>
  <path d="M111.092 143.727L110.328 140.999C110.128 140.308 110.528 139.58 111.237 139.38L143.193 130.341C143.884 130.14 144.612 130.541 144.812 131.25L145.576 133.978C145.776 134.669 145.376 135.397 144.667 135.597L112.71 144.637C112.001 144.837 111.274 144.419 111.092 143.727Z" fill="#3D3D3D"/>
  <path d="M114.056 337.656L113.147 189.963H123.696V337.656H114.056Z" fill="#A8A8A8"/>
  <path d="M113.158 181.316L107.981 179.593L43.8986 372.135L49.0756 373.858L113.158 181.316Z" fill="#A8A8A8"/>
  <path d="M108.849 178.204L102.637 176.136L38.7087 368.212L44.9211 370.279L108.849 178.204Z" fill="#D9D9D9"/>
  <path d="M38.5765 382.109L42.2686 368.922L49.0709 371.287C49.5256 371.432 49.7802 371.905 49.6529 372.36L47.143 382.109C46.9975 382.673 46.4518 383.055 45.8698 382.982L38.5765 382.109Z" fill="#3D3D3D"/>
  <path d="M33.2657 378.38L37.7399 367.922C37.9581 367.431 38.522 367.194 39.013 367.431L42.6688 369.104C43.1053 369.304 43.3236 369.795 43.1781 370.268L39.6678 381.454C39.4859 382.018 38.8312 382.291 38.3037 382.018L33.7022 379.617C33.2657 379.362 33.0656 378.835 33.2657 378.38Z" fill="#5E5E5E"/>
  <path d="M127.211 171.833L121.904 173.79L194.771 371.382L200.078 369.424L127.211 171.833Z" fill="#C7C7C7"/>
  <path d="M132.663 168.048L126.281 170.402L198.972 367.516L205.354 365.162L132.663 168.048Z" fill="#D9D9D9"/>
  <path d="M205.923 379.617L201.649 366.066L194.665 368.758C194.21 368.922 193.956 369.413 194.101 369.886L197.03 379.926C197.193 380.508 197.775 380.872 198.375 380.781L205.923 379.617Z" fill="#3D3D3D"/>
  <path d="M211.307 375.561L206.323 364.866C206.087 364.357 205.487 364.138 204.978 364.393L201.231 366.248C200.776 366.467 200.576 366.994 200.74 367.467L204.759 378.944C204.959 379.526 205.651 379.781 206.178 379.49L210.889 376.834C211.343 376.598 211.525 376.034 211.307 375.561Z" fill="#5E5E5E"/>
  <path d="M113.511 343.712V334.673C113.511 333.745 114.256 332.999 115.184 332.999H122.95C123.878 332.999 124.623 333.745 124.623 334.673V343.712C124.623 344.64 123.878 345.386 122.95 345.386H115.184C114.256 345.386 113.511 344.64 113.511 343.712Z" fill="#5E5E5E"/>
  <path d="M107.072 177.667C107.254 180.032 107.436 182.396 107.6 184.743C107.618 184.925 107.636 185.125 107.763 185.252C107.891 185.379 108.072 185.398 108.236 185.434C109.2 185.543 110.182 185.616 111.164 185.634C111.037 186.889 111.055 188.162 111.219 189.399C111.255 189.69 111.31 189.999 111.528 190.181C111.71 190.327 111.965 190.363 112.201 190.381C116.712 190.745 121.241 190.581 125.751 190.436C126.097 190.418 126.46 190.399 126.733 190.181C127.042 189.908 127.079 189.472 127.097 189.072C127.17 187.853 127.224 186.653 127.297 185.434C128.934 185.634 130.644 185.434 132.19 184.852C132.608 182.16 132.717 179.413 132.517 176.685C132.499 176.521 132.481 176.34 132.408 176.212C132.299 176.03 132.099 175.939 131.899 175.867C130.334 175.23 128.752 174.575 127.079 174.339C125.151 174.048 123.205 174.284 121.259 174.23C119.84 174.193 118.44 173.993 117.021 173.993C114.329 173.993 111.692 174.666 109.109 175.357C108.454 175.521 106.927 175.703 107.072 177.667Z" fill="#3D3D3D"/>
  <path d="M119.367 177.34C123.077 177.322 127.188 177.467 130.898 177.449C130.589 174.466 128.788 171.574 126.86 169.264C126.115 168.373 125.333 167.518 124.369 166.863C123.405 166.227 122.223 165.845 121.077 166.009C120.713 166.063 120.331 166.19 120.058 166.427C119.585 166.863 119.513 167.573 119.458 168.209C119.258 171.192 118.785 174.248 119.367 177.34Z" fill="#616161"/>
  <path d="M128.425 163.353H108.418V166.263H128.425V163.353Z" fill="#3D3D3D"/>
  <path d="M132.644 160.115H104.635V162.662H132.644V160.115Z" fill="#3D3D3D"/>
  <path d="M120.568 166.409C120.477 169.828 120.367 173.266 120.277 176.685C120.277 176.885 120.258 177.104 120.113 177.249C119.986 177.358 119.804 177.377 119.622 177.377C116.039 177.522 112.474 177.631 108.891 177.704C107.854 174.63 109.055 171.047 111.455 168.864C113.874 166.682 117.312 165.845 120.568 166.409Z" fill="#303030"/>
  <path d="M127.515 162.662H110.055V163.335H127.515V162.662Z" fill="#3D3D3D"/>
  <path d="M129.352 159.442C136.866 159.442 142.957 153.351 142.957 145.837C142.957 138.323 136.866 132.232 129.352 132.232C121.839 132.232 115.748 138.323 115.748 145.837C115.748 153.351 121.839 159.442 129.352 159.442Z" fill="#3D3D3D"/>
  <path d="M117.039 148.711C114.475 149.511 112.619 151.694 111.11 153.931C109.618 156.15 108.291 158.569 106.199 160.261C114.566 161.661 123.168 161.734 131.553 160.479C130.553 158.715 129.571 156.932 128.57 155.168C128.079 154.277 127.57 153.385 126.842 152.658C126.097 151.93 125.169 151.421 124.241 150.966C121.786 149.784 119.149 148.966 117.039 148.711Z" fill="#3D3D3D"/>
  <path d="M120.786 166.973C114.911 166.882 109.437 171.829 109.146 177.704C106.417 177.631 103.707 177.704 100.979 177.631C100.888 171.01 106.654 164.844 113.274 164.481C117.676 164.244 122.077 166.227 126.406 165.408C127.152 165.263 127.897 165.045 128.625 165.208C129.316 165.354 129.898 165.827 130.444 166.281C133.699 168.991 137.173 172.084 137.719 176.285C135.736 176.631 133.736 176.995 131.753 177.34C131.244 177.431 130.716 177.522 130.244 177.304C129.825 177.104 129.552 176.703 129.298 176.322C127.588 173.775 125.66 171.374 123.532 169.192C122.405 167.973 120.986 166.754 120.786 166.973Z" fill="#3D3D3D"/>
  <path d="M101.034 177.267C100.852 179.595 100.961 181.924 101.361 184.215C101.761 182.215 102.434 180.268 103.362 178.45C103.58 178.013 103.817 177.595 103.889 177.122C102.962 177.158 102.034 177.249 101.034 177.267Z" fill="#3D3D3D"/>
  <path d="M114.729 163.917C114.693 164.371 114.656 164.826 114.62 165.281L114.729 163.917Z" fill="#3D3D3D"/>
  <path d="M132.426 168.391C133.408 167.1 133.99 165.517 134.118 163.899C134.136 163.68 134.154 163.444 134.3 163.28C134.39 163.189 134.518 163.135 134.663 163.098C136.264 162.644 138.083 163.116 139.247 164.299C139.465 164.517 139.665 164.753 139.774 165.044C139.938 165.499 139.847 166.008 139.792 166.481C139.301 169.828 139.683 173.284 140.865 176.449C141.011 176.849 141.193 177.285 141.102 177.704C141.047 177.977 140.902 178.213 140.756 178.431C140.374 179.032 140.011 179.632 139.629 180.232C139.501 180.432 139.356 180.65 139.137 180.778C138.937 180.887 138.701 180.887 138.483 180.887C137.719 180.905 136.955 180.905 136.191 180.923C135.427 179.013 134.681 177.085 133.918 175.176C134.19 174.612 134.008 173.939 133.808 173.357C133.354 171.938 132.863 170.483 131.917 169.319C131.517 168.882 131.062 168.446 132.426 168.391Z" fill="#3D3D3D"/>
</svg>
