<svg width="1049" height="1148" viewBox="0 0 1049 1148" fill="none" xmlns="http://www.w3.org/2000/svg" preserveAspectRatio="none">
<path fill-rule="evenodd" clip-rule="evenodd" d="M1038.52 819.469C1074.93 706.723 994.561 588.288 974.076 468.086C952.471 341.305 1009.71 193.752 915.346 96.7029C820.977 -0.347148 661.622 18.1746 527.164 8.4769C408.36 -0.0917867 299.525 -12.1609 196.963 37.2069C95.5423 86.0247 24.7653 155.787 -35.8548 246.498C-104.795 349.659 -182.974 472.697 -178.499 599.044C-173.679 735.161 -103.875 871.786 2.48111 970.817C108.507 1069.54 241.953 1123.01 385.157 1141.61C522.493 1159.45 658.41 1137.97 776.562 1079.71C892.369 1022.62 999.995 938.757 1038.52 819.469Z" fill="#ADD8CD"/>
</svg>
