<svg width="1000" height="4996" viewBox="0 559 1000 4996" fill="none" xmlns="http://www.w3.org/2000/svg" preserveAspectRatio="none">
<path opacity="0.3" fill-rule="evenodd" clip-rule="evenodd" d="M-1931 3794.41C-1764.57 4361.82 -1918.35 4984.79 -1837.31 5530.01C-1745.04 6150.74 -1551.49 6422.24 -811.174 6951.62C-294.663 7320.96 454.322 7195.03 1051.52 6981.12C1579.19 6792.11 2194.24 6789.06 2674.24 6433.53C3115.01 6107.04 3587.05 5679.58 3690.44 5144.64C3808.03 4536.28 3679.68 2898.54 3439.97 2324.46C3032.35 1348.22 2631.38 1529.93 2191.51 1348.87C1318.66 989.586 1445.37 741.878 561.409 599.502C-360.59 451 -959.091 716.001 -800.59 1389C-620.308 2154.5 -2120.07 3149.78 -1931 3794.41Z" fill="#151C44"/>
<path opacity="0.3" fill-rule="evenodd" clip-rule="evenodd" d="M1531.33 2728.68C1326.69 2970.74 1266.97 3309.49 1108.99 3559.19C929.134 3843.47 775.368 3934.59 297.64 4033.54C-35.6681 4102.58 -375.527 3878.41 -621.893 3644.03C-839.577 3436.93 -1140.42 3302.05 -1298.62 3023.65C-1443.89 2768.01 -1582.59 2456.08 -1517.25 2171.42C-1442.95 1847.68 -1024.84 1072.67 -782.83 843.227C-371.276 453.055 -214.125 629.096 40.7786 635.736C546.592 648.911 525.612 560.781 999.38 637.629C1528.73 723.493 2043.84 1252.45 2117.1 1725.74C2181.59 2142.35 1763.83 2453.68 1531.33 2728.68Z" fill="#151C44"/>
</svg>
