<svg width="1440" height="6628" viewBox="0 377 1440 6628" fill="none" xmlns="http://www.w3.org/2000/svg" preserveAspectRatio="none">
<path opacity="0.3" fill-rule="evenodd" clip-rule="evenodd" d="M-1844 3612.26C-1677.57 4179.67 -1831.35 4802.64 -1750.31 5347.86C-1658.04 5968.59 -1464.49 6240.09 -724.174 6769.47C-207.663 7138.81 541.323 7012.88 1138.52 6798.97C1666.19 6609.96 2281.24 6606.91 2761.24 6251.38C3202.01 5924.89 3674.05 5497.44 3777.44 4962.49C3895.03 4354.13 3766.68 2716.39 3526.97 2142.32C3119.35 1166.07 2718.38 1347.78 2278.51 1166.72C1405.66 807.439 1532.37 559.731 648.409 417.355C-273.59 268.853 -872.091 533.854 -713.59 1206.86C-533.307 1972.35 -2033.07 2967.64 -1844 3612.26Z" fill="#151C44"/>
<path opacity="0.3" fill-rule="evenodd" clip-rule="evenodd" d="M1682.42 2728.68C1477.78 2970.74 1418.06 3309.49 1260.08 3559.19C1080.22 3843.47 926.458 3934.59 448.73 4033.54C115.422 4102.58 -224.436 3878.41 -470.803 3644.03C-688.487 3436.93 -989.332 3302.05 -1147.53 3023.65C-1292.8 2768.01 -1431.5 2456.08 -1366.16 2171.42C-1291.86 1847.68 -873.752 1072.67 -631.739 843.227C-220.186 453.055 -63.0348 629.096 191.869 635.736C697.682 648.911 676.702 560.781 1150.47 637.629C1679.82 723.493 2194.93 1252.45 2268.19 1725.74C2332.68 2142.35 1914.92 2453.68 1682.42 2728.68Z" fill="#151C44"/>
</svg>
