<svg width="315" height="344" viewBox="0 0 315 344" fill="none" xmlns="http://www.w3.org/2000/svg">
<path fill-rule="evenodd" clip-rule="evenodd" d="M38.2645 147.099C36.1376 114.067 38.8196 77.5606 62.841 54.7926C87.9459 30.9976 125.68 27.1382 159.955 31.7583C193.062 36.2211 222.065 53.8966 243.887 79.197C266.413 105.314 282.87 137.274 280.653 171.698C278.364 207.256 259.807 239.944 232.093 262.333C204.511 284.615 167.87 299.88 133.705 290.408C102.321 281.707 91.4268 245.44 73.3712 218.329C58.1185 195.426 40.0328 174.562 38.2645 147.099Z" fill="#FBB63B" fill-opacity="0.27"/>
<path fill-rule="evenodd" clip-rule="evenodd" d="M47.1675 157.688C45.1996 127.125 47.6811 93.3486 69.9065 72.2829C93.1343 50.267 128.047 46.6962 159.759 50.9708C190.391 55.1 217.225 71.4539 237.416 94.8626C258.258 119.027 273.484 148.598 271.433 180.447C269.315 213.347 252.146 243.591 226.504 264.306C200.984 284.922 167.083 299.046 135.472 290.282C106.434 282.231 96.3549 248.676 79.6493 223.592C65.5371 202.401 48.8036 183.097 47.1675 157.688Z" fill="#FBB63B"/>
<path d="M186.617 206.525H129.943C118.778 206.525 109.71 197.472 109.71 186.295V142.756C109.723 120.721 127.593 102.841 149.644 102.841H165.363C188.264 102.841 206.837 121.411 206.837 144.309V186.308C206.837 197.472 197.782 206.525 186.617 206.525Z" stroke="#37373D" stroke-width="6" stroke-miterlimit="10" stroke-linecap="round" stroke-linejoin="round"/>
<path d="M183.418 199.489H134.735C126.69 199.489 120.171 207.095 120.171 216.493L106.829 302.642C106.829 312.027 113.347 319.646 121.393 319.646H195.18C203.225 319.646 209.744 312.04 209.744 302.642L197.995 216.48C196.627 207.109 191.45 199.489 183.418 199.489ZM199.375 296.908C199.375 304.408 196.548 309.625 190.122 309.625H127.818C121.393 309.625 117.171 306.333 117.171 298.833L128.017 222.626C130.274 214.436 130.566 209.538 139.023 209.538H178.333C184.759 209.538 188.555 213.666 189.538 224.232L199.375 296.908Z" fill="#274D56"/>
<path d="M169.385 298.01H147.161V306.506H169.385V298.01Z" fill="#2C9C98"/>
<path d="M199.375 333.505H117.171L124.181 305.351H191.476L199.375 333.505Z" fill="#2C9C98"/>
<path d="M203.943 343.527H112.605C110.985 343.527 109.671 342.213 109.671 340.594V336.426C109.671 334.806 110.985 333.492 112.605 333.492H203.943C205.562 333.492 206.877 334.806 206.877 336.426V340.594C206.877 342.213 205.562 343.527 203.943 343.527Z" fill="#274D56"/>
<path d="M172.319 291.651H144.241C139.66 291.651 136.023 287.802 136.328 283.262L144.918 241.608H171.43L180.205 283.143C180.59 287.722 176.952 291.651 172.319 291.651Z" fill="#FEE7BD"/>
<path d="M169.65 281.727C168.949 288.033 164.745 290.835 162.41 292.003H154.003C152.524 291.224 147.95 286.857 147.464 283.128C146.764 277.757 148.165 272.152 151.901 265.38C154.89 259.962 160.776 256.817 163.111 255.805C162.332 257.362 160.507 261.778 162.41 267.248C164.279 272.62 170.578 273.372 169.65 281.727Z" fill="#FBB63B"/>
<path d="M166.098 284.674C165.613 288.978 162.427 291.205 160.81 292.002H154.988C153.964 291.471 150.797 288.49 150.46 285.945C149.975 282.279 150.273 279.729 152.861 275.106C154.931 271.408 156.917 268.406 158.534 267.715C157.995 268.777 159.356 272.489 161.084 274.582C163.366 277.346 166.583 280.37 166.098 284.674Z" fill="#EF8448"/>
<path d="M162.999 196.158H153.56C151.236 196.158 149.364 194.273 149.364 191.963V175.158C149.364 172.835 151.25 170.963 153.56 170.963H162.999C165.322 170.963 167.194 172.848 167.194 175.158V191.95C167.194 194.273 165.322 196.158 162.999 196.158Z" fill="#274D56"/>
<path d="M171.43 241.608H144.918L140.072 220.688H176.488L171.43 241.608Z" fill="#EF8448"/>
<path d="M180.537 298.01H136.023C135.014 298.01 134.204 297.187 134.204 296.192V293.47C134.204 292.462 135.027 291.652 136.023 291.652H180.537C181.546 291.652 182.356 292.475 182.356 293.47V296.192C182.356 297.2 181.546 298.01 180.537 298.01Z" fill="#E4694A"/>
<path d="M169.438 226.49H147.122C143.55 226.49 140.669 223.596 140.669 220.039V193.849C140.669 190.278 143.564 187.398 147.122 187.398H169.438C173.01 187.398 175.89 190.292 175.89 193.849V220.039C175.89 223.596 172.996 226.49 169.438 226.49Z" fill="#2C9C98"/>
<path d="M178.784 227.22H137.774C136.832 227.22 136.075 226.463 136.075 225.521V223.37C136.075 222.428 136.832 221.671 137.774 221.671H178.784C179.726 221.671 180.483 222.428 180.483 223.37V225.521C180.47 226.463 179.713 227.22 178.784 227.22Z" fill="#E4694A"/>
<path d="M178.784 192.919H137.774C136.832 192.919 136.075 192.162 136.075 191.22V189.069C136.075 188.127 136.832 187.37 137.774 187.37H178.784C179.726 187.37 180.483 188.127 180.483 189.069V191.22C180.47 192.162 179.713 192.919 178.784 192.919Z" fill="#274D56"/>
</svg>
