<svg width="863" height="406" viewBox="0 0 863 406" fill="none" xmlns="http://www.w3.org/2000/svg">
<path d="M863 0C863 0 494.138 28.9741 355.485 32.6714C216.832 36.3688 94.6938 46.5451 126.003 65.9648C157.311 85.3845 214.663 82.9931 210.878 112.891C207.936 136.138 77.73 148.029 78.7621 167.449C79.7943 186.869 139.12 180.816 149.758 202.858C156.854 217.563 154.274 233 154.274 233H143.193C143.193 233 143.193 215.749 131.548 212.422C119.902 209.096 16.0552 195.594 16.4886 164.058C16.8327 139.093 46.7653 129.538 60.1833 123.064C98.7997 104.434 -8.52191 99.2539 -36.7342 75.2125C-86.4979 32.801 -44.3033 0 -44.3033 0H863Z" fill="#151C44"/>
<path d="M114.421 265.393C107.075 278.99 109.987 300.326 124.856 300.326C140.055 306.235 157.955 308.313 169.327 295.677C178.299 285.708 162.719 275.27 154.718 261.115C148.318 249.79 157.106 231.028 158.395 218.072L147.453 225.17C147.453 242.182 120.469 254.199 114.421 265.393Z" fill="#151C44"/>
<path d="M150.257 208.301L117.46 350.694C117.512 351.754 118.345 352.254 119.313 352.433C120.535 352.661 121.109 352.377 121.614 352.104L155.208 206.425L150.257 208.301Z" fill="#664840"/>
<path d="M158.791 211.08L28.5157 395.58C28.1232 396.706 27.4489 399.211 27.8917 400.225C28.3344 401.239 30.166 401.781 31.0264 401.925L165.717 210.862L158.791 211.08Z" fill="#8B574A"/>
<path d="M108.6 399.413C114.55 400.265 130.211 404.074 144.69 401.063C152.514 400.046 180.049 399.31 188.646 396.82C197.243 394.33 206.708 397.988 221.13 393.833C235.552 389.678 219.236 378.334 214.777 373.511C210.318 368.687 206.038 361.791 195.261 360.032C184.484 358.274 159.831 354.681 146.764 352.119C133.696 349.556 112.653 356.333 106.513 357.325C100.373 358.317 96.8642 366.976 81.3308 371.415C65.7975 375.854 70.3925 383.422 71.3478 385.668C72.3031 387.914 102.65 398.562 108.6 399.413Z" fill="#808080"/>
<path d="M116.087 392.703C120.912 393.417 133.613 396.601 145.349 394.112C151.691 393.274 174.015 392.69 180.982 390.629C187.95 388.568 195.627 391.619 207.316 388.179C219.005 384.74 205.765 375.291 202.145 371.276C198.525 367.261 195.047 361.523 186.308 360.05C177.568 358.577 157.577 355.565 146.98 353.421C136.383 351.277 119.329 356.889 114.352 357.708C109.375 358.527 106.539 365.722 93.9498 369.397C81.3605 373.072 85.0937 379.369 85.8706 381.237C86.6474 383.105 111.263 391.989 116.087 392.703Z" fill="#3A3530"/>
<path d="M112.739 296.757C110.14 291.384 135.773 249.316 148.915 228.954C158.952 249.677 179.199 292.251 179.892 296.757C180.585 301.262 173.682 305.566 170.144 307.154H125.303C122.198 305.927 115.339 302.129 112.739 296.757Z" stroke="#363636" stroke-width="4" stroke-linejoin="round"/>
<path d="M248.893 377.725L139.733 217.509C139.374 216.51 138.727 214.277 139.012 213.335C139.297 212.394 140.666 211.807 141.316 211.631L254.192 377.558L248.893 377.725Z" fill="#78544B"/>
<path fill-rule="evenodd" clip-rule="evenodd" d="M123.351 297.84H172.74V326.381C172.741 326.398 172.741 326.416 172.741 326.434C172.741 330.98 161.685 334.666 148.046 334.666C134.407 334.666 123.351 330.98 123.351 326.434C123.351 326.434 123.351 326.434 123.351 326.434H123.351V297.84Z" fill="#A1ADB8"/>
<ellipse rx="25.9947" ry="6.93191" transform="matrix(-1 0 0 1 148.046 303.038)" fill="#2A3170"/>
<rect width="51.9893" height="10.3979" transform="matrix(-1 0 0 1 174.041 292.64)" fill="#2A3170"/>
<ellipse rx="25.9947" ry="6.93191" transform="matrix(-1 0 0 1 148.046 293.074)" fill="#3B68A6"/>
<path fill-rule="evenodd" clip-rule="evenodd" d="M151.947 284.409C151.224 285.275 149.824 287.225 149.997 288.092C150.095 288.583 150.71 289.006 151.224 289.358C151.477 289.531 151.705 289.688 151.834 289.827C151.908 289.896 151.947 289.967 151.947 290.041C151.947 290.519 150.298 290.907 148.264 290.907C146.231 290.907 144.582 290.52 144.582 290.041H144.581C144.581 290.035 144.582 290.028 144.583 290.022C144.586 289.981 144.602 289.941 144.629 289.902C144.735 289.729 145.004 289.516 145.297 289.284C145.774 288.906 146.314 288.479 146.314 288.092C146.314 287.398 145.159 285.348 144.581 284.409H151.947Z" fill="#2A3170"/>
<ellipse rx="3.68258" ry="0.866489" transform="matrix(-1 0 0 1 148.263 284.409)" fill="#3B68A6"/>
<rect width="7.36515" height="0.433244" transform="matrix(-1 0 0 1 151.946 283.976)" fill="#3B68A6"/>
<ellipse rx="3.68258" ry="0.866489" transform="matrix(-1 0 0 1 148.263 283.976)" fill="#6F8CC1"/>
<path d="M135.744 355.884C148.888 356.735 213.143 382.366 214.674 384.981C216.205 387.597 212.8 389.563 209.98 390.659C206.142 392.151 198.233 389.091 198.233 389.091C184.19 383.611 153.296 371.829 142.061 368.54C128.018 364.43 104.042 359.978 98.9045 359.293C94.7944 358.745 101.893 357.018 105.318 354.507C107.03 355.306 123.166 355.068 135.744 355.884Z" fill="#4A433C"/>
<path d="M137.271 352.614C138.204 353.235 157.085 381.234 166.41 395.156C169.518 397.487 174.18 396.321 174.18 394.185C174.18 392.048 147.178 354.362 146.013 352.614C144.847 350.865 136.106 351.837 137.271 352.614Z" fill="#655442"/>
<path d="M129.379 361.393C129.306 366.347 144.673 366.115 153.193 366.119C166.594 366.489 168.117 358.803 165.737 355.657C163.033 352.083 155.669 348.537 151.292 346.368C148.351 344.911 150.719 339.462 152.474 335.812C148.427 338.492 140.509 344.548 141.217 347.338C142.102 350.825 129.452 356.44 129.379 361.393Z" fill="#FBB63B"/>
<path d="M133.468 362.421C133.412 366.238 145.251 366.059 151.814 366.062C162.139 366.347 163.312 360.426 161.478 358.002C159.396 355.248 153.722 352.517 150.35 350.846C148.084 349.723 146.456 346.534 147.808 343.722C144.69 345.787 142.043 349.443 142.588 351.593C143.27 354.279 133.524 358.605 133.468 362.421Z" fill="#E4694A"/>
<path d="M147.567 365.62C146.082 364.839 133.853 363.731 127.924 363.275L148.447 368.943C148.773 368.161 149.053 366.402 147.567 365.62Z" fill="#4A433C"/>
<path d="M160.271 361.041C146.836 362.2 93.4594 381.542 91.6868 383.876C89.9142 386.21 91.0783 387.337 94.3644 388.014C98.5948 388.885 105.546 386.865 105.546 386.865C119.706 381.695 150.853 370.595 162.157 367.555C176.287 363.755 196.019 362.833 198.906 361.041C202.43 358.855 196.426 357.009 193.428 356.229C187.99 354.814 172.829 359.958 160.271 361.041Z" fill="#574F48"/>
<path d="M147.969 227.571C148.963 227.759 153.721 227.946 154.573 226.727C155.638 226.727 154.733 228.592 153.983 228.807C152.113 229.341 149.804 229.451 148.96 229.303C147.966 229.128 143.992 228.321 144.205 226.727C144.418 225.134 146.974 227.384 147.969 227.571Z" fill="#E4694A"/>
<path d="M151.633 229.173C150.639 229.36 145.881 229.548 145.029 228.329C143.964 228.329 144.869 230.194 145.619 230.408C147.489 230.942 149.798 231.052 150.642 230.904C151.636 230.729 155.61 229.923 155.397 228.329C155.184 226.735 152.628 228.985 151.633 229.173Z" fill="#CA5335"/>
</svg>
