<svg width="375" height="235" viewBox="0 0 375 235" fill="none" xmlns="http://www.w3.org/2000/svg">
<path d="M476 0C476 0 270.012 16.1658 192.583 18.2287C115.153 20.2916 46.9459 25.9694 64.43 36.8044C81.9141 47.6394 113.941 46.3051 111.828 62.9867C110.185 75.9569 37.4726 82.5914 38.049 93.4265C38.6254 104.261 71.7553 100.884 77.696 113.183C81.6588 121.387 80.2181 130 80.2181 130H74.0299C74.0299 130 74.0299 120.375 67.5266 118.519C61.0233 116.663 3.03079 109.13 3.27289 91.5347C3.46503 77.6053 20.1806 72.2745 27.6738 68.6621C49.2388 58.268 -10.6941 55.3777 -26.449 41.9641C-54.2391 18.301 -30.6759 0 -30.6759 0H476Z" fill="#151C44"/>
<path d="M55.5298 155.498C51.3568 163.222 53.0108 175.343 61.4575 175.343C70.0917 178.699 80.2605 179.88 86.7204 172.702C91.8172 167.039 82.9669 161.109 78.4218 153.068C74.7857 146.635 79.7779 135.977 80.5103 128.616L74.2943 132.648C74.2943 142.313 58.9654 149.139 55.5298 155.498Z" fill="#151C44"/>
<path d="M75.8876 123.066L57.256 203.956C57.2858 204.558 57.7592 204.842 58.3086 204.944C59.0031 205.073 59.3291 204.912 59.6161 204.757L78.6997 122L75.8876 123.066Z" fill="#664840"/>
<path d="M80.7355 124.644L6.7288 229.455C6.50584 230.094 6.1228 231.517 6.37432 232.093C6.62585 232.669 7.66631 232.977 8.1551 233.059L84.6699 124.521L80.7355 124.644Z" fill="#8B574A"/>
<path d="M52.2231 231.632C55.603 232.116 64.4998 234.28 72.725 232.569C77.1693 231.991 92.8114 231.573 97.6953 230.159C102.579 228.744 107.956 230.822 116.149 228.462C124.342 226.102 115.073 219.658 112.54 216.917C110.007 214.177 107.575 210.26 101.453 209.261C95.3309 208.262 81.3264 206.221 73.9031 204.765C66.4797 203.31 54.5252 207.159 51.0374 207.723C47.5496 208.286 45.5562 213.205 36.7321 215.727C27.9079 218.249 30.5182 222.548 31.0609 223.824C31.6036 225.1 48.8432 231.148 52.2231 231.632Z" fill="#808080"/>
<path d="M56.4763 227.82C59.2171 228.226 66.4325 230.034 73.0993 228.621C76.702 228.145 89.3835 227.813 93.3417 226.642C97.2999 225.471 101.661 227.204 108.301 225.25C114.941 223.296 107.42 217.929 105.364 215.648C103.307 213.367 101.332 210.108 96.3669 209.271C91.4023 208.434 80.0459 206.723 74.0259 205.505C68.0059 204.287 58.3176 207.475 55.4904 207.94C52.6632 208.406 51.0522 212.493 43.9005 214.58C36.7488 216.668 38.8696 220.245 39.3109 221.307C39.7522 222.368 53.7355 227.415 56.4763 227.82Z" fill="#3A3530"/>
<path d="M54.5744 173.315C53.0977 170.263 67.6596 146.365 75.1251 134.798C80.8268 146.571 92.3286 170.756 92.7224 173.315C93.1162 175.875 89.1948 178.32 87.1848 179.222H61.7118C59.9479 178.525 56.0511 176.367 54.5744 173.315Z" stroke="#363636" stroke-width="4" stroke-linejoin="round"/>
<path d="M131.921 219.312L69.9089 128.296C69.7051 127.729 69.3378 126.46 69.4995 125.925C69.6612 125.391 70.4393 125.057 70.8081 124.957L134.931 219.217L131.921 219.312Z" fill="#78544B"/>
<path fill-rule="evenodd" clip-rule="evenodd" d="M60.6022 173.93H88.6595V190.127C88.6599 190.143 88.6602 190.159 88.6602 190.174C88.6602 192.757 82.3793 194.85 74.6315 194.85C66.8837 194.85 60.6029 192.757 60.6029 190.174C60.6029 190.174 60.6029 190.174 60.6029 190.174H60.6022V173.93Z" fill="#A1ADB8"/>
<ellipse rx="14.767" ry="3.93786" transform="matrix(-1 0 0 1 74.6315 176.884)" fill="#2A3170"/>
<rect width="29.534" height="5.90679" transform="matrix(-1 0 0 1 89.3984 170.977)" fill="#2A3170"/>
<ellipse rx="14.767" ry="3.93786" transform="matrix(-1 0 0 1 74.6315 171.223)" fill="#3B68A6"/>
<path fill-rule="evenodd" clip-rule="evenodd" d="M76.8469 166.301C76.4367 166.793 75.6409 167.901 75.7394 168.393C75.7953 168.672 76.1447 168.912 76.4364 169.112C76.5793 169.21 76.7084 169.299 76.7822 169.378C76.8246 169.417 76.8472 169.458 76.8472 169.5C76.8472 169.772 75.9106 169.992 74.7552 169.992C73.6001 169.992 72.6636 169.772 72.6632 169.5H72.6629C72.6629 169.495 72.6634 169.49 72.6643 169.484C72.6671 169.463 72.6754 169.443 72.6889 169.423C72.7483 169.324 72.9019 169.203 73.0692 169.07C73.3403 168.856 73.6474 168.613 73.6474 168.393C73.6474 167.999 72.9911 166.834 72.6629 166.301H76.8469Z" fill="#2A3170"/>
<ellipse rx="2.09199" ry="0.492233" transform="matrix(-1 0 0 1 74.7547 166.301)" fill="#3B68A6"/>
<rect width="4.18398" height="0.246116" transform="matrix(-1 0 0 1 76.8467 166.055)" fill="#3B68A6"/>
<ellipse rx="2.09199" ry="0.492233" transform="matrix(-1 0 0 1 74.7547 166.055)" fill="#6F8CC1"/>
<path d="M67.6433 206.904C75.1103 207.388 111.612 221.948 112.481 223.434C113.351 224.919 111.417 226.036 109.815 226.659C107.635 227.507 103.142 225.768 103.142 225.768C95.1644 222.655 77.6139 215.962 71.2318 214.094C63.2543 211.759 49.6342 209.23 46.7156 208.841C44.3807 208.529 48.413 207.549 50.3587 206.122C51.3316 206.576 60.498 206.441 67.6433 206.904Z" fill="#4A433C"/>
<path d="M68.5106 205.046C69.0402 205.4 79.7665 221.305 85.0634 229.214C86.8291 230.538 89.4775 229.876 89.4775 228.662C89.4775 227.448 74.1385 206.04 73.4764 205.046C72.8143 204.053 67.8484 204.605 68.5106 205.046Z" fill="#655442"/>
<path d="M64.0273 210.034C63.9859 212.848 72.7156 212.716 77.5553 212.719C85.1682 212.928 86.0333 208.562 84.6813 206.775C83.1455 204.745 78.9618 202.73 76.4756 201.499C74.8047 200.671 76.15 197.575 77.1473 195.502C74.8481 197.024 70.35 200.465 70.7523 202.049C71.2552 204.03 64.0687 207.22 64.0273 210.034Z" fill="#FBB63B"/>
<path d="M66.3496 210.618C66.3177 212.786 73.0433 212.684 76.7718 212.686C82.6369 212.848 83.3034 209.484 82.2618 208.107C81.0786 206.543 77.8554 204.991 75.94 204.042C74.6527 203.404 73.7279 201.593 74.4962 199.995C72.7248 201.168 71.2208 203.245 71.5307 204.466C71.9181 205.993 66.3816 208.45 66.3496 210.618Z" fill="#E4694A"/>
<path d="M74.3595 212.435C73.5156 211.991 66.5687 211.362 63.2007 211.103L74.8591 214.323C75.0442 213.879 75.2033 212.879 74.3595 212.435Z" fill="#4A433C"/>
<path d="M81.5764 209.834C73.9441 210.492 43.6219 221.48 42.615 222.806C41.608 224.132 42.2693 224.772 44.1361 225.156C46.5392 225.651 50.488 224.504 50.488 224.504C58.5321 221.567 76.2257 215.261 82.6473 213.534C90.6742 211.376 101.884 210.852 103.524 209.834C105.525 208.592 102.115 207.544 100.412 207.1C97.3225 206.297 88.7102 209.219 81.5764 209.834Z" fill="#574F48"/>
<path d="M74.5877 134.013C75.1525 134.119 77.8553 134.226 78.3394 133.533C78.9445 133.533 78.4306 134.593 78.0041 134.714C76.942 135.018 75.6306 135.08 75.1508 134.996C74.586 134.897 72.3287 134.439 72.4497 133.533C72.5707 132.628 74.023 133.906 74.5877 134.013Z" fill="#E4694A"/>
<path d="M76.6696 134.922C76.1048 135.029 73.402 135.135 72.9179 134.443C72.3129 134.443 72.8267 135.502 73.2532 135.624C74.3154 135.928 75.6267 135.99 76.1066 135.906C76.6713 135.807 78.9287 135.348 78.8076 134.443C78.6866 133.538 77.2344 134.816 76.6696 134.922Z" fill="#CA5335"/>
</svg>
