<svg width="1329" height="820" viewBox="0 0 1329 820" fill="none" xmlns="http://www.w3.org/2000/svg">
<path d="M1328.5 20.5C1328.5 20.5 1048.1 51.1088 732.624 57.6307C417.148 64.1526 139.248 82.1032 210.485 116.359C281.721 150.614 412.212 146.396 403.601 199.135C396.908 240.141 100.65 261.116 102.999 295.371C105.347 329.627 240.33 318.949 264.535 357.832C280.681 383.769 274.811 411 274.811 411H249.598C249.598 411 249.598 380.57 223.101 374.702C196.605 368.834 -39.6777 345.017 -38.6914 289.39C-37.9086 245.352 30.1967 228.499 60.7266 217.078C148.59 184.217 -95.5972 175.079 -159.788 132.671C-273.015 57.8593 -177.01 0 -177.01 0L1328.5 20.5Z" fill="#151C44"/>
<path d="M182.82 499.08C165.992 530.226 172.662 579.101 206.723 579.101C241.54 592.637 282.544 597.397 308.594 568.453C329.146 545.617 293.458 521.705 275.13 489.279C260.468 463.338 280.598 420.36 283.552 390.681L258.486 406.94C258.486 445.91 196.674 473.438 182.82 499.08Z" fill="#151C44"/>
<path d="M264.912 368.298L189.781 694.48C189.901 696.909 191.81 698.054 194.026 698.466C196.826 698.986 198.141 698.336 199.298 697.711L276.251 364L264.912 368.298Z" fill="#664840"/>
<path d="M284.463 374.664L-13.9632 797.302C-14.8622 799.882 -16.4068 805.621 -15.3926 807.943C-14.3783 810.266 -10.1827 811.507 -8.2117 811.838L300.329 374.164L284.463 374.664Z" fill="#8B574A"/>
<path d="M169.486 806.084C183.115 808.034 218.991 816.76 252.158 809.863C270.08 807.533 333.155 805.846 352.849 800.142C372.543 794.438 394.224 802.818 427.262 793.3C460.299 783.783 422.923 757.797 412.709 746.747C402.495 735.698 392.69 719.901 368.002 715.872C343.315 711.844 286.843 703.614 256.909 697.744C226.975 691.875 178.769 707.397 164.705 709.671C150.64 711.944 142.602 731.777 107.019 741.946C71.4366 752.115 81.9625 769.453 84.1509 774.597C86.3392 779.741 155.857 804.133 169.486 806.084Z" fill="#808080"/>
<path d="M186.641 790.713C197.693 792.349 226.788 799.641 253.672 793.94C268.199 792.021 319.337 790.684 335.298 785.962C351.259 781.239 368.846 788.228 395.621 780.349C422.397 772.471 392.068 750.827 383.775 741.63C375.482 732.433 367.516 719.288 347.497 715.914C327.477 712.539 281.683 705.638 257.408 700.728C233.133 695.817 194.066 708.673 182.665 710.549C171.265 712.424 164.768 728.906 135.93 737.324C107.091 745.742 115.643 760.168 117.422 764.447C119.202 768.726 175.589 789.077 186.641 790.713Z" fill="#3A3530"/>
<path d="M178.967 570.925C173.012 558.619 231.732 462.252 261.836 415.607C284.828 463.079 331.208 560.604 332.796 570.925C334.384 581.246 318.571 591.105 310.466 594.744H207.748C200.635 591.932 184.921 583.231 178.967 570.925Z" stroke="#363636" stroke-width="4" stroke-linejoin="round"/>
<path d="M490.862 756.402L240.805 389.389C239.983 387.101 238.501 381.986 239.153 379.829C239.806 377.672 242.943 376.327 244.43 375.925L503 756.02L490.862 756.402Z" fill="#78544B"/>
<path fill-rule="evenodd" clip-rule="evenodd" d="M203.281 573.406H316.42V638.908C316.42 649.322 291.093 657.764 259.851 657.764C228.608 657.764 203.281 649.322 203.281 638.908C203.281 638.903 203.281 638.898 203.281 638.894V573.406Z" fill="#A1ADB8"/>
<ellipse rx="59.5468" ry="15.8791" transform="matrix(-1 0 0 1 259.851 585.315)" fill="#2A3170"/>
<rect width="119.094" height="23.8187" transform="matrix(-1 0 0 1 319.397 561.497)" fill="#2A3170"/>
<ellipse rx="59.5468" ry="15.8791" transform="matrix(-1 0 0 1 259.851 562.489)" fill="#3B68A6"/>
<path fill-rule="evenodd" clip-rule="evenodd" d="M268.783 542.64C267.129 544.625 263.92 549.091 264.317 551.076C264.542 552.203 265.951 553.17 267.127 553.977C267.711 554.378 268.238 554.739 268.534 555.061C268.696 555.215 268.783 555.376 268.783 555.542C268.783 556.638 265.006 557.527 260.347 557.527C255.688 557.527 251.911 556.638 251.911 555.542C251.911 555.542 251.911 555.542 251.911 555.542H251.911C251.911 555.539 251.911 555.537 251.911 555.534C251.913 555.428 251.95 555.324 252.02 555.222C252.263 554.826 252.879 554.338 253.549 553.808C254.643 552.943 255.881 551.963 255.881 551.076C255.881 549.488 253.234 544.791 251.911 542.64H268.783Z" fill="#2A3170"/>
<ellipse rx="8.43579" ry="1.98489" transform="matrix(-1 0 0 1 260.347 542.64)" fill="#3B68A6"/>
<rect width="16.8716" height="0.992446" transform="matrix(-1 0 0 1 268.783 541.648)" fill="#3B68A6"/>
<ellipse rx="8.43579" ry="1.98489" transform="matrix(-1 0 0 1 260.347 541.648)" fill="#6F8CC1"/>
<path d="M231.668 706.369C261.778 708.32 408.967 767.032 412.474 773.023C415.981 779.015 408.183 783.519 401.722 786.031C392.931 789.448 374.813 782.438 374.813 782.438C342.644 769.885 271.873 742.894 246.138 735.362C213.969 725.947 159.047 715.747 147.278 714.178C137.863 712.923 154.123 708.968 161.969 703.214C165.892 705.045 202.855 704.501 231.668 706.369Z" fill="#4A433C"/>
<path d="M235.163 698.879C237.299 700.303 280.552 764.44 301.911 796.331C309.031 801.671 319.711 799.001 319.711 794.106C319.711 789.211 257.857 702.883 255.187 698.879C252.517 694.874 232.493 697.099 235.163 698.879Z" fill="#655442"/>
<path d="M217.087 718.991C216.92 730.338 252.122 729.806 271.638 729.817C302.336 730.662 305.824 713.057 300.372 705.85C294.179 697.663 277.309 689.54 267.284 684.573C260.546 681.234 265.971 668.751 269.992 660.39C260.721 666.529 242.583 680.403 244.205 686.794C246.233 694.782 217.254 707.643 217.087 718.991Z" fill="#FBB63B"/>
<path d="M226.454 721.346C226.325 730.088 253.445 729.678 268.481 729.686C292.131 730.338 294.819 716.775 290.618 711.222C285.847 704.915 272.85 698.657 265.126 694.83C259.935 692.258 256.206 684.953 259.305 678.512C252.162 683.241 246.097 691.617 247.346 696.541C248.909 702.695 226.583 712.603 226.454 721.346Z" fill="#E4694A"/>
<path d="M258.749 728.673C255.347 726.882 227.334 724.345 213.753 723.301L260.764 736.285C261.51 734.494 262.152 730.464 258.749 728.673Z" fill="#4A433C"/>
<path d="M287.851 718.184C257.075 720.839 134.803 765.146 130.742 770.492C126.682 775.838 129.348 778.421 136.876 779.971C146.566 781.966 162.49 777.339 162.49 777.339C194.927 765.496 266.275 740.07 292.169 733.106C324.537 724.401 369.739 722.288 376.353 718.184C384.424 713.176 370.672 708.948 363.803 707.161C351.346 703.92 316.618 715.703 287.851 718.184Z" fill="#574F48"/>
</svg>
