<svg width="1440" height="408" fill="none" xmlns="http://www.w3.org/2000/svg">
  <path d="M-25 .697s275.556 50.606 588.37 57.064c312.814 6.458 588.37 24.232 517.73 58.15-70.63 33.919-200.02 29.742-191.482 81.962 6.637 40.603 300.392 61.372 298.062 95.291-2.32 33.918-136.17 23.346-160.17 61.846-16.01 25.682-10.19 52.645-10.19 52.645h25s0-30.131 26.27-35.941c26.28-5.811 260.57-29.393 259.59-84.473-.78-43.605-68.31-60.292-98.58-71.601-87.12-32.538 155-41.586 218.65-83.577C1560.53 57.988 1465.33.697 1465.33.697H-25z" fill="#151C44"/>
</svg>