<svg width="1492" height="307" viewBox="0 0 1492 307" fill="none" xmlns="http://www.w3.org/2000/svg">
<path d="M0 0C0 0 176.996 32.1051 215.035 44.2581C253.074 56.411 475.095 129.342 540.304 131.365C605.513 133.388 856.258 165.801 877.994 179.984C899.731 194.166 1051 298 1051 298H523.897H0V0Z" fill="#151C44"/>
<mask id="mask0" mask-type="alpha" maskUnits="userSpaceOnUse" x="1" y="0" width="1051" height="298">
<path d="M1 0C1 0 177.962 32.0567 215.993 44.1913C254.024 56.3259 476.002 129.147 541.199 131.167C606.395 133.187 857.091 165.551 878.823 179.712C900.555 193.874 1051.79 297.551 1051.79 297.551H524.794H1V0Z" fill="#151C44"/>
</mask>
<g mask="url(#mask0)">
<path d="M637.794 147.22C585.54 143.793 501.961 124.885 466.794 114.147L729.294 123.596L947.294 196.614C930.794 201.625 896.194 201.768 877.794 189.742C854.794 174.709 703.294 151.515 637.794 147.22Z" fill="#FBB63B"/>
</g>
<path d="M1491.29 41C1491.29 41 1360.18 53.0165 1323.71 81.9563C1287.24 110.896 1121.21 161.219 1075.44 165.504C1029.66 169.79 809.319 204.064 797.681 210.493C786.044 216.922 716.294 237.27 716.294 237.27V297.539H1142.02L1491.29 307V41Z" fill="#151C44"/>
</svg>
