<svg width="367" height="521" viewBox="0 0 367 521" fill="none" xmlns="http://www.w3.org/2000/svg">
<path opacity="0.35" d="M218.726 520.93C218.726 520.93 291.366 388.364 279.072 316.47C266.778 244.575 206.44 16.8767 179.616 1.91254C152.793 -13.0516 20.9253 143.459 3.0429 269.288C-14.8395 395.117 60.0509 520.93 60.0509 520.93H218.726Z" fill="#FBB63B"/>
<path d="M157.13 376.694C153.156 362.886 158.977 341.682 165.667 330.125C174.205 315.378 167.22 298.303 151.697 288.213C136.174 278.123 116.77 267.257 117.546 250.182C117.896 242.42 129.499 228.861 142.034 216.396C157.06 201.463 148.592 178 148.592 178C148.592 178 151.293 205.375 135.398 216.807C119.502 228.24 107.922 236.118 103.576 245.525C98.9187 255.615 94.2618 268.033 107.456 288.989C118.749 306.926 136.616 306.763 114.442 336.334C92.2671 365.905 63.216 402.182 72.9256 437.559C82.6352 472.936 103.299 494.344 103.299 494.344L149.368 491.563C149.368 491.563 176.27 470.996 174.981 430.248C174.267 407.74 161.251 391.021 157.13 376.694Z" fill="#FBB63B"/>
<path d="M149.912 393.769C145.325 382.988 143.803 366.604 145.666 355.738C147.793 343.319 158.713 328.572 150.921 314.602C144.906 303.821 141.607 298.303 143.159 315.378C144.176 326.562 130.741 336.334 112.362 358.842C93.5944 381.824 76.7521 413.949 84.0789 443.264C91.4058 472.579 107.799 490.844 107.799 490.844L141.863 487.978C141.863 487.978 165.054 472.524 164.115 438.785C163.549 420.158 154.871 405.411 149.912 393.769Z" fill="#E4694A"/>
<path d="M40.1172 282.98C43.3578 288.118 44.5332 301.971 40.1172 307.268C35.7011 312.566 24.216 305.505 18.9183 300.208C16.6599 297.949 13.4947 286.649 17.1552 280.772C20.2364 275.827 33.3587 272.284 40.1172 282.98Z" fill="#151C44"/>
<path d="M18.6582 295.506C18.6582 295.506 21.1769 306.42 21.1769 311.458C21.1769 316.495 12.7813 319.014 9.42306 322.372C6.06483 325.73 5.22527 339.163 4.38572 350.077C3.54616 360.992 -2.33074 383.66 1.02749 389.536C4.38572 395.413 10.2626 396.253 10.2626 407.167C10.2626 418.081 16.9791 486.925 16.9791 486.925L59.7965 491.123C59.7965 491.123 55.5987 410.525 57.2778 408.846C58.9569 407.167 67.3525 404.649 66.5129 389.536C65.6734 374.424 62.3151 326.57 48.8822 322.372C35.4493 318.174 28.7329 314.816 30.412 303.902C32.0911 292.987 18.6582 295.506 18.6582 295.506Z" fill="#151C44"/>
<mask id="mask0" mask-type="alpha" maskUnits="userSpaceOnUse" x="0" y="276" width="67" height="216">
<path fill-rule="evenodd" clip-rule="evenodd" d="M40.1171 307.268C44.5332 301.971 43.3578 288.118 40.1171 282.98C33.3587 272.284 20.2364 275.827 17.1552 280.772C13.4947 286.649 16.6599 297.949 18.9183 300.208C19.2014 300.491 19.5021 300.779 19.8185 301.07C20.4794 304.529 21.1769 308.807 21.1769 311.458C21.1769 314.79 17.5035 317.02 14.0445 319.12C12.2742 320.194 10.5599 321.235 9.42306 322.372C6.2497 325.545 5.32534 337.715 4.52479 348.254C4.47815 348.868 4.43193 349.476 4.38572 350.077C4.11433 353.605 3.3166 358.361 2.47458 363.382C0.71174 373.892 -1.2452 385.559 1.02749 389.536C2.10636 391.425 3.44518 392.793 4.76558 394.142C7.55522 396.993 10.2626 399.759 10.2626 407.167C10.2626 418.081 16.9791 486.925 16.9791 486.925L59.7965 491.123C59.7965 491.123 55.5987 410.525 57.2778 408.846C57.5478 408.576 57.9915 408.285 58.5425 407.922C61.4181 406.032 67.2175 402.218 66.5129 389.536C65.6734 374.424 62.3151 326.57 48.8822 322.372C37.2247 318.729 30.6256 315.718 30.1823 307.853C34.1493 309.498 37.9693 309.845 40.1171 307.268Z" fill="#151C44"/>
</mask>
<g mask="url(#mask0)">
<path d="M15.2998 271.999C15.2998 271.999 34.6096 278.715 37.1283 287.111C39.647 295.506 39.647 304.741 37.9678 308.1C36.2887 311.458 29.4464 315.58 33.2831 319.014C37.1199 322.448 46.3634 324.051 50.5612 335.805C54.759 347.559 58.9568 390.376 58.1172 399.611C57.2776 408.846 51.4007 410.526 52.2403 428.996C53.0799 447.466 53.9194 491.123 53.9194 491.123L66.5128 488.831L73.4391 374.651L43.0052 271.999H15.2998Z" fill="#FBB63B"/>
</g>
<path d="M17.9258 299.215C14.4489 289.48 16.4835 287.136 16.3032 282.449C22.2525 289.119 35.3411 303.866 33.6104 305.164C31.8797 306.462 31.2667 311.835 31.9878 314.9L14.6807 318.686C24.9568 311.114 20.0892 305.273 17.9258 299.215Z" fill="#151C44"/>
<path d="M218.855 358.349C213.231 344.283 198.276 347.324 190.957 353.055C184.759 357.909 184.613 380.957 193.293 388.222C201.972 395.488 213.438 389.843 215.761 385.8C218.084 381.757 222.73 368.037 218.855 358.349Z" fill="#151C44"/>
<path d="M193.364 381.67C193.364 381.67 199.514 387.52 195.669 392.532C191.824 397.544 181.065 392.532 178.76 400.05C176.455 407.567 153.386 477.231 153.386 477.231L238.717 473.59C238.717 473.59 235.647 429.302 232.568 416.762C229.488 404.223 224.878 399.221 216.423 395.877C207.969 392.532 211.048 379.164 211.048 379.164L193.364 381.67Z" fill="#151C44"/>
<mask id="mask1" mask-type="alpha" maskUnits="userSpaceOnUse" x="153" y="348" width="86" height="129">
<path fill-rule="evenodd" clip-rule="evenodd" d="M190.32 353.213C196.051 346.645 213.23 344.166 218.854 358.673C222.729 368.663 218.083 382.813 215.76 386.982C215.078 388.207 213.607 389.574 211.65 390.704C212.519 392.825 214.02 394.675 216.531 395.657C225.052 398.991 229.698 403.976 232.802 416.474C235.906 428.972 239 473.113 239 473.113L153 476.742C153 476.742 176.25 407.309 178.573 399.816C179.863 395.656 183.78 395.346 187.672 395.038C190.79 394.791 193.891 394.545 195.614 392.324C195.836 392.038 196.025 391.749 196.184 391.459C195.197 390.942 194.228 390.288 193.292 389.48C184.613 381.987 184.589 359.78 190.32 353.213Z" fill="#151C44"/>
</mask>
<g mask="url(#mask1)">
<path d="M213.298 346.379C213.298 346.379 198.471 350.456 193.528 356.573C188.991 362.19 187.597 380.019 193.528 386.136C199.459 392.252 198.471 392.252 197.482 394.291C195.505 398.369 183.643 398.369 181.666 401.427C179.689 404.485 154.977 485.019 154.977 485.019L142.126 482.98L189.574 331.087L213.298 346.379Z" fill="#FBB63B"/>
</g>
<path d="M329.811 340.631C326.8 344.465 327.002 351.008 327.405 356.224C327.708 360.198 330.51 365.39 331.418 366.647C332.085 367.579 332.97 368.883 334.22 368.65C339.435 367.695 346.165 366.989 350.659 363.038C355.153 359.088 358.684 348.718 353.872 341.787C349.06 334.856 335.198 333.762 329.811 340.631Z" fill="#151C44"/>
<path d="M346.25 360.205C346.25 360.205 345.047 371.436 346.25 373.035C347.453 374.634 337.829 379.454 337.829 379.454H334.22C334.22 379.454 337.829 364.614 336.626 360.205C335.423 355.797 346.25 360.205 346.25 360.205Z" fill="#151C44"/>
<path d="M341.841 374.665C341.841 374.665 347.856 369.449 350.262 371.056C352.668 372.662 361.485 402.73 362.681 411.152C363.876 419.573 370.302 435.988 362.681 444.836C355.059 453.685 341.026 458.466 326.978 459.669C312.93 460.872 283.677 453.258 278.461 452.055C273.245 450.852 265.266 438.022 273.649 432.806C282.031 427.59 305.727 423.586 309.352 423.586C312.976 423.586 341.841 374.665 341.841 374.665Z" fill="#151C44"/>
<path d="M337.813 374.44C337.813 374.44 326.039 386.136 319.062 395.543C312.084 404.95 293.682 437.517 293.682 437.517L320.241 440.839L346.747 376.318L337.813 374.44Z" fill="#151C44"/>
<path d="M333.824 337.309C333.824 337.309 344.084 334.204 348.842 337.914C355.874 343.386 358.684 349.005 359.087 363.038C359.491 377.071 356.107 387.223 355.797 386.16C355.486 385.096 337.433 379.477 337.433 379.477L333.824 355.82V337.309Z" fill="#151C44"/>
<mask id="mask2" mask-type="alpha" maskUnits="userSpaceOnUse" x="270" y="336" width="97" height="124">
<path fill-rule="evenodd" clip-rule="evenodd" d="M329.811 340.631C326.8 344.465 327.002 351.008 327.405 356.224C327.708 360.198 330.51 365.39 331.418 366.647L331.484 366.739C332.143 367.662 333.011 368.875 334.22 368.65C334.714 368.559 335.222 368.471 335.74 368.382L336.053 370.436C335.58 373.28 335.005 375.997 334.627 377.692C330.638 381.831 323.762 389.207 319.062 395.543C314.977 401.05 306.978 414.492 301.047 424.692C292.308 426.231 279.388 429.235 273.649 432.806C265.266 438.022 273.245 450.852 278.461 452.055C278.997 452.178 279.786 452.369 280.786 452.612L280.788 452.612L280.788 452.612L280.789 452.612C289.53 454.73 314.374 460.748 326.978 459.669C341.026 458.466 355.059 453.685 362.681 444.836C368.654 437.902 365.999 426.32 363.995 417.581L363.995 417.581C363.443 415.169 362.939 412.973 362.681 411.152C362.022 406.514 359.053 395.313 356.116 385.915C357.029 384.121 359.431 374.986 359.087 363.038C358.854 354.94 357.82 349.644 355.636 345.562C355.264 344.237 354.688 342.963 353.872 341.787C352.5 339.811 350.392 338.309 347.955 337.332C346.542 336.553 344.81 336.21 343.048 336.118C340.3 335.815 337.475 336.09 335.006 336.997C334.265 337.175 333.824 337.309 333.824 337.309V337.494C332.249 338.244 330.867 339.285 329.811 340.631Z" fill="#151C44"/>
</mask>
<g mask="url(#mask2)">
<path d="M339.971 331.488C339.971 331.488 329.881 343.13 330.657 350.892C331.433 358.653 338.007 363.628 337.642 367.191C337.277 370.753 343.075 373.454 335.314 386.23C327.552 399.005 312.029 418.416 309.701 423.849C307.372 429.282 285.64 429.282 280.983 433.163C278.959 434.796 277.497 437.02 276.801 439.526C276.105 442.031 276.21 444.691 277.103 447.134C278.655 451.791 270.117 456.448 270.117 456.448L242.952 433.163L333.761 324.503L339.971 331.488Z" fill="#FBB63B"/>
</g>
</svg>
