<svg width="828" height="1128" viewBox="0 0 828 1128" fill="none" xmlns="http://www.w3.org/2000/svg">
<path d="M445.035 738.022C444.506 738.796 444.574 739.763 445.188 740.183C445.802 740.603 446.728 740.316 447.258 739.542C447.787 738.768 447.719 737.8 447.105 737.38C446.491 736.961 445.565 737.248 445.035 738.022Z" fill="#EACA91"/>
<path d="M235.703 916.341C235.46 916.695 235.492 917.139 235.773 917.331C236.054 917.524 236.479 917.392 236.722 917.037C236.964 916.683 236.933 916.239 236.652 916.047C236.37 915.854 235.946 915.986 235.703 916.341Z" fill="#EACA91"/>
<path d="M567.439 342.642C567.197 342.997 567.228 343.441 567.509 343.633C567.791 343.825 568.215 343.694 568.458 343.339C568.701 342.984 568.669 342.541 568.388 342.348C568.107 342.156 567.682 342.288 567.439 342.642Z" fill="#EACA91"/>
<path d="M556.337 289.658C556.095 290.012 556.126 290.456 556.407 290.648C556.689 290.841 557.113 290.709 557.356 290.354C557.599 290 557.567 289.556 557.286 289.364C557.005 289.171 556.58 289.303 556.337 289.658Z" fill="#EACA91"/>
<path d="M203.439 849.642C203.197 849.997 203.228 850.441 203.509 850.633C203.791 850.825 204.215 850.694 204.458 850.339C204.701 849.984 204.669 849.541 204.388 849.348C204.107 849.156 203.682 849.288 203.439 849.642Z" fill="#EACA91"/>
<path d="M268.65 916.335C268.297 916.851 268.343 917.496 268.752 917.776C269.161 918.056 269.779 917.865 270.132 917.349C270.485 916.833 270.439 916.188 270.03 915.908C269.621 915.628 269.003 915.819 268.65 916.335Z" fill="#EACA91"/>
<path opacity="0.54" d="M533.281 447.524C532.817 448.201 532.877 449.048 533.414 449.415C533.951 449.782 534.762 449.531 535.225 448.854C535.688 448.176 535.629 447.33 535.092 446.962C534.555 446.595 533.744 446.846 533.281 447.524Z" fill="#EACA91"/>
<path d="M291.839 1074.23C291.376 1074.9 291.436 1075.75 291.973 1076.12C292.51 1076.48 293.32 1076.23 293.784 1075.56C294.247 1074.88 294.187 1074.03 293.65 1073.67C293.113 1073.3 292.302 1073.55 291.839 1074.23Z" fill="#EACA91"/>
<path d="M264.559 880.818C264.25 881.269 264.29 881.834 264.648 882.078C265.006 882.323 265.547 882.156 265.856 881.704C266.164 881.253 266.125 880.688 265.767 880.443C265.409 880.199 264.868 880.366 264.559 880.818Z" fill="#EACA91"/>
<path d="M462.923 757.517C462.57 758.033 462.616 758.678 463.025 758.958C463.434 759.238 464.052 759.046 464.404 758.53C464.757 758.014 464.712 757.369 464.303 757.089C463.894 756.81 463.276 757.001 462.923 757.517Z" fill="#EACA91"/>
<path d="M469.959 242.401C469.429 243.175 469.498 244.143 470.111 244.563C470.725 244.983 471.652 244.695 472.181 243.921C472.71 243.148 472.642 242.18 472.028 241.76C471.415 241.34 470.488 241.628 469.959 242.401Z" fill="#EACA91"/>
<path d="M513.43 508.233C513.187 508.588 513.219 509.031 513.5 509.224C513.781 509.416 514.206 509.285 514.449 508.93C514.691 508.575 514.66 508.132 514.379 507.939C514.097 507.747 513.673 507.878 513.43 508.233Z" fill="#EACA91"/>
<path d="M520.439 273.642C520.197 273.997 520.228 274.441 520.509 274.633C520.791 274.825 521.215 274.694 521.458 274.339C521.701 273.984 521.669 273.541 521.388 273.348C521.107 273.156 520.682 273.288 520.439 273.642Z" fill="#EACA91"/>
<path d="M447.439 669.642C447.197 669.997 447.228 670.441 447.509 670.633C447.791 670.825 448.215 670.694 448.458 670.339C448.701 669.984 448.669 669.541 448.388 669.348C448.107 669.156 447.682 669.288 447.439 669.642Z" fill="#EACA91"/>
<path d="M417.439 673.642C417.197 673.997 417.228 674.441 417.509 674.633C417.791 674.825 418.215 674.694 418.458 674.339C418.701 673.984 418.669 673.541 418.388 673.348C418.107 673.156 417.682 673.288 417.439 673.642Z" fill="#EACA91"/>
<path d="M297.639 1003.93C297.286 1004.45 297.332 1005.1 297.741 1005.38C298.15 1005.66 298.768 1005.46 299.121 1004.95C299.474 1004.43 299.428 1003.79 299.019 1003.51C298.61 1003.23 297.992 1003.42 297.639 1003.93Z" fill="#EACA91"/>
<path d="M294.839 1077.23C294.376 1077.9 294.435 1078.75 294.972 1079.12C295.509 1079.48 296.32 1079.23 296.783 1078.56C297.247 1077.88 297.187 1077.03 296.65 1076.67C296.113 1076.3 295.302 1076.55 294.839 1077.23Z" fill="#EACA91"/>
<path d="M319.839 825.226C319.376 825.904 319.435 826.75 319.972 827.118C320.509 827.485 321.32 827.234 321.783 826.556C322.247 825.879 322.187 825.032 321.65 824.665C321.113 824.298 320.302 824.549 319.839 825.226Z" fill="#EACA91"/>
<path d="M432.559 766.818C432.25 767.269 432.29 767.834 432.648 768.078C433.006 768.323 433.547 768.156 433.856 767.704C434.164 767.253 434.125 766.688 433.767 766.443C433.409 766.199 432.868 766.366 432.559 766.818Z" fill="#EACA91"/>
<path d="M477.639 711.934C477.286 712.45 477.332 713.095 477.741 713.375C478.15 713.655 478.768 713.464 479.121 712.948C479.474 712.432 479.428 711.787 479.019 711.507C478.61 711.227 477.992 711.418 477.639 711.934Z" fill="#EACA91"/>
<path d="M282.959 838.401C282.429 839.175 282.498 840.143 283.111 840.563C283.725 840.983 284.652 840.695 285.181 839.922C285.71 839.148 285.642 838.18 285.028 837.76C284.415 837.34 283.488 837.628 282.959 838.401Z" fill="#EACA91"/>
<path d="M299.439 856.642C299.197 856.997 299.228 857.441 299.509 857.633C299.791 857.825 300.215 857.694 300.458 857.339C300.701 856.984 300.669 856.541 300.388 856.348C300.107 856.156 299.682 856.288 299.439 856.642Z" fill="#EACA91"/>
<path d="M252.439 923.642C252.197 923.997 252.228 924.441 252.509 924.633C252.791 924.825 253.215 924.694 253.458 924.339C253.701 923.984 253.669 923.541 253.388 923.348C253.107 923.156 252.682 923.288 252.439 923.642Z" fill="#EACA91"/>
<path d="M394.524 801.909C394.282 802.264 394.313 802.707 394.594 802.9C394.876 803.092 395.3 802.96 395.543 802.606C395.785 802.251 395.754 801.807 395.473 801.615C395.192 801.423 394.767 801.554 394.524 801.909Z" fill="#EACA91"/>
<path d="M253.439 928.642C253.197 928.997 253.228 929.441 253.509 929.633C253.791 929.825 254.215 929.694 254.458 929.339C254.701 928.984 254.669 928.541 254.388 928.348C254.107 928.156 253.682 928.288 253.439 928.642Z" fill="#EACA91"/>
<path d="M289.439 836.642C289.197 836.997 289.228 837.441 289.509 837.633C289.791 837.825 290.215 837.694 290.458 837.339C290.701 836.984 290.669 836.541 290.388 836.348C290.107 836.156 289.682 836.288 289.439 836.642Z" fill="#EACA91"/>
<path d="M249.639 830.934C249.286 831.45 249.332 832.095 249.741 832.375C250.15 832.655 250.768 832.464 251.121 831.948C251.474 831.432 251.428 830.787 251.019 830.507C250.61 830.227 249.992 830.418 249.639 830.934Z" fill="#EACA91"/>
<path d="M312.839 1051.23C312.375 1051.9 312.435 1052.75 312.972 1053.12C313.509 1053.48 314.32 1053.23 314.783 1052.56C315.246 1051.88 315.187 1051.03 314.65 1050.67C314.113 1050.3 313.302 1050.55 312.839 1051.23Z" fill="#EACA91"/>
<path d="M319.839 1017.23C319.375 1017.9 319.435 1018.75 319.972 1019.12C320.509 1019.48 321.32 1019.23 321.783 1018.56C322.246 1017.88 322.187 1017.03 321.65 1016.67C321.113 1016.3 320.302 1016.55 319.839 1017.23Z" fill="#EACA91"/>
<path d="M326.839 1074.23C326.375 1074.9 326.435 1075.75 326.972 1076.12C327.509 1076.48 328.32 1076.23 328.783 1075.56C329.246 1074.88 329.187 1074.03 328.65 1073.67C328.113 1073.3 327.302 1073.55 326.839 1074.23Z" fill="#EACA91"/>
<path d="M478.559 741.818C478.25 742.269 478.29 742.834 478.648 743.078C479.006 743.323 479.547 743.156 479.856 742.704C480.164 742.253 480.125 741.688 479.767 741.443C479.409 741.199 478.868 741.366 478.559 741.818Z" fill="#EACA91"/>
<path d="M367.915 797.831C367.562 798.347 367.607 798.992 368.017 799.272C368.426 799.551 369.044 799.36 369.396 798.844C369.749 798.328 369.704 797.683 369.295 797.403C368.885 797.123 368.268 797.315 367.915 797.831Z" fill="#EACA91"/>
<path d="M237.959 970.401C237.429 971.175 237.498 972.143 238.111 972.563C238.725 972.983 239.652 972.695 240.181 971.921C240.71 971.147 240.642 970.18 240.028 969.76C239.415 969.34 238.488 969.627 237.959 970.401Z" fill="#EACA91"/>
<path d="M272.855 959.715C272.612 960.07 272.644 960.513 272.925 960.705C273.206 960.898 273.631 960.766 273.874 960.411C274.116 960.057 274.085 959.613 273.804 959.421C273.522 959.228 273.098 959.36 272.855 959.715Z" fill="#EACA91"/>
<path d="M262.439 981.642C262.197 981.997 262.228 982.441 262.509 982.633C262.791 982.825 263.215 982.694 263.458 982.339C263.701 981.984 263.669 981.541 263.388 981.348C263.107 981.156 262.682 981.288 262.439 981.642Z" fill="#EACA91"/>
<path d="M204.439 940.642C204.197 940.997 204.228 941.441 204.509 941.633C204.791 941.825 205.215 941.694 205.458 941.339C205.701 940.984 205.669 940.541 205.388 940.348C205.107 940.156 204.682 940.288 204.439 940.642Z" fill="#EACA91"/>
<path d="M278.639 998.934C278.286 999.45 278.332 1000.1 278.741 1000.38C279.15 1000.66 279.768 1000.46 280.121 999.948C280.474 999.432 280.428 998.787 280.019 998.507C279.61 998.227 278.992 998.418 278.639 998.934Z" fill="#EACA91"/>
<path d="M207.839 949.226C207.376 949.904 207.435 950.75 207.972 951.118C208.509 951.485 209.32 951.234 209.783 950.556C210.247 949.879 210.187 949.032 209.65 948.665C209.113 948.298 208.302 948.549 207.839 949.226Z" fill="#EACA91"/>
<path d="M266.839 970.226C266.376 970.904 266.435 971.75 266.972 972.118C267.509 972.485 268.32 972.234 268.783 971.556C269.247 970.879 269.187 970.032 268.65 969.665C268.113 969.298 267.302 969.549 266.839 970.226Z" fill="#EACA91"/>
<path d="M269.348 944.374C269.039 944.826 269.079 945.39 269.437 945.635C269.795 945.88 270.335 945.713 270.644 945.261C270.953 944.81 270.913 944.245 270.555 944C270.197 943.755 269.656 943.923 269.348 944.374Z" fill="#EACA91"/>
<path d="M234.639 902.934C234.286 903.45 234.332 904.095 234.741 904.375C235.15 904.655 235.768 904.464 236.121 903.948C236.474 903.432 236.428 902.787 236.019 902.507C235.61 902.227 234.992 902.418 234.639 902.934Z" fill="#EACA91"/>
<path d="M199.959 919.401C199.429 920.175 199.498 921.143 200.111 921.563C200.725 921.983 201.652 921.695 202.181 920.922C202.71 920.148 202.642 919.18 202.028 918.76C201.415 918.34 200.488 918.628 199.959 919.401Z" fill="#EACA91"/>
<path d="M284.439 869.642C284.197 869.997 284.228 870.441 284.509 870.633C284.791 870.825 285.215 870.694 285.458 870.339C285.701 869.984 285.669 869.541 285.388 869.348C285.107 869.156 284.682 869.288 284.439 869.642Z" fill="#EACA91"/>
<path d="M313.439 845.642C313.197 845.997 313.228 846.441 313.509 846.633C313.791 846.825 314.215 846.694 314.458 846.339C314.701 845.984 314.669 845.541 314.388 845.348C314.107 845.156 313.682 845.288 313.439 845.642Z" fill="#EACA91"/>
<path d="M469.439 688.642C469.197 688.997 469.228 689.441 469.509 689.633C469.791 689.825 470.215 689.694 470.458 689.339C470.701 688.984 470.669 688.541 470.388 688.348C470.107 688.156 469.682 688.288 469.439 688.642Z" fill="#EACA91"/>
<path d="M287.639 1004.93C287.286 1005.45 287.332 1006.1 287.741 1006.38C288.15 1006.66 288.768 1006.46 289.121 1005.95C289.474 1005.43 289.428 1004.79 289.019 1004.51C288.61 1004.23 287.992 1004.42 287.639 1004.93Z" fill="#EACA91"/>
<path d="M248.839 986.226C248.375 986.903 248.435 987.75 248.972 988.117C249.509 988.485 250.32 988.233 250.783 987.556C251.246 986.879 251.187 986.032 250.65 985.665C250.113 985.298 249.302 985.549 248.839 986.226Z" fill="#EACA91"/>
<path d="M235.839 874.226C235.376 874.904 235.435 875.75 235.972 876.118C236.509 876.485 237.32 876.234 237.783 875.556C238.247 874.879 238.187 874.032 237.65 873.665C237.113 873.298 236.302 873.549 235.839 874.226Z" fill="#EACA91"/>
<path d="M222.839 1078.23C222.376 1078.9 222.435 1079.75 222.972 1080.12C223.509 1080.48 224.32 1080.23 224.783 1079.56C225.247 1078.88 225.187 1078.03 224.65 1077.67C224.113 1077.3 223.302 1077.55 222.839 1078.23Z" fill="#EACA91"/>
<path d="M332.639 806.934C332.286 807.45 332.332 808.095 332.741 808.375C333.15 808.655 333.768 808.464 334.121 807.948C334.474 807.432 334.428 806.787 334.019 806.507C333.61 806.227 332.992 806.418 332.639 806.934Z" fill="#EACA91"/>
<path d="M588.925 517.806C588.682 518.161 588.713 518.604 588.995 518.797C589.276 518.989 589.701 518.857 589.943 518.503C590.186 518.148 590.155 517.704 589.873 517.512C589.592 517.32 589.167 517.451 588.925 517.806Z" fill="#EACA91"/>
<path d="M564.863 409.32C564.51 409.836 564.556 410.481 564.965 410.761C565.374 411.041 565.992 410.85 566.345 410.334C566.698 409.818 566.652 409.173 566.243 408.893C565.834 408.613 565.216 408.804 564.863 409.32Z" fill="#EACA91"/>
<path d="M571.559 534.818C571.25 535.269 571.29 535.834 571.648 536.078C572.006 536.323 572.547 536.156 572.856 535.704C573.164 535.253 573.125 534.688 572.767 534.443C572.409 534.199 571.868 534.366 571.559 534.818Z" fill="#EACA91"/>
<path opacity="0.3" d="M417.179 619.776C416.826 620.292 416.872 620.937 417.281 621.217C417.69 621.497 418.308 621.306 418.661 620.79C419.014 620.274 418.968 619.628 418.559 619.349C418.15 619.069 417.532 619.26 417.179 619.776Z" fill="#EACA91"/>
<path d="M490.383 606.844C490.166 607.161 490.194 607.558 490.445 607.73C490.697 607.902 491.077 607.784 491.294 607.467C491.511 607.15 491.483 606.753 491.231 606.581C490.98 606.409 490.6 606.527 490.383 606.844Z" fill="#EACA91"/>
<path d="M473.393 542.575C473.176 542.892 473.204 543.289 473.456 543.461C473.707 543.633 474.087 543.515 474.304 543.198C474.521 542.881 474.493 542.484 474.242 542.312C473.99 542.14 473.61 542.257 473.393 542.575Z" fill="#EACA91"/>
<path opacity="0.54" d="M454.833 523.876C454.518 524.336 454.559 524.912 454.924 525.162C455.289 525.412 455.841 525.241 456.156 524.78C456.471 524.32 456.43 523.744 456.065 523.494C455.7 523.245 455.148 523.415 454.833 523.876Z" fill="#EACA91"/>
<path opacity="0.54" d="M493.627 542.831C493.214 543.436 493.267 544.192 493.747 544.52C494.226 544.848 494.951 544.624 495.365 544.019C495.778 543.414 495.725 542.657 495.245 542.329C494.765 542.001 494.041 542.226 493.627 542.831Z" fill="#EACA91"/>
<path d="M549.5 426.731C549.224 427.135 549.26 427.64 549.58 427.859C549.9 428.078 550.383 427.928 550.659 427.524C550.936 427.12 550.9 426.615 550.58 426.397C550.26 426.178 549.776 426.327 549.5 426.731Z" fill="#EACA91"/>
<path d="M551.43 591.56C551.116 592.02 551.156 592.596 551.521 592.846C551.887 593.095 552.438 592.925 552.753 592.464C553.068 592.003 553.027 591.428 552.662 591.178C552.297 590.928 551.745 591.099 551.43 591.56Z" fill="#EACA91"/>
<path opacity="0.54" d="M460.38 711.883C460.137 712.238 460.168 712.681 460.45 712.874C460.731 713.066 461.156 712.934 461.398 712.58C461.641 712.225 461.61 711.781 461.328 711.589C461.047 711.397 460.622 711.528 460.38 711.883Z" fill="#EACA91"/>
<path d="M441.907 597.731C441.665 598.085 441.696 598.529 441.977 598.721C442.259 598.914 442.683 598.782 442.926 598.427C443.169 598.073 443.137 597.629 442.856 597.437C442.575 597.244 442.15 597.376 441.907 597.731Z" fill="#EACA91"/>
<path d="M592.639 187.934C592.286 188.45 592.332 189.095 592.741 189.375C593.15 189.655 593.768 189.464 594.121 188.948C594.474 188.432 594.428 187.787 594.019 187.507C593.61 187.227 592.992 187.418 592.639 187.934Z" fill="#EACA91"/>
<path opacity="0.54" d="M479.839 754.226C479.376 754.904 479.435 755.75 479.972 756.118C480.509 756.485 481.32 756.234 481.783 755.556C482.247 754.879 482.187 754.032 481.65 753.665C481.113 753.298 480.302 753.549 479.839 754.226Z" fill="#EACA91"/>
<path opacity="0.3" d="M507.639 724.934C507.286 725.45 507.332 726.095 507.741 726.375C508.15 726.655 508.768 726.464 509.121 725.948C509.474 725.432 509.428 724.787 509.019 724.507C508.61 724.227 507.992 724.418 507.639 724.934Z" fill="#EACA91"/>
<path opacity="0.54" d="M514.959 702.401C514.429 703.175 514.498 704.143 515.111 704.563C515.725 704.983 516.652 704.695 517.181 703.922C517.71 703.148 517.642 702.18 517.028 701.76C516.415 701.34 515.488 701.628 514.959 702.401Z" fill="#EACA91"/>
<path d="M575.207 618.297C574.678 619.071 574.746 620.039 575.36 620.459C575.974 620.878 576.9 620.591 577.43 619.817C577.959 619.043 577.891 618.076 577.277 617.656C576.663 617.236 575.737 617.523 575.207 618.297Z" fill="#EACA91"/>
<path d="M473.439 736.643C473.197 736.997 473.228 737.441 473.509 737.633C473.791 737.826 474.215 737.694 474.458 737.339C474.701 736.984 474.669 736.541 474.388 736.349C474.107 736.156 473.682 736.288 473.439 736.643Z" fill="#EACA91"/>
<path d="M447.782 580.497C447.54 580.852 447.571 581.296 447.852 581.488C448.134 581.68 448.558 581.549 448.801 581.194C449.044 580.839 449.012 580.396 448.731 580.203C448.45 580.011 448.025 580.143 447.782 580.497Z" fill="#EACA91"/>
<path opacity="0.3" d="M541.784 729.364C541.321 730.041 541.381 730.888 541.918 731.255C542.455 731.622 543.266 731.371 543.729 730.694C544.192 730.016 544.132 729.17 543.595 728.802C543.058 728.435 542.247 728.686 541.784 729.364Z" fill="#EACA91"/>
<path d="M514.873 738.108C514.564 738.559 514.604 739.124 514.962 739.368C515.32 739.613 515.861 739.446 516.17 738.994C516.478 738.543 516.438 737.978 516.08 737.733C515.722 737.489 515.182 737.656 514.873 738.108Z" fill="#EACA91"/>
<path opacity="0.3" d="M451.305 627.207C450.952 627.723 450.998 628.368 451.407 628.648C451.816 628.928 452.434 628.736 452.787 628.22C453.139 627.704 453.094 627.059 452.685 626.78C452.276 626.5 451.658 626.691 451.305 627.207Z" fill="#EACA91"/>
<path d="M318.959 1028.4C318.429 1029.18 318.498 1030.14 319.111 1030.56C319.725 1030.98 320.652 1030.7 321.181 1029.92C321.71 1029.15 321.642 1028.18 321.028 1027.76C320.415 1027.34 319.488 1027.63 318.959 1028.4Z" fill="#EACA91"/>
<path d="M316.959 1040.4C316.429 1041.18 316.498 1042.14 317.111 1042.56C317.725 1042.98 318.652 1042.7 319.181 1041.92C319.71 1041.15 319.642 1040.18 319.028 1039.76C318.415 1039.34 317.488 1039.63 316.959 1040.4Z" fill="#EACA91"/>
<path d="M304.439 1020.64C304.197 1021 304.228 1021.44 304.509 1021.63C304.791 1021.83 305.215 1021.69 305.458 1021.34C305.701 1020.98 305.669 1020.54 305.388 1020.35C305.107 1020.16 304.682 1020.29 304.439 1020.64Z" fill="#EACA91"/>
<path d="M185.439 931.642C185.197 931.997 185.228 932.441 185.509 932.633C185.791 932.825 186.215 932.694 186.458 932.339C186.701 931.984 186.669 931.541 186.388 931.348C186.107 931.156 185.682 931.288 185.439 931.642Z" fill="#EACA91"/>
<path d="M260.639 995.934C260.286 996.45 260.332 997.095 260.741 997.375C261.15 997.655 261.768 997.464 262.121 996.948C262.474 996.432 262.428 995.787 262.019 995.507C261.61 995.227 260.992 995.418 260.639 995.934Z" fill="#EACA91"/>
<path d="M306.839 1031.23C306.375 1031.9 306.435 1032.75 306.972 1033.12C307.509 1033.48 308.32 1033.23 308.783 1032.56C309.246 1031.88 309.187 1031.03 308.65 1030.67C308.113 1030.3 307.302 1030.55 306.839 1031.23Z" fill="#EACA91"/>
<path d="M203.559 926.818C203.25 927.269 203.29 927.834 203.648 928.078C204.006 928.323 204.547 928.156 204.856 927.704C205.164 927.253 205.124 926.688 204.766 926.443C204.408 926.199 203.868 926.366 203.559 926.818Z" fill="#EACA91"/>
<path d="M186.639 949.934C186.286 950.45 186.332 951.095 186.741 951.375C187.15 951.655 187.768 951.464 188.121 950.948C188.474 950.432 188.428 949.787 188.019 949.507C187.61 949.227 186.992 949.418 186.639 949.934Z" fill="#EACA91"/>
<path d="M565.015 685.308C564.772 685.662 564.803 686.106 565.084 686.298C565.366 686.491 565.79 686.359 566.033 686.004C566.276 685.65 566.244 685.206 565.963 685.014C565.682 684.821 565.257 684.953 565.015 685.308Z" fill="#EACA91"/>
<path d="M464.357 674.746C464.005 675.262 464.05 675.907 464.459 676.187C464.868 676.467 465.486 676.276 465.839 675.76C466.192 675.244 466.146 674.598 465.737 674.319C465.328 674.039 464.71 674.23 464.357 674.746Z" fill="#EACA91"/>
<path d="M413.345 785.49C413.018 785.966 413.115 786.6 413.561 786.907C414.007 787.213 414.634 787.076 414.961 786.601C415.288 786.125 415.191 785.491 414.744 785.184C414.298 784.878 413.671 785.015 413.345 785.49Z" fill="#EACA91"/>
<path d="M277.595 890.328C277.446 890.545 277.49 890.836 277.695 890.977C277.899 891.117 278.186 891.054 278.336 890.836C278.486 890.619 278.441 890.328 278.237 890.187C278.032 890.047 277.745 890.11 277.595 890.328Z" fill="#EACA91"/>
<path d="M436.364 535.906C436.214 536.124 436.259 536.415 436.463 536.555C436.668 536.696 436.955 536.633 437.105 536.415C437.254 536.197 437.21 535.907 437.005 535.766C436.801 535.625 436.514 535.688 436.364 535.906Z" fill="#EACA91"/>
<path d="M467.392 499.435C467.242 499.653 467.286 499.944 467.491 500.084C467.695 500.225 467.983 500.162 468.132 499.944C468.282 499.726 468.238 499.435 468.033 499.295C467.829 499.154 467.541 499.217 467.392 499.435Z" fill="#EACA91"/>
<path d="M354.271 809.395C354.122 809.613 354.166 809.903 354.371 810.044C354.575 810.184 354.862 810.122 355.012 809.904C355.162 809.686 355.117 809.395 354.913 809.255C354.708 809.114 354.421 809.177 354.271 809.395Z" fill="#EACA91"/>
<path d="M221.395 944.574C221.177 944.891 221.241 945.314 221.539 945.518C221.836 945.723 222.254 945.631 222.472 945.314C222.69 944.997 222.625 944.575 222.328 944.37C222.03 944.166 221.612 944.257 221.395 944.574Z" fill="#EACA91"/>
<path opacity="0.54" d="M459.528 601.026C459.242 601.442 459.327 601.997 459.717 602.265C460.108 602.533 460.656 602.414 460.942 601.997C461.228 601.581 461.143 601.027 460.753 600.758C460.362 600.49 459.814 600.61 459.528 601.026Z" fill="#EACA91"/>
<path d="M313.518 807.754C313.232 808.17 313.317 808.725 313.707 808.993C314.098 809.261 314.646 809.141 314.932 808.725C315.218 808.309 315.133 807.754 314.742 807.486C314.352 807.218 313.804 807.338 313.518 807.754Z" fill="#EACA91"/>
<path d="M238.345 956.502C238.155 956.78 238.211 957.15 238.472 957.329C238.732 957.507 239.098 957.428 239.288 957.15C239.479 956.873 239.422 956.503 239.162 956.324C238.901 956.145 238.536 956.225 238.345 956.502Z" fill="#EACA91"/>
<path d="M426.726 799.158C426.508 799.475 426.572 799.897 426.87 800.102C427.168 800.306 427.585 800.215 427.803 799.898C428.021 799.581 427.956 799.158 427.659 798.954C427.361 798.749 426.943 798.841 426.726 799.158Z" fill="#EACA91"/>
<path d="M488.713 523.048C488.386 523.524 488.483 524.158 488.929 524.464C489.376 524.771 490.002 524.634 490.329 524.158C490.656 523.683 490.559 523.049 490.112 522.742C489.666 522.435 489.039 522.572 488.713 523.048Z" fill="#EACA91"/>
<path d="M448.902 639.5C448.752 639.718 448.796 640.008 449.001 640.149C449.205 640.289 449.493 640.227 449.642 640.009C449.792 639.791 449.748 639.5 449.543 639.36C449.339 639.219 449.051 639.282 448.902 639.5Z" fill="#EACA91"/>
<path d="M601.271 366.395C601.122 366.613 601.166 366.903 601.371 367.044C601.575 367.184 601.862 367.122 602.012 366.904C602.162 366.686 602.117 366.395 601.913 366.255C601.708 366.114 601.421 366.177 601.271 366.395Z" fill="#EACA91"/>
<path d="M437.271 783.395C437.122 783.613 437.166 783.903 437.371 784.044C437.575 784.184 437.862 784.122 438.012 783.904C438.162 783.686 438.117 783.395 437.913 783.255C437.708 783.114 437.421 783.177 437.271 783.395Z" fill="#EACA91"/>
<path d="M485.271 642.395C485.122 642.613 485.166 642.903 485.371 643.044C485.575 643.184 485.862 643.122 486.012 642.904C486.162 642.686 486.117 642.395 485.913 642.255C485.708 642.114 485.421 642.177 485.271 642.395Z" fill="#EACA91"/>
<path d="M299.832 876.202C299.614 876.519 299.679 876.942 299.976 877.146C300.274 877.351 300.692 877.259 300.909 876.942C301.127 876.625 301.063 876.203 300.765 875.998C300.468 875.794 300.05 875.885 299.832 876.202Z" fill="#EACA91"/>
<path d="M369.518 800.754C369.232 801.17 369.317 801.724 369.707 801.993C370.098 802.261 370.646 802.141 370.932 801.725C371.218 801.309 371.133 800.754 370.743 800.486C370.352 800.218 369.804 800.337 369.518 800.754Z" fill="#EACA91"/>
<path d="M285.518 817.754C285.232 818.17 285.317 818.725 285.707 818.993C286.098 819.261 286.646 819.141 286.932 818.725C287.218 818.309 287.133 817.754 286.743 817.486C286.352 817.218 285.804 817.338 285.518 817.754Z" fill="#EACA91"/>
<path d="M365.107 784.157C364.916 784.435 364.973 784.804 365.233 784.983C365.494 785.162 365.859 785.082 366.05 784.805C366.24 784.527 366.184 784.158 365.923 783.979C365.663 783.8 365.298 783.88 365.107 784.157Z" fill="#EACA91"/>
<path d="M431.395 757.574C431.177 757.891 431.241 758.314 431.539 758.518C431.836 758.723 432.254 758.631 432.472 758.314C432.69 757.997 432.625 757.575 432.328 757.37C432.03 757.166 431.612 757.257 431.395 757.574Z" fill="#EACA91"/>
<path d="M272.592 988.861C272.265 989.337 272.362 989.971 272.808 990.277C273.254 990.584 273.881 990.447 274.208 989.971C274.535 989.496 274.438 988.862 273.991 988.555C273.545 988.249 272.918 988.385 272.592 988.861Z" fill="#EACA91"/>
<path d="M263.271 866.395C263.122 866.613 263.166 866.903 263.371 867.044C263.575 867.184 263.862 867.122 264.012 866.904C264.162 866.686 264.117 866.395 263.913 866.255C263.708 866.114 263.421 866.177 263.271 866.395Z" fill="#EACA91"/>
<path d="M342.271 815.395C342.122 815.613 342.166 815.903 342.371 816.044C342.575 816.185 342.862 816.122 343.012 815.904C343.162 815.686 343.117 815.395 342.913 815.255C342.708 815.114 342.421 815.177 342.271 815.395Z" fill="#EACA91"/>
<path d="M381.658 824.376C381.509 824.594 381.553 824.884 381.758 825.025C381.962 825.165 382.25 825.103 382.399 824.885C382.549 824.667 382.505 824.376 382.3 824.235C382.095 824.095 381.808 824.158 381.658 824.376Z" fill="#EACA91"/>
<path d="M240.271 900.395C240.122 900.613 240.166 900.903 240.371 901.044C240.575 901.184 240.862 901.122 241.012 900.904C241.162 900.686 241.117 900.395 240.913 900.255C240.708 900.114 240.421 900.177 240.271 900.395Z" fill="#EACA91"/>
<path d="M396.271 817.395C396.121 817.613 396.166 817.903 396.37 818.044C396.575 818.184 396.862 818.122 397.012 817.904C397.162 817.686 397.117 817.395 396.913 817.254C396.708 817.114 396.421 817.177 396.271 817.395Z" fill="#EACA91"/>
<path d="M259.395 895.574C259.177 895.891 259.241 896.314 259.539 896.518C259.836 896.723 260.254 896.631 260.472 896.314C260.69 895.997 260.625 895.575 260.328 895.37C260.03 895.166 259.612 895.257 259.395 895.574Z" fill="#EACA91"/>
<path d="M276.518 849.754C276.232 850.17 276.317 850.724 276.707 850.993C277.098 851.261 277.646 851.141 277.932 850.725C278.218 850.309 278.133 849.754 277.743 849.486C277.352 849.218 276.804 849.337 276.518 849.754Z" fill="#EACA91"/>
<path d="M289.518 1065.75C289.232 1066.17 289.317 1066.72 289.707 1066.99C290.098 1067.26 290.646 1067.14 290.932 1066.73C291.218 1066.31 291.133 1065.75 290.743 1065.49C290.352 1065.22 289.804 1065.34 289.518 1065.75Z" fill="#EACA91"/>
<path d="M248.518 852.754C248.232 853.17 248.317 853.725 248.707 853.993C249.098 854.261 249.646 854.141 249.932 853.725C250.218 853.309 250.133 852.754 249.743 852.486C249.352 852.218 248.804 852.338 248.518 852.754Z" fill="#EACA91"/>
<path d="M400.576 782.28C400.385 782.557 400.442 782.927 400.702 783.106C400.962 783.285 401.328 783.205 401.519 782.928C401.709 782.65 401.653 782.28 401.392 782.101C401.132 781.922 400.766 782.002 400.576 782.28Z" fill="#EACA91"/>
<path d="M363.031 820.279C362.813 820.596 362.878 821.019 363.175 821.223C363.473 821.428 363.891 821.337 364.108 821.02C364.326 820.703 364.262 820.28 363.964 820.075C363.667 819.871 363.249 819.962 363.031 820.279Z" fill="#EACA91"/>
<path d="M326.592 1062.86C326.265 1063.34 326.362 1063.97 326.808 1064.28C327.254 1064.58 327.881 1064.45 328.208 1063.97C328.535 1063.5 328.438 1062.86 327.991 1062.56C327.545 1062.25 326.918 1062.39 326.592 1062.86Z" fill="#EACA91"/>
<path d="M207.271 955.395C207.122 955.613 207.166 955.903 207.371 956.044C207.575 956.184 207.862 956.122 208.012 955.904C208.162 955.686 208.117 955.395 207.913 955.255C207.708 955.114 207.421 955.177 207.271 955.395Z" fill="#EACA91"/>
<path d="M221.271 936.395C221.122 936.613 221.166 936.903 221.371 937.044C221.575 937.184 221.862 937.122 222.012 936.904C222.162 936.686 222.117 936.395 221.913 936.255C221.708 936.114 221.421 936.177 221.271 936.395Z" fill="#EACA91"/>
<path d="M223.271 903.395C223.122 903.613 223.166 903.903 223.371 904.044C223.575 904.184 223.862 904.122 224.012 903.904C224.162 903.686 224.117 903.395 223.913 903.255C223.708 903.114 223.421 903.177 223.271 903.395Z" fill="#EACA91"/>
<path d="M225.394 961.574C225.177 961.891 225.241 962.314 225.539 962.518C225.836 962.723 226.254 962.631 226.472 962.314C226.69 961.997 226.625 961.575 226.327 961.37C226.03 961.166 225.612 961.257 225.394 961.574Z" fill="#EACA91"/>
<path d="M211.518 924.754C211.232 925.17 211.317 925.725 211.707 925.993C212.098 926.261 212.646 926.141 212.932 925.725C213.218 925.309 213.133 924.754 212.743 924.486C212.352 924.218 211.804 924.338 211.518 924.754Z" fill="#EACA91"/>
<path d="M254.518 936.754C254.232 937.17 254.317 937.725 254.707 937.993C255.098 938.261 255.646 938.141 255.932 937.725C256.218 937.309 256.133 936.754 255.743 936.486C255.352 936.218 254.804 936.338 254.518 936.754Z" fill="#EACA91"/>
<path d="M223.345 972.502C223.154 972.78 223.211 973.15 223.471 973.328C223.732 973.507 224.097 973.427 224.288 973.15C224.478 972.873 224.422 972.503 224.162 972.324C223.901 972.145 223.536 972.225 223.345 972.502Z" fill="#EACA91"/>
<path d="M233.395 934.574C233.177 934.891 233.241 935.314 233.539 935.518C233.836 935.723 234.254 935.632 234.472 935.315C234.69 934.997 234.625 934.575 234.328 934.37C234.03 934.166 233.612 934.257 233.395 934.574Z" fill="#EACA91"/>
<path d="M335.592 839.861C335.265 840.337 335.362 840.971 335.808 841.277C336.255 841.584 336.881 841.447 337.208 840.972C337.535 840.496 337.438 839.862 336.991 839.555C336.545 839.249 335.918 839.386 335.592 839.861Z" fill="#EACA91"/>
<path d="M355.271 808.395C355.122 808.613 355.166 808.903 355.371 809.044C355.575 809.184 355.862 809.122 356.012 808.904C356.162 808.686 356.117 808.395 355.913 808.255C355.708 808.114 355.421 808.177 355.271 808.395Z" fill="#EACA91"/>
<path d="M351.271 828.395C351.122 828.613 351.166 828.903 351.371 829.044C351.575 829.184 351.862 829.122 352.012 828.904C352.162 828.686 352.117 828.395 351.913 828.255C351.708 828.114 351.421 828.177 351.271 828.395Z" fill="#EACA91"/>
<path d="M451.271 717.395C451.122 717.613 451.166 717.903 451.371 718.044C451.575 718.184 451.862 718.122 452.012 717.904C452.162 717.686 452.117 717.395 451.913 717.255C451.708 717.114 451.421 717.177 451.271 717.395Z" fill="#EACA91"/>
<path d="M239.395 908.574C239.177 908.891 239.241 909.314 239.539 909.518C239.836 909.723 240.254 909.632 240.472 909.315C240.69 908.997 240.625 908.575 240.328 908.37C240.03 908.166 239.612 908.257 239.395 908.574Z" fill="#EACA91"/>
<path d="M334.518 1068.75C334.232 1069.17 334.317 1069.72 334.707 1069.99C335.098 1070.26 335.646 1070.14 335.932 1069.73C336.218 1069.31 336.133 1068.75 335.742 1068.49C335.352 1068.22 334.804 1068.34 334.518 1068.75Z" fill="#EACA91"/>
<path d="M310.518 1040.75C310.232 1041.17 310.317 1041.72 310.707 1041.99C311.098 1042.26 311.646 1042.14 311.932 1041.73C312.218 1041.31 312.133 1040.75 311.742 1040.49C311.352 1040.22 310.804 1040.34 310.518 1040.75Z" fill="#EACA91"/>
<path d="M206.518 900.754C206.232 901.17 206.317 901.725 206.707 901.993C207.098 902.261 207.646 902.141 207.932 901.725C208.218 901.309 208.133 900.754 207.743 900.486C207.352 900.218 206.804 900.338 206.518 900.754Z" fill="#EACA91"/>
<path d="M314.395 829.574C314.177 829.891 314.241 830.314 314.539 830.518C314.836 830.723 315.254 830.631 315.472 830.314C315.69 829.997 315.625 829.575 315.328 829.37C315.03 829.166 314.612 829.257 314.395 829.574Z" fill="#EACA91"/>
<path d="M501.648 649.82C501.498 650.038 501.542 650.328 501.747 650.469C501.951 650.61 502.239 650.547 502.388 650.329C502.538 650.111 502.494 649.82 502.289 649.68C502.085 649.539 501.797 649.602 501.648 649.82Z" fill="#EACA91"/>
<path d="M479.429 577.848C479.212 578.165 479.276 578.587 479.574 578.792C479.871 578.996 480.289 578.905 480.507 578.588C480.725 578.271 480.66 577.848 480.363 577.644C480.065 577.439 479.647 577.531 479.429 577.848Z" fill="#EACA91"/>
<path d="M505.969 687.143C505.778 687.42 505.835 687.79 506.095 687.969C506.355 688.148 506.721 688.068 506.911 687.791C507.102 687.513 507.045 687.143 506.785 686.964C506.525 686.786 506.159 686.865 505.969 687.143Z" fill="#EACA91"/>
<path opacity="0.3" d="M436.395 695.574C436.177 695.891 436.241 696.314 436.539 696.518C436.836 696.723 437.254 696.631 437.472 696.314C437.69 695.997 437.625 695.575 437.328 695.37C437.03 695.166 436.612 695.257 436.395 695.574Z" fill="#EACA91"/>
<path d="M438.006 702.491C437.872 702.686 437.912 702.946 438.095 703.071C438.278 703.197 438.535 703.141 438.668 702.946C438.802 702.751 438.763 702.491 438.58 702.365C438.397 702.239 438.14 702.296 438.006 702.491Z" fill="#EACA91"/>
<path d="M466.243 674.353C466.109 674.548 466.149 674.808 466.332 674.934C466.515 675.06 466.771 675.003 466.905 674.808C467.039 674.613 467 674.353 466.817 674.228C466.634 674.102 466.377 674.158 466.243 674.353Z" fill="#EACA91"/>
<path opacity="0.54" d="M409.145 646.52C408.95 646.803 409.008 647.18 409.274 647.363C409.539 647.545 409.912 647.464 410.106 647.181C410.301 646.898 410.243 646.52 409.978 646.338C409.712 646.156 409.339 646.237 409.145 646.52Z" fill="#EACA91"/>
<path opacity="0.54" d="M436.969 660.966C436.713 661.338 436.789 661.834 437.138 662.073C437.487 662.313 437.977 662.206 438.232 661.834C438.488 661.463 438.412 660.967 438.063 660.727C437.714 660.488 437.224 660.595 436.969 660.966Z" fill="#EACA91"/>
<path d="M469.43 656.636C469.259 656.884 469.31 657.215 469.543 657.375C469.776 657.535 470.103 657.464 470.273 657.215C470.443 656.967 470.393 656.637 470.16 656.477C469.927 656.317 469.6 656.388 469.43 656.636Z" fill="#EACA91"/>
<path d="M479.477 695.837C479.283 696.12 479.341 696.497 479.606 696.679C479.872 696.862 480.245 696.78 480.439 696.497C480.633 696.214 480.576 695.837 480.31 695.655C480.045 695.472 479.672 695.554 479.477 695.837Z" fill="#EACA91"/>
<path opacity="0.54" d="M422.625 769.293C422.475 769.511 422.52 769.801 422.724 769.942C422.929 770.083 423.216 770.02 423.366 769.802C423.516 769.584 423.471 769.293 423.267 769.153C423.062 769.012 422.775 769.075 422.625 769.293Z" fill="#EACA91"/>
<path d="M506.271 680.395C506.122 680.613 506.166 680.903 506.371 681.044C506.575 681.184 506.862 681.122 507.012 680.904C507.162 680.686 507.117 680.395 506.913 680.255C506.708 680.114 506.421 680.177 506.271 680.395Z" fill="#EACA91"/>
<path d="M498.722 553.701C498.505 554.018 498.569 554.441 498.867 554.646C499.164 554.85 499.582 554.759 499.8 554.442C500.018 554.125 499.953 553.702 499.655 553.497C499.358 553.293 498.94 553.384 498.722 553.701Z" fill="#EACA91"/>
<path d="M462.349 495.107C462.131 495.424 462.196 495.846 462.493 496.051C462.791 496.255 463.208 496.164 463.426 495.847C463.644 495.53 463.579 495.107 463.282 494.903C462.984 494.698 462.566 494.789 462.349 495.107Z" fill="#EACA91"/>
<path opacity="0.54" d="M336.518 792.754C336.232 793.17 336.317 793.725 336.707 793.993C337.098 794.261 337.646 794.141 337.932 793.725C338.218 793.309 338.133 792.754 337.742 792.486C337.352 792.218 336.804 792.338 336.518 792.754Z" fill="#EACA91"/>
<path opacity="0.3" d="M378.465 781.921C378.247 782.238 378.312 782.66 378.609 782.865C378.907 783.069 379.324 782.978 379.542 782.661C379.76 782.344 379.695 781.921 379.398 781.717C379.1 781.512 378.683 781.604 378.465 781.921Z" fill="#EACA91"/>
<path opacity="0.54" d="M449.763 770.157C449.436 770.633 449.533 771.267 449.98 771.573C450.426 771.88 451.053 771.743 451.379 771.268C451.706 770.792 451.609 770.158 451.163 769.851C450.717 769.545 450.09 769.682 449.763 770.157Z" fill="#EACA91"/>
<path d="M497.306 714.54C496.98 715.016 497.076 715.65 497.523 715.957C497.969 716.263 498.596 716.126 498.922 715.651C499.249 715.175 499.152 714.541 498.706 714.235C498.26 713.928 497.633 714.065 497.306 714.54Z" fill="#EACA91"/>
<path d="M447.804 798.783C447.655 799.001 447.699 799.291 447.904 799.432C448.108 799.573 448.395 799.51 448.545 799.292C448.695 799.074 448.65 798.783 448.446 798.643C448.241 798.502 447.954 798.565 447.804 798.783Z" fill="#EACA91"/>
<path d="M492.271 707.395C492.122 707.613 492.166 707.903 492.371 708.044C492.575 708.184 492.862 708.122 493.012 707.904C493.162 707.686 493.117 707.395 492.913 707.255C492.708 707.114 492.421 707.177 492.271 707.395Z" fill="#EACA91"/>
<path opacity="0.3" d="M479.867 785.084C479.582 785.5 479.666 786.055 480.057 786.323C480.447 786.591 480.996 786.472 481.282 786.056C481.568 785.639 481.483 785.085 481.092 784.816C480.702 784.548 480.153 784.668 479.867 785.084Z" fill="#EACA91"/>
<path d="M461.689 789.324C461.498 789.602 461.555 789.971 461.815 790.15C462.075 790.329 462.441 790.249 462.632 789.972C462.822 789.694 462.766 789.325 462.505 789.146C462.245 788.967 461.879 789.047 461.689 789.324Z" fill="#EACA91"/>
<path opacity="0.3" d="M482.395 665.574C482.177 665.891 482.241 666.314 482.539 666.518C482.836 666.723 483.254 666.631 483.472 666.314C483.69 665.997 483.625 665.575 483.328 665.37C483.03 665.166 482.612 665.257 482.395 665.574Z" fill="#EACA91"/>
<path d="M321.592 1049.86C321.265 1050.34 321.362 1050.97 321.808 1051.28C322.254 1051.58 322.881 1051.45 323.208 1050.97C323.535 1050.5 323.438 1049.86 322.991 1049.56C322.545 1049.25 321.918 1049.39 321.592 1049.86Z" fill="#EACA91"/>
<path d="M248.592 863.861C248.265 864.337 248.362 864.971 248.808 865.277C249.255 865.584 249.881 865.447 250.208 864.972C250.535 864.496 250.438 863.862 249.991 863.555C249.545 863.249 248.918 863.386 248.592 863.861Z" fill="#EACA91"/>
<path d="M175.271 885.395C175.122 885.613 175.166 885.903 175.371 886.044C175.575 886.184 175.862 886.122 176.012 885.904C176.162 885.686 176.117 885.395 175.913 885.255C175.708 885.114 175.421 885.177 175.271 885.395Z" fill="#EACA91"/>
<path d="M294.271 868.395C294.122 868.613 294.166 868.903 294.371 869.044C294.575 869.184 294.862 869.122 295.012 868.904C295.162 868.686 295.117 868.395 294.913 868.255C294.708 868.114 294.421 868.177 294.271 868.395Z" fill="#EACA91"/>
<path d="M250.395 968.574C250.177 968.891 250.241 969.314 250.539 969.518C250.836 969.723 251.254 969.631 251.472 969.314C251.69 968.997 251.625 968.575 251.328 968.37C251.03 968.166 250.612 968.257 250.395 968.574Z" fill="#EACA91"/>
<path d="M290.518 1016.75C290.232 1017.17 290.317 1017.72 290.707 1017.99C291.098 1018.26 291.646 1018.14 291.932 1017.73C292.218 1017.31 292.133 1016.75 291.743 1016.49C291.352 1016.22 290.804 1016.34 290.518 1016.75Z" fill="#EACA91"/>
<path d="M240.345 950.502C240.155 950.78 240.211 951.15 240.472 951.329C240.732 951.507 241.098 951.428 241.288 951.15C241.479 950.873 241.422 950.503 241.162 950.324C240.901 950.145 240.536 950.225 240.345 950.502Z" fill="#EACA91"/>
<path d="M226.395 930.574C226.177 930.891 226.241 931.314 226.539 931.518C226.836 931.723 227.254 931.631 227.472 931.314C227.69 930.997 227.625 930.575 227.328 930.37C227.03 930.166 226.612 930.257 226.395 930.574Z" fill="#EACA91"/>
<path d="M493.688 757.641C493.538 757.859 493.582 758.15 493.787 758.291C493.991 758.431 494.279 758.368 494.428 758.15C494.578 757.932 494.534 757.642 494.329 757.501C494.125 757.361 493.837 757.423 493.688 757.641Z" fill="#EACA91"/>
<path d="M548.271 373.395C548.122 373.613 548.166 373.903 548.371 374.044C548.575 374.184 548.862 374.122 549.012 373.904C549.162 373.686 549.117 373.395 548.913 373.255C548.708 373.114 548.421 373.177 548.271 373.395Z" fill="#EACA91"/>
<path d="M495.395 743.574C495.177 743.891 495.241 744.314 495.539 744.518C495.836 744.723 496.254 744.631 496.472 744.314C496.69 743.997 496.625 743.575 496.328 743.37C496.03 743.166 495.612 743.257 495.395 743.574Z" fill="#EACA91"/>
<path d="M497.632 469.863L498.057 472.947L500.675 474.632L497.591 475.057L495.906 477.675L495.481 474.591L492.863 472.906L495.947 472.481L497.632 469.863Z" fill="#ECCF9C"/>
<path d="M663.216 303.759L663.641 306.843L666.258 308.528L663.174 308.953L661.489 311.57L661.065 308.486L658.447 306.801L661.531 306.376L663.216 303.759Z" fill="#ECCF9C"/>
<path d="M696.663 64.3359L697.088 67.4199L699.706 69.1048L696.622 69.5297L694.937 72.1475L694.512 69.0635L691.894 67.3786L694.978 66.9537L696.663 64.3359Z" fill="#ECCF9C"/>
<path d="M498.715 65.6565L499.14 68.7404L501.758 70.4253L498.674 70.8503L496.989 73.468L496.564 70.384L493.947 68.6992L497.031 68.2742L498.715 65.6565Z" fill="#ECCF9C"/>
<path d="M392.413 196.809L393.104 201.821L397.357 204.559L392.346 205.249L389.608 209.503L388.918 204.492L384.664 201.754L389.675 201.063L392.413 196.809Z" fill="#ECCF9C"/>
<path opacity="0.4" d="M442.453 137.202L442.825 139.901L445.115 141.375L442.417 141.747L440.943 144.037L440.571 141.339L438.28 139.864L440.979 139.493L442.453 137.202Z" fill="#ECCF9C"/>
<path d="M641.152 409.402L641.842 414.414L646.096 417.152L641.085 417.842L638.347 422.096L637.656 417.085L633.402 414.347L638.414 413.656L641.152 409.402Z" fill="#ECCF9C"/>
<path d="M508.152 612.402L508.842 617.414L513.096 620.152L508.085 620.842L505.347 625.096L504.656 620.085L500.402 617.347L505.414 616.656L508.152 612.402Z" fill="#ECCF9C"/>
<path d="M216.738 887.186L217.322 891.423L220.918 893.738L216.681 894.322L214.366 897.918L213.782 893.681L210.186 891.366L214.423 890.782L216.738 887.186Z" fill="#ECCF9C"/>
<path d="M572.386 494.657L572.865 498.127L575.809 500.022L572.34 500.5L570.445 503.445L569.966 499.976L567.021 498.08L570.491 497.602L572.386 494.657Z" fill="#ECCF9C"/>
<path d="M542.533 506.886L542.207 508.41L543.151 509.649L541.627 509.323L540.387 510.267L540.714 508.743L539.77 507.503L541.293 507.83L542.533 506.886Z" fill="#ECCF9C"/>
<path d="M670.837 439.073L670.51 440.597L671.454 441.837L669.931 441.51L668.691 442.454L669.017 440.93L668.073 439.691L669.597 440.017L670.837 439.073Z" fill="#ECCF9C"/>
<path d="M759.782 360.769L759.455 362.293L760.399 363.532L758.875 363.206L757.636 364.15L757.962 362.626L757.018 361.386L758.542 361.713L759.782 360.769Z" fill="#ECCF9C"/>
<path d="M666.407 327.593L666.08 329.117L667.025 330.357L665.501 330.03L664.261 330.974L664.587 329.451L663.643 328.211L665.167 328.537L666.407 327.593Z" fill="#ECCF9C"/>
<path d="M579.431 427.732L579.145 429.065L579.971 430.15L578.638 429.864L577.553 430.69L577.839 429.357L577.013 428.272L578.346 428.558L579.431 427.732Z" fill="#ECCF9C"/>
<path opacity="0.4" d="M627.716 351.655L627.43 352.988L628.256 354.073L626.923 353.787L625.838 354.613L626.124 353.28L625.298 352.195L626.631 352.481L627.716 351.655Z" fill="#ECCF9C"/>
<path d="M629.235 473.744L628.704 476.22L630.238 478.234L627.762 477.704L625.747 479.238L626.278 476.762L624.744 474.747L627.22 475.278L629.235 473.744Z" fill="#ECCF9C"/>
<path d="M481.529 557.696L480.998 560.172L482.532 562.187L480.056 561.656L478.042 563.19L478.572 560.714L477.038 558.7L479.514 559.23L481.529 557.696Z" fill="#ECCF9C"/>
<path d="M533.909 663.869L533.215 667.107L535.222 669.741L531.984 669.047L529.349 671.054L530.043 667.816L528.037 665.181L531.275 665.875L533.909 663.869Z" fill="#ECCF9C"/>
<path d="M538.316 550.207L537.949 551.921L539.011 553.316L537.297 552.949L535.902 554.011L536.27 552.297L535.207 550.902L536.922 551.269L538.316 550.207Z" fill="#ECCF9C"/>
</svg>
