<svg width="80" height="84" viewBox="0 0 80 84" fill="none" xmlns="http://www.w3.org/2000/svg">
<path d="M13.3186 48.7461H16.6483V53.9689H21.9057V48.7461H25.323V61.629H21.9057V56.6673H16.6483V61.629H13.231V48.7461H13.3186Z" fill="white"/>
<path d="M37.3272 61.629L36.451 59.3658H30.8431L29.9668 61.629H26.4619L32.0698 48.7461H35.5747L41.0074 61.629H37.3272ZM31.8946 56.8414H35.4871L33.7346 52.228L31.8946 56.8414Z" fill="white"/>
<path d="M49.6822 51.8798C49.0689 51.5316 48.5431 51.4446 47.9298 51.4446C47.3164 51.4446 46.7031 51.6187 46.1773 51.9668C45.6516 52.315 45.2135 52.7503 44.9506 53.2725C44.6001 53.8819 44.5125 54.4912 44.5125 55.1876C44.5125 55.8839 44.6877 56.4933 44.9506 57.1026C45.3011 57.7119 45.6516 58.1472 46.1773 58.4083C46.7031 58.7565 47.3164 58.9306 47.9298 58.9306C48.4555 58.9306 48.9813 58.7565 49.5946 58.4953C50.208 58.2342 50.7337 57.886 51.1718 57.3637L53.1872 59.4529C52.4862 60.1492 51.61 60.7586 50.6461 61.1938C49.6822 61.629 48.7184 61.8902 47.7545 61.8902C46.4402 61.8902 45.3011 61.629 44.2496 61.0197C43.1981 60.4104 42.4095 59.6269 41.7962 58.5824C41.1828 57.5378 40.9199 56.4062 40.9199 55.1876C40.9199 53.9689 41.1828 52.8373 41.7962 51.7927C42.4095 50.7482 43.1981 49.9648 44.2496 49.4425C45.3011 48.9202 46.5278 48.572 47.7545 48.572C48.7184 48.572 49.6822 48.7461 50.6461 49.1813C51.61 49.6166 52.3986 50.1389 53.0119 50.8352L51.0842 53.1855C50.7337 52.6632 50.208 52.228 49.6822 51.8798Z" fill="white"/>
<path d="M67.1192 61.629H63.0885L59.5836 56.6673L57.9188 58.4953V61.716H54.5015V48.7461H57.9188V54.3171L62.8257 48.7461H66.7687L61.9494 54.0559L67.1192 61.629Z" fill="white"/>
<path d="M0 70.856H3.41731V83.7388H0V70.856Z" fill="white"/>
<path d="M5.87061 70.856H9.28791V80.8663H14.8082V83.7388H5.87061V70.856Z" fill="white"/>
<path d="M17.3496 70.856H20.7669V80.8663H26.2872V83.7388H17.3496V70.856Z" fill="white"/>
<path d="M28.127 70.856H31.5443V83.7388H28.127V70.856Z" fill="white"/>
<path d="M43.286 70.856H46.4404V83.7388H43.4612L37.5905 75.9917V83.7388H34.436V70.856H37.4152L43.286 78.6031V70.856Z" fill="white"/>
<path d="M59.058 71.5523C60.1095 72.1617 60.9857 72.9451 61.5991 73.9026C62.2124 74.9472 62.4753 76.0788 62.4753 77.2974C62.4753 78.6031 62.2124 79.7347 61.5991 80.6922C60.9857 81.7368 60.1095 82.5202 59.058 83.1296C58.0065 83.7389 56.7798 84 55.4654 84C54.1511 84 52.9244 83.7389 51.8729 83.1296C50.8214 82.5202 49.9452 81.7368 49.3318 80.6922C48.7184 79.6477 48.4556 78.5161 48.4556 77.2974C48.4556 76.0788 48.7184 74.9472 49.3318 73.9026C49.9452 72.858 50.8214 72.0746 51.8729 71.5523C52.9244 71.0301 54.1511 70.6819 55.4654 70.6819C56.7798 70.6819 58.0065 70.943 59.058 71.5523ZM53.713 73.9897C53.1872 74.3378 52.7491 74.7731 52.3986 75.3824C52.0481 75.9917 51.9605 76.6011 51.9605 77.2974C51.9605 77.9938 52.1357 78.6902 52.4862 79.2125C52.8367 79.8218 53.2748 80.257 53.8006 80.6052C54.3263 80.9534 54.9397 81.1275 55.553 81.1275C56.1664 81.1275 56.7798 80.9534 57.3055 80.6052C57.8313 80.257 58.2694 79.8218 58.5322 79.2125C58.8827 78.6031 58.9704 77.9938 58.9704 77.2974C58.9704 76.6011 58.7951 75.9917 58.5322 75.3824C58.1817 74.7731 57.8313 74.3378 57.3055 73.9897C56.7798 73.6415 56.1664 73.4674 55.553 73.4674C54.9397 73.4674 54.3263 73.6415 53.713 73.9897Z" fill="white"/>
<path d="M64.0527 70.856H67.47V83.7388H64.0527V70.856Z" fill="white"/>
<path d="M76.495 73.7285C75.7064 73.4674 75.0931 73.3803 74.4797 73.3803C74.0416 73.3803 73.6911 73.4674 73.5158 73.6415C73.253 73.8156 73.1653 73.9897 73.1653 74.3378C73.1653 74.599 73.253 74.8601 73.5158 75.0342C73.6911 75.2083 73.954 75.3824 74.3044 75.4694C74.6549 75.5565 75.0931 75.7306 75.7064 75.9047C76.5826 76.1658 77.3713 76.427 77.897 76.6881C78.5104 76.9492 78.9485 77.3845 79.3866 77.9068C79.8247 78.429 80 79.1254 80 79.9959C80 80.8663 79.7371 81.5627 79.299 82.172C78.8608 82.7814 78.2475 83.2166 77.4589 83.5648C76.6703 83.913 75.794 84 74.8302 84C73.7787 84 72.7272 83.8259 71.5881 83.4777C70.449 83.1296 69.5728 82.6073 68.7842 81.9109L70.0985 79.2995C70.7119 79.9088 71.5005 80.3441 72.4644 80.6922C73.4282 81.0404 74.1292 81.2145 74.8302 81.2145C75.3559 81.2145 75.7064 81.1275 76.0569 80.9534C76.3198 80.7793 76.495 80.5182 76.495 80.17C76.495 79.9088 76.4074 79.6477 76.1445 79.4736C75.9693 79.2995 75.6188 79.1254 75.3559 79.0384C75.0931 78.9513 74.5673 78.7772 73.954 78.6031C73.0777 78.342 72.2891 78.0808 71.7634 77.8197C71.15 77.5586 70.7119 77.2104 70.2738 76.6881C69.8357 76.1658 69.6604 75.4695 69.6604 74.686C69.6604 73.9026 69.8357 73.2062 70.2738 72.5969C70.7119 71.9876 71.3253 71.5523 72.1139 71.2042C72.9025 70.856 73.7787 70.6819 74.8302 70.6819C75.794 70.6819 76.6703 70.856 77.6341 71.1171C78.5104 71.3783 79.3866 71.7264 80 72.1617L78.6856 74.8601C78.0722 74.3378 77.2836 73.9897 76.495 73.7285Z" fill="white"/>
<path d="M34.6113 15.1461H45.5642V8.26943H52.7493V0H32.1579L27.251 8.26943H34.6113V15.1461Z" fill="#F37964"/>
<path d="M45.5642 22.458H34.6113V29.2477H27.251V37.6041H48.1053L52.7493 29.2477H45.5642V22.458Z" fill="#F37964"/>
</svg>
