<svg width="149" height="49" viewBox="0 0 149 49" fill="none" xmlns="http://www.w3.org/2000/svg">
<path d="M44.6589 0.959831H49.0764V7.86631H55.9089V0.959831H60.3264V17.8923H55.9089V11.3983H49.0764V17.8923H44.6589V0.959831Z" fill="white"/>
<path d="M76.0616 17.8923L74.8991 14.9003H67.5791L66.3941 17.8923H61.8566L69.1241 0.959831H73.6691L80.7716 17.8923H76.0616ZM68.9141 11.5108H73.6016L71.2841 5.47417L68.9141 11.5108Z" fill="white"/>
<path d="M92.1265 5.05422C91.369 4.64178 90.619 4.43931 89.884 4.43931C89.029 4.43931 88.2565 4.64928 87.5515 5.07672C86.854 5.50415 86.299 6.08907 85.894 6.83896C85.489 7.58885 85.2865 8.42122 85.2865 9.33609C85.2865 10.251 85.489 11.0833 85.894 11.8332C86.299 12.5831 86.8465 13.168 87.5515 13.5955C88.249 14.0229 89.029 14.2329 89.884 14.2329C90.574 14.2329 91.3015 14.0529 92.059 13.7004C92.8165 13.348 93.4915 12.8606 94.0915 12.2532L96.679 15.0277C95.764 15.9951 94.669 16.76 93.409 17.3374C92.1415 17.9073 90.8965 18.1923 89.6515 18.1923C87.979 18.1923 86.464 17.8098 85.1065 17.03C83.7565 16.2576 82.6915 15.2002 81.919 13.8654C81.1465 12.5306 80.7565 11.0308 80.7565 9.37358C80.7565 7.73133 81.154 6.24655 81.9415 4.92674C82.729 3.60694 83.8165 2.56459 85.189 1.8147C86.569 1.05731 88.1065 0.682373 89.8165 0.682373C91.069 0.682373 92.314 0.944831 93.5365 1.46975C94.759 1.99468 95.8015 2.70707 96.649 3.60694L94.0915 6.69648C93.5365 6.01408 92.884 5.46666 92.1265 5.05422Z" fill="white"/>
<path d="M114.829 17.8923H109.541L105.094 11.3233L102.971 13.6929V17.8923H98.5536V0.959831H102.971V8.30125L109.324 0.959831H114.446L108.169 7.9413L114.829 17.8923Z" fill="white"/>
<path d="M44.5912 30.783H49.0087V47.7155H44.5912V30.783Z" fill="white"/>
<path d="M52.3011 30.783H56.7186V43.9435H63.8961V47.7079H52.3011V30.783Z" fill="white"/>
<path d="M67.2488 30.783H71.6663V43.9435H78.8438V47.7079H67.2488V30.783Z" fill="white"/>
<path d="M81.3113 30.783H85.7288V47.7155H81.3113V30.783Z" fill="white"/>
<path d="M101.044 30.783H105.146V47.7155H101.284L93.6039 37.5994V47.7155H89.4714V30.783H93.3639L101.066 40.9739L101.044 30.783Z" fill="white"/>
<path d="M121.661 31.6528C123.056 32.4102 124.151 33.4451 124.946 34.7649C125.741 36.0847 126.139 37.5694 126.139 39.2117C126.139 40.869 125.741 42.3687 124.946 43.7035C124.151 45.0383 123.056 46.0957 121.661 46.8681C120.266 47.6405 118.714 48.0304 116.989 48.0304C115.264 48.0304 113.704 47.648 112.316 46.8831C110.921 46.1182 109.826 45.0608 109.031 43.7185C108.236 42.3762 107.839 40.8765 107.839 39.2117C107.839 37.5694 108.236 36.0847 109.031 34.7649C109.826 33.4451 110.921 32.4027 112.316 31.6528C113.711 30.8954 115.264 30.5205 116.989 30.5205C118.714 30.513 120.266 30.8954 121.661 31.6528ZM114.709 34.9148C113.989 35.3498 113.426 35.9497 113.006 36.7146C112.586 37.4795 112.376 38.3193 112.376 39.2342C112.376 40.1716 112.586 41.0189 113.014 41.7838C113.441 42.5487 114.011 43.1486 114.716 43.5985C115.421 44.041 116.201 44.266 117.034 44.266C117.874 44.266 118.639 44.0485 119.344 43.5985C120.041 43.1561 120.596 42.5487 121.001 41.7838C121.406 41.0189 121.609 40.1716 121.609 39.2342C121.609 38.3193 121.406 37.472 121.001 36.7146C120.596 35.9497 120.049 35.3498 119.344 34.9148C118.646 34.4799 117.874 34.2624 117.034 34.2624C116.201 34.2624 115.421 34.4799 114.709 34.9148Z" fill="white"/>
<path d="M128.126 30.783H132.544V47.7155H128.126V30.783Z" fill="white"/>
<path d="M144.394 34.5699C143.374 34.2324 142.512 34.06 141.822 34.06C141.274 34.06 140.847 34.1574 140.532 34.3599C140.217 34.5624 140.059 34.8548 140.059 35.2448C140.059 35.6122 140.194 35.9272 140.472 36.1746C140.742 36.4221 141.087 36.6246 141.484 36.7821C141.889 36.9395 142.482 37.1345 143.269 37.3745C144.447 37.7119 145.414 38.0494 146.179 38.3868C146.944 38.7243 147.604 39.2417 148.144 39.9466C148.692 40.644 148.969 41.5589 148.969 42.6837C148.969 43.8085 148.669 44.7759 148.077 45.5708C147.484 46.3656 146.667 46.9656 145.624 47.3705C144.582 47.7754 143.427 47.9779 142.159 47.9779C140.757 47.9779 139.362 47.7304 137.967 47.243C136.572 46.7556 135.372 46.0807 134.359 45.2258L136.077 41.7688C136.932 42.5262 137.944 43.1411 139.107 43.6285C140.277 44.1085 141.312 44.3559 142.212 44.3559C142.872 44.3559 143.389 44.236 143.772 43.996C144.147 43.756 144.342 43.4036 144.342 42.9312C144.342 42.5412 144.199 42.2263 143.922 41.9638C143.637 41.7088 143.284 41.4989 142.857 41.3489C142.429 41.1989 141.829 41.0189 141.057 40.809C139.894 40.4865 138.942 40.1641 138.184 39.8341C137.427 39.5042 136.782 39.0017 136.242 38.3343C135.702 37.6669 135.432 36.7746 135.432 35.6647C135.432 34.6224 135.709 33.7 136.264 32.9126C136.819 32.1252 137.607 31.5178 138.634 31.0904C139.654 30.663 140.847 30.453 142.197 30.453C143.419 30.453 144.627 30.6255 145.819 30.9704C147.012 31.3154 148.054 31.7803 148.962 32.3577L147.297 35.8822C146.374 35.3498 145.414 34.9148 144.394 34.5699Z" fill="white"/>
<path d="M9.24507 19.2646H23.0376V10.5434H32.1576V-7.62939e-06H6.12507L0.0125732 10.5434H9.24507V19.2646Z" fill="#F15C4B"/>
<path d="M23.0364 28.4733H9.24391V37.1945H0.00390625V47.738H26.2764L32.1564 37.1945H23.0364V28.4733Z" fill="#F15C4B"/>
</svg>
