<svg width="81" height="85" viewBox="0 0 81 85" fill="none" xmlns="http://www.w3.org/2000/svg">
<g clip-path="url(#clip0)">
<path d="M13.7097 49.7445H17.0394V54.9673H22.2968V49.7445H25.7141V62.6274H22.2968V57.6658H17.0394V62.6274H13.6221V49.7445H13.7097Z" fill="white"/>
<path d="M37.7178 62.6274L36.8416 60.3642H31.2337L30.3575 62.6274H26.8525L32.4604 49.7445H35.9654L41.398 62.6274H37.7178ZM32.2852 57.8398H35.8777L34.1253 53.2264L32.2852 57.8398Z" fill="white"/>
<path d="M50.0729 52.8782C49.4595 52.53 48.9338 52.443 48.3204 52.443C47.707 52.443 47.0937 52.6171 46.5679 52.9653C46.0422 53.3134 45.6041 53.7487 45.3412 54.271C44.9907 54.8803 44.9031 55.4896 44.9031 56.186C44.9031 56.8824 45.0783 57.4917 45.3412 58.101C45.6917 58.7103 46.0422 59.1456 46.5679 59.4067C47.0937 59.7549 47.707 59.929 48.3204 59.929C48.8461 59.929 49.3719 59.7549 49.9852 59.4937C50.5986 59.2326 51.1244 58.8844 51.5625 58.3621L53.5778 60.4513C52.8768 61.1476 52.0006 61.757 51.0367 62.1922C50.0729 62.6274 49.109 62.8886 48.1452 62.8886C46.8308 62.8886 45.6917 62.6274 44.6402 62.0181C43.5888 61.4088 42.8001 60.6254 42.1868 59.5808C41.5734 58.5362 41.3105 57.4046 41.3105 56.186C41.3105 54.9673 41.5734 53.8357 42.1868 52.7912C42.8001 51.7466 43.5888 50.9632 44.6402 50.4409C45.6917 49.9186 46.9184 49.5704 48.1452 49.5704C49.109 49.5704 50.0729 49.7445 51.0367 50.1798C52.0006 50.615 52.7892 51.1373 53.4026 51.8336L51.4748 54.1839C51.1244 53.6616 50.5986 53.2264 50.0729 52.8782Z" fill="white"/>
<path d="M67.5103 62.6274H63.4796L59.9747 57.6657L58.3099 59.4937V62.7145H54.8926V49.7445H58.3099V55.3155L63.2168 49.7445H67.1598L62.3405 55.0543L67.5103 62.6274Z" fill="white"/>
<path d="M0.390625 71.8544H3.80793V84.7373H0.390625V71.8544Z" fill="white"/>
<path d="M6.26172 71.8544H9.67903V81.8647H15.1993V84.7373H6.26172V71.8544Z" fill="white"/>
<path d="M17.7402 71.8544H21.1575V81.8647H26.6778V84.7373H17.7402V71.8544Z" fill="white"/>
<path d="M28.5176 71.8544H31.9349V84.7373H28.5176V71.8544Z" fill="white"/>
<path d="M43.6771 71.8544H46.8315V84.7373H43.8523L37.9816 76.9901V84.7373H34.8271V71.8544H37.8063L43.6771 79.6015V71.8544Z" fill="white"/>
<path d="M59.4491 72.5508C60.5006 73.1601 61.3768 73.9435 61.9902 74.901C62.6035 75.9456 62.8664 77.0772 62.8664 78.2959C62.8664 79.6016 62.6035 80.7332 61.9902 81.6907C61.3768 82.7352 60.5006 83.5187 59.4491 84.128C58.3976 84.7373 57.1709 84.9984 55.8565 84.9984C54.5422 84.9984 53.3155 84.7373 52.264 84.128C51.2125 83.5187 50.3363 82.7352 49.7229 81.6907C49.1095 80.6461 48.8467 79.5145 48.8467 78.2959C48.8467 77.0772 49.1095 75.9456 49.7229 74.901C50.3363 73.8565 51.2125 73.073 52.264 72.5508C53.3155 72.0285 54.5422 71.6803 55.8565 71.6803C57.1709 71.6803 58.3976 71.9414 59.4491 72.5508ZM54.1041 74.9881C53.5783 75.3363 53.1402 75.7715 52.7897 76.3808C52.4392 76.9901 52.3516 77.5995 52.3516 78.2959C52.3516 78.9922 52.5269 79.6886 52.8773 80.2109C53.2278 80.8202 53.666 81.2554 54.1917 81.6036C54.7174 81.9518 55.3308 82.1259 55.9442 82.1259C56.5575 82.1259 57.1709 81.9518 57.6966 81.6036C58.2224 81.2554 58.6605 80.8202 58.9234 80.2109C59.2738 79.6015 59.3615 78.9922 59.3615 78.2959C59.3615 77.5995 59.1862 76.9901 58.9234 76.3808C58.5729 75.7715 58.2224 75.3363 57.6966 74.9881C57.1709 74.6399 56.5575 74.4658 55.9442 74.4658C55.3308 74.4658 54.7174 74.6399 54.1041 74.9881Z" fill="white"/>
<path d="M64.4434 71.8544H67.8607V84.7373H64.4434V71.8544Z" fill="white"/>
<path d="M76.8857 74.7269C76.097 74.4658 75.4837 74.3788 74.8703 74.3788C74.4322 74.3788 74.0817 74.4658 73.9065 74.6399C73.6436 74.814 73.556 74.9881 73.556 75.3363C73.556 75.5974 73.6436 75.8585 73.9065 76.0326C74.0817 76.2067 74.3446 76.3808 74.6951 76.4679C75.0456 76.5549 75.4837 76.729 76.097 76.9031C76.9733 77.1642 77.7619 77.4254 78.2876 77.6865C78.901 77.9477 79.3391 78.3829 79.7772 78.9052C80.2153 79.4275 80.3906 80.1238 80.3906 80.9943C80.3906 81.8648 80.1277 82.5611 79.6896 83.1705C79.2515 83.7798 78.6381 84.215 77.8495 84.5632C77.0609 84.9114 76.1847 84.9984 75.2208 84.9984C74.1693 84.9984 73.1178 84.8244 71.9787 84.4762C70.8396 84.128 69.9634 83.6057 69.1748 82.9093L70.4892 80.2979C71.1025 80.9072 71.8911 81.3425 72.855 81.6907C73.8188 82.0389 74.5198 82.213 75.2208 82.213C75.7465 82.213 76.097 82.1259 76.4475 81.9518C76.7104 81.7777 76.8857 81.5166 76.8857 81.1684C76.8857 80.9072 76.798 80.6461 76.5352 80.472C76.3599 80.2979 76.0094 80.1238 75.7465 80.0368C75.4837 79.9497 74.9579 79.7756 74.3446 79.6016C73.4683 79.3404 72.6797 79.0793 72.154 78.8181C71.5406 78.557 71.1025 78.2088 70.6644 77.6865C70.2263 77.1642 70.051 76.4679 70.051 75.6845C70.051 74.901 70.2263 74.2047 70.6644 73.5953C71.1025 72.986 71.7159 72.5508 72.5045 72.2026C73.2931 71.8544 74.1693 71.6803 75.2208 71.6803C76.1847 71.6803 77.0609 71.8544 78.0247 72.1155C78.901 72.3767 79.7772 72.7249 80.3906 73.1601L79.0762 75.8585C78.4629 75.3363 77.6743 74.9881 76.8857 74.7269Z" fill="white"/>
<path d="M35.002 16.1445H45.9549V9.26784H53.14V0.998413H32.5485L27.6416 9.26784H35.002V16.1445Z" fill="#F37964"/>
<path d="M45.9549 23.4564H35.002V30.2461H27.6416V38.6025H48.4959L53.14 30.2461H45.9549V23.4564Z" fill="#F37964"/>
</g>
<defs>
<clipPath id="clip0">
<rect width="80" height="84" fill="white" transform="translate(0.390625 0.998413)"/>
</clipPath>
</defs>
</svg>
