<svg width="233" height="218" viewBox="0 0 233 218" fill="none" xmlns="http://www.w3.org/2000/svg">
<path fill-rule="evenodd" clip-rule="evenodd" d="M232.218 95.9134C232.218 37.3057 184.707 0.57251 126.1 0.57251C67.4919 0.57251 19.981 37.3057 19.981 95.9134V217.784H232.218V95.9134Z" fill="url(#paint0_linear)" fill-opacity="0.7"/>
<path d="M95.2178 50.0898C83.2178 50.0898 30.7178 50.2565 10.2178 46.5898L0.217773 61.0898C7.71777 62.5898 35.3178 58.2898 51.7178 59.0898C68.1178 59.8898 116.551 55.7565 138.718 53.5898C129.218 53.5898 107.218 50.0898 95.2178 50.0898Z" fill="#3B68A6"/>
<path d="M152.218 30.5898C159.818 30.5898 197.885 26.5898 217.218 26.5898L232.218 32.5898C220.385 32.4232 193.818 32.1898 182.218 32.5898C167.718 33.0898 142.718 30.5898 152.218 30.5898Z" fill="#3B68A6"/>
<defs>
<linearGradient id="paint0_linear" x1="126.1" y1="0.57251" x2="126.1" y2="180.661" gradientUnits="userSpaceOnUse">
<stop stop-color="#FFE5B7"/>
<stop offset="1" stop-color="#FFE5B7" stop-opacity="0"/>
</linearGradient>
</defs>
</svg>
