<svg width="274" height="274" viewBox="0 0 274 274" fill="none" xmlns="http://www.w3.org/2000/svg">
<g opacity="0.3" filter="url(#filter0_f)">
<circle cx="137" cy="137" r="87" fill="#FFDFB4"/>
</g>
<circle cx="134.5" cy="134.5" r="51.5" fill="#FFDFB4"/>
<path fill-rule="evenodd" clip-rule="evenodd" d="M168.912 169.738C160.725 175.76 150.612 179.319 139.669 179.319C112.384 179.319 90.2654 157.2 90.2654 129.915C90.2654 117.094 95.1499 105.413 103.16 96.6316C90.9339 105.625 83 120.113 83 136.454C83 163.739 105.119 185.857 132.403 185.857C146.866 185.857 159.877 179.643 168.912 169.738Z" fill="#FBD198"/>
<path d="M164.037 104.963C163.533 109.361 160.148 110.186 155.992 109.71C151.837 109.234 148.425 108.671 148.929 104.273C149.312 100.933 152.991 98.612 157.146 99.0882C161.302 99.5643 164.384 101.934 164.037 104.963Z" fill="#FBD198"/>
<path d="M151.963 161.458C151.8 162.881 150.324 162.768 148.476 162.556C146.629 162.345 145.109 162.115 145.272 160.692C145.396 159.611 146.994 158.907 148.842 159.119C150.69 159.33 152.087 160.378 151.963 161.458Z" fill="#FBD198"/>
<path d="M115.537 101.009C115.502 101.317 115.182 101.293 114.782 101.247C114.382 101.201 114.053 101.151 114.088 100.843C114.115 100.609 114.461 100.456 114.861 100.502C115.262 100.548 115.564 100.775 115.537 101.009Z" fill="#FBD198"/>
<path d="M169.31 101.766C169.274 102.075 168.955 102.05 168.554 102.004C168.154 101.958 167.825 101.908 167.86 101.6C167.887 101.366 168.233 101.214 168.634 101.259C169.034 101.305 169.337 101.532 169.31 101.766Z" fill="#FBD198"/>
<path d="M142.015 170.217C141.962 170.676 141.486 170.639 140.89 170.571C140.294 170.503 139.804 170.428 139.856 169.969C139.896 169.621 140.412 169.394 141.008 169.462C141.604 169.53 142.055 169.868 142.015 170.217Z" fill="#FBD198"/>
<path d="M103.39 131.592C103.337 132.051 102.861 132.014 102.265 131.946C101.669 131.878 101.179 131.803 101.231 131.344C101.271 130.996 101.787 130.769 102.383 130.837C102.979 130.905 103.43 131.243 103.39 131.592Z" fill="#FBD198"/>
<path d="M175.368 119.185C175.333 119.494 175.013 119.469 174.613 119.423C174.212 119.377 173.883 119.328 173.919 119.019C173.946 118.785 174.292 118.633 174.692 118.679C175.092 118.724 175.395 118.951 175.368 119.185Z" fill="#FBD198"/>
<path d="M151.891 113.127C151.855 113.435 151.535 113.41 151.135 113.364C150.735 113.319 150.406 113.269 150.441 112.961C150.468 112.726 150.814 112.574 151.214 112.62C151.615 112.666 151.917 112.893 151.891 113.127Z" fill="#FBD198"/>
<path d="M169.31 148.722C169.274 149.03 168.955 149.006 168.554 148.96C168.154 148.914 167.825 148.864 167.86 148.556C167.887 148.322 168.233 148.17 168.634 148.215C169.034 148.261 169.337 148.488 169.31 148.722Z" fill="#FBD198"/>
<path d="M141.806 94.9585C141.806 96.5083 140.04 98.3534 137.636 98.1471C135.232 97.9408 132.969 95.7556 133.101 94.2115C133.202 93.0389 135.232 91.882 137.636 92.0883C140.04 92.2946 141.806 93.2243 141.806 94.9585Z" fill="#FBD198"/>
<path d="M162.642 126.028C162.453 124.29 164.549 121.048 167.269 120.985C171.813 120.881 172.451 124.054 172.491 125.801C172.522 127.128 170.387 128.673 167.668 128.735C164.948 128.798 162.854 127.971 162.642 126.028Z" fill="#FBD198"/>
<path d="M103.531 125.149C103.402 123.962 104.833 121.748 106.69 121.705C109.793 121.634 110.229 123.801 110.257 124.994C110.278 125.9 108.82 126.955 106.963 126.998C105.105 127.04 103.676 126.476 103.531 125.149Z" fill="#FBD198"/>
<defs>
<filter id="filter0_f" x="0" y="0" width="274" height="274" filterUnits="userSpaceOnUse" color-interpolation-filters="sRGB">
<feFlood flood-opacity="0" result="BackgroundImageFix"/>
<feBlend mode="normal" in="SourceGraphic" in2="BackgroundImageFix" result="shape"/>
<feGaussianBlur stdDeviation="25" result="effect1_foregroundBlur"/>
</filter>
</defs>
</svg>
