<svg width="1440" height="314" viewBox="0 0 1440 314" fill="none" xmlns="http://www.w3.org/2000/svg">
<path d="M654.464 277.488L592 244H1438V294.5L1401.03 306.957C1327.24 298.808 1165.47 282.511 1108.7 282.511C1037.74 282.511 956.288 310.306 941.297 313.655C926.305 317.003 782.389 294.901 765.399 294.901C751.807 294.901 685.779 283.292 654.464 277.488Z" fill="url(#paint0_linear)" fill-opacity="0.6"/>
<path d="M503.661 245.92L551 222H0.5V245.92L-2 260.5C51 260.5 116.394 249.508 159.415 249.508C213.192 249.508 274.921 269.361 286.283 271.753C297.644 274.145 406.712 258.358 419.588 258.358C429.889 258.358 479.929 250.066 503.661 245.92Z" fill="url(#paint1_linear)" fill-opacity="0.6"/>
<path d="M1440 0.0139403C1440 0.0139403 1444 0.0138857 1418.17 0.0139403C1355.93 1.22526 1201.82 60.7778 1158.69 75.2319C1115.57 89.6861 1026.05 44.9326 992.203 53.7793C958.358 62.6261 733.442 112.66 727.437 128.612C721.432 144.563 609.5 196 609.5 196L592 244L1440 244V0.0139403Z" fill="#2A3170"/>
<path d="M-1.5 172C-1.5 172 -1.5 159 -1.5 117.5C50.9679 118.121 41.8608 128.136 78.2201 135.541C114.579 142.946 190.053 120.019 218.589 124.551C247.124 129.083 432.937 166.828 438 175C443.063 183.172 515 206.5 515 206.5L556 222H-1.5V172Z" fill="#2A3170"/>
<defs>
<linearGradient id="paint0_linear" x1="1021.5" y1="244" x2="1021.5" y2="314" gradientUnits="userSpaceOnUse">
<stop stop-color="#2A3170"/>
<stop offset="1" stop-color="#6F8CC1" stop-opacity="0"/>
</linearGradient>
<linearGradient id="paint1_linear" x1="225.5" y1="222" x2="225.5" y2="272" gradientUnits="userSpaceOnUse">
<stop stop-color="#2A3170"/>
<stop offset="1" stop-color="#6F8CC1" stop-opacity="0"/>
</linearGradient>
</defs>
</svg>
