<svg width="1409" height="450" viewBox="0 0 1409 450" fill="none" xmlns="http://www.w3.org/2000/svg">
<path d="M654.657 86.3138C657.229 86.3138 659.314 84.2288 659.314 81.6569C659.314 79.085 657.229 77 654.657 77C652.085 77 650 79.085 650 81.6569C650 84.2288 652.085 86.3138 654.657 86.3138Z" fill="#FBB63B"/>
<path d="M1377.13 417.269C1378.31 417.269 1379.27 416.313 1379.27 415.134C1379.27 413.956 1378.31 413 1377.13 413C1375.96 413 1375 413.956 1375 415.134C1375 416.313 1375.96 417.269 1377.13 417.269Z" fill="#FBB63B"/>
<path d="M106.134 449.269C107.313 449.269 108.269 448.313 108.269 447.134C108.269 445.956 107.313 445 106.134 445C104.956 445 104 445.956 104 447.134C104 448.313 104.956 449.269 106.134 449.269Z" fill="#FBB63B"/>
<path d="M1057.13 361.269C1058.31 361.269 1059.27 360.313 1059.27 359.134C1059.27 357.956 1058.31 357 1057.13 357C1055.96 357 1055 357.956 1055 359.134C1055 360.313 1055.96 361.269 1057.13 361.269Z" fill="#FBB63B"/>
<path d="M1326.1 323.209C1327.82 323.209 1329.21 321.819 1329.21 320.105C1329.21 318.39 1327.82 317 1326.1 317C1324.39 317 1323 318.39 1323 320.105C1323 321.819 1324.39 323.209 1326.1 323.209Z" fill="#FBB63B"/>
<path d="M73.0748 376.15C75.3252 376.15 77.1495 374.325 77.1495 372.075C77.1495 369.824 75.3252 368 73.0748 368C70.8243 368 69 369.824 69 372.075C69 374.325 70.8243 376.15 73.0748 376.15Z" fill="#FBB63B"/>
<path d="M739.062 25.468C741.313 25.468 743.137 23.6437 743.137 21.3933C743.137 19.1428 741.313 17.3185 739.062 17.3185C736.812 17.3185 734.987 19.1428 734.987 21.3933C734.987 23.6437 736.812 25.468 739.062 25.468Z" fill="#FBB63B"/>
<path d="M1157.72 445.433C1159.22 445.433 1160.43 444.217 1160.43 442.717C1160.43 441.216 1159.22 440 1157.72 440C1156.22 440 1155 441.216 1155 442.717C1155 444.217 1156.22 445.433 1157.72 445.433Z" fill="#FBB63B"/>
<path d="M601.105 34.2092C602.819 34.2092 604.209 32.8192 604.209 31.1046C604.209 29.39 602.819 28 601.105 28C599.39 28 598 29.39 598 31.1046C598 32.8192 599.39 34.2092 601.105 34.2092Z" fill="#FBB63B"/>
<path d="M593.657 296.314C596.229 296.314 598.314 294.229 598.314 291.657C598.314 289.085 596.229 287 593.657 287C591.085 287 589 289.085 589 291.657C589 294.229 591.085 296.314 593.657 296.314Z" fill="#FBB63B"/>
<path d="M23.1344 421.269C24.3132 421.269 25.2688 420.313 25.2688 419.134C25.2688 417.956 24.3132 417 23.1344 417C21.9556 417 21 417.956 21 419.134C21 420.313 21.9556 421.269 23.1344 421.269Z" fill="#FBB63B"/>
<path d="M133.134 268.269C134.313 268.269 135.269 267.313 135.269 266.134C135.269 264.956 134.313 264 133.134 264C131.956 264 131 264.956 131 266.134C131 267.313 131.956 268.269 133.134 268.269Z" fill="#FBB63B"/>
<path d="M561.134 385.269C562.313 385.269 563.269 384.313 563.269 383.134C563.269 381.956 562.313 381 561.134 381C559.956 381 559 381.956 559 383.134C559 384.313 559.956 385.269 561.134 385.269Z" fill="#FBB63B"/>
<path d="M372.134 242.269C373.313 242.269 374.269 241.313 374.269 240.134C374.269 238.956 373.313 238 372.134 238C370.956 238 370 238.956 370 240.134C370 241.313 370.956 242.269 372.134 242.269Z" fill="#FBB63B"/>
<path d="M1269.1 368.209C1270.82 368.209 1272.21 366.819 1272.21 365.105C1272.21 363.39 1270.82 362 1269.1 362C1267.39 362 1266 363.39 1266 365.105C1266 366.819 1267.39 368.209 1269.1 368.209Z" fill="#FBB63B"/>
<path d="M816.075 115.15C818.325 115.15 820.15 113.325 820.15 111.075C820.15 108.824 818.325 107 816.075 107C813.824 107 812 108.824 812 111.075C812 113.325 813.824 115.15 816.075 115.15Z" fill="#FBB63B"/>
<path d="M788.075 201.15C790.325 201.15 792.15 199.325 792.15 197.075C792.15 194.824 790.325 193 788.075 193C785.824 193 784 194.824 784 197.075C784 199.325 785.824 201.15 788.075 201.15Z" fill="#FBB63B"/>
<path d="M753.717 331.433C755.217 331.433 756.433 330.217 756.433 328.717C756.433 327.216 755.217 326 753.717 326C752.216 326 751 327.216 751 328.717C751 330.217 752.216 331.433 753.717 331.433Z" fill="#FBB63B"/>
<path d="M672.105 374.209C673.819 374.209 675.209 372.819 675.209 371.105C675.209 369.39 673.819 368 672.105 368C670.39 368 669 369.39 669 371.105C669 372.819 670.39 374.209 672.105 374.209Z" fill="#FBB63B"/>
<path d="M1157.66 320.314C1160.23 320.314 1162.31 318.229 1162.31 315.657C1162.31 313.085 1160.23 311 1157.66 311C1155.08 311 1153 313.085 1153 315.657C1153 318.229 1155.08 320.314 1157.66 320.314Z" fill="#FBB63B"/>
<path d="M1208.13 417.269C1209.31 417.269 1210.27 416.313 1210.27 415.134C1210.27 413.956 1209.31 413 1208.13 413C1206.96 413 1206 413.956 1206 415.134C1206 416.313 1206.96 417.269 1208.13 417.269Z" fill="#FBB63B"/>
<path d="M1069.13 255.378C1070.31 255.378 1071.27 254.423 1071.27 253.244C1071.27 252.065 1070.31 251.11 1069.13 251.11C1067.96 251.11 1067 252.065 1067 253.244C1067 254.423 1067.96 255.378 1069.13 255.378Z" fill="#FBB63B"/>
<path d="M872.134 187.269C873.313 187.269 874.269 186.313 874.269 185.134C874.269 183.956 873.313 183 872.134 183C870.956 183 870 183.956 870 185.134C870 186.313 870.956 187.269 872.134 187.269Z" fill="#FBB63B"/>
<path d="M1216.13 170.269C1217.31 170.269 1218.27 169.313 1218.27 168.134C1218.27 166.956 1217.31 166 1216.13 166C1214.96 166 1214 166.956 1214 168.134C1214 169.313 1214.96 170.269 1216.13 170.269Z" fill="#FBB63B"/>
<path d="M858.134 27.2688C859.313 27.2688 860.269 26.3132 860.269 25.1344C860.269 23.9556 859.313 23 858.134 23C856.956 23 856 23.9556 856 25.1344C856 26.3132 856.956 27.2688 858.134 27.2688Z" fill="#FBB63B"/>
<path d="M1024.28 258.724C1026 258.724 1027.39 257.334 1027.39 255.619C1027.39 253.904 1026 252.515 1024.28 252.515C1022.57 252.515 1021.18 253.904 1021.18 255.619C1021.18 257.334 1022.57 258.724 1024.28 258.724Z" fill="#FBB63B"/>
<path d="M973.684 206.396C975.935 206.396 977.759 204.572 977.759 202.321C977.759 200.071 975.935 198.246 973.684 198.246C971.434 198.246 969.609 200.071 969.609 202.321C969.609 204.572 971.434 206.396 973.684 206.396Z" fill="#FBB63B"/>
<path d="M1191.07 206.396C1193.33 206.396 1195.15 204.572 1195.15 202.321C1195.15 200.071 1193.33 198.246 1191.07 198.246C1188.82 198.246 1187 200.071 1187 202.321C1187 204.572 1188.82 206.396 1191.07 206.396Z" fill="#FBB63B"/>
<path d="M959.075 123.15C961.325 123.15 963.15 121.325 963.15 119.075C963.15 116.824 961.325 115 959.075 115C956.824 115 955 116.824 955 119.075C955 121.325 956.824 123.15 959.075 123.15Z" fill="#FBB63B"/>
<path d="M669.717 226.433C671.217 226.433 672.433 225.217 672.433 223.717C672.433 222.216 671.217 221 669.717 221C668.216 221 667 222.216 667 223.717C667 225.217 668.216 226.433 669.717 226.433Z" fill="#FBB63B"/>
<path d="M904.105 271.209C905.819 271.209 907.209 269.819 907.209 268.105C907.209 266.39 905.819 265 904.105 265C902.39 265 901 266.39 901 268.105C901 269.819 902.39 271.209 904.105 271.209Z" fill="#FBB63B"/>
<path d="M1285.66 232.311C1288.24 232.311 1290.32 230.226 1290.32 227.654C1290.32 225.083 1288.24 222.998 1285.66 222.998C1283.09 222.998 1281.01 225.083 1281.01 227.654C1281.01 230.226 1283.09 232.311 1285.66 232.311Z" fill="#FBB63B"/>
<path d="M1331.65 180.698C1332.83 180.698 1333.79 179.742 1333.79 178.563C1333.79 177.384 1332.83 176.429 1331.65 176.429C1330.47 176.429 1329.52 177.384 1329.52 178.563C1329.52 179.742 1330.47 180.698 1331.65 180.698Z" fill="#FBB63B"/>
<path d="M1240.07 141.89C1241.24 141.89 1242.2 140.935 1242.2 139.756C1242.2 138.577 1241.24 137.621 1240.07 137.621C1238.89 137.621 1237.93 138.577 1237.93 139.756C1237.93 140.935 1238.89 141.89 1240.07 141.89Z" fill="#FBB63B"/>
<path d="M1398.01 141.89C1400.26 141.89 1402.09 140.066 1402.09 137.815C1402.09 135.565 1400.26 133.741 1398.01 133.741C1395.76 133.741 1393.94 135.565 1393.94 137.815C1393.94 140.066 1395.76 141.89 1398.01 141.89Z" fill="#FBB63B"/>
<path d="M1388.5 266.462C1390 266.462 1391.22 265.246 1391.22 263.745C1391.22 262.245 1390 261.029 1388.5 261.029C1387 261.029 1385.79 262.245 1385.79 263.745C1385.79 265.246 1387 266.462 1388.5 266.462Z" fill="#FBB63B"/>
<path d="M1275.57 186.519C1277.29 186.519 1278.68 185.129 1278.68 183.414C1278.68 181.699 1277.29 180.309 1275.57 180.309C1273.86 180.309 1272.47 181.699 1272.47 183.414C1272.47 185.129 1273.86 186.519 1275.57 186.519Z" fill="#FBB63B"/>
<path d="M943.802 42.621C946.374 42.621 948.459 40.5361 948.459 37.9641C948.459 35.3922 946.374 33.3073 943.802 33.3073C941.23 33.3073 939.146 35.3922 939.146 37.9641C939.146 40.5361 941.23 42.621 943.802 42.621Z" fill="#FBB63B"/>
<path d="M1067.27 87.2727C1068.45 87.2727 1069.41 86.3171 1069.41 85.1383C1069.41 83.9595 1068.45 83.0039 1067.27 83.0039C1066.09 83.0039 1065.14 83.9595 1065.14 85.1383C1065.14 86.3171 1066.09 87.2727 1067.27 87.2727Z" fill="#FBB63B"/>
<path d="M970.782 101.717C971.961 101.717 972.916 100.761 972.916 99.5824C972.916 98.4036 971.961 97.448 970.782 97.448C969.603 97.448 968.647 98.4036 968.647 99.5824C968.647 100.761 969.603 101.717 970.782 101.717Z" fill="#FBB63B"/>
<path d="M638.134 425.269C639.313 425.269 640.269 424.313 640.269 423.134C640.269 421.956 639.313 421 638.134 421C636.956 421 636 421.956 636 423.134C636 424.313 636.956 425.269 638.134 425.269Z" fill="#FBB63B"/>
<path d="M1140.06 128.61C1141.77 128.61 1143.16 127.22 1143.16 125.506C1143.16 123.791 1141.77 122.401 1140.06 122.401C1138.34 122.401 1136.95 123.791 1136.95 125.506C1136.95 127.22 1138.34 128.61 1140.06 128.61Z" fill="#FBB63B"/>
<path d="M1069.36 149.644C1071.61 149.644 1073.43 147.819 1073.43 145.569C1073.43 143.318 1071.61 141.494 1069.36 141.494C1067.11 141.494 1065.29 143.318 1065.29 145.569C1065.29 147.819 1067.11 149.644 1069.36 149.644Z" fill="#FBB63B"/>
<path d="M1019.76 164.204C1022.01 164.204 1023.83 162.38 1023.83 160.13C1023.83 157.879 1022.01 156.055 1019.76 156.055C1017.51 156.055 1015.68 157.879 1015.68 160.13C1015.68 162.38 1017.51 164.204 1019.76 164.204Z" fill="#FBB63B"/>
<path d="M1025.07 303.15C1027.33 303.15 1029.15 301.325 1029.15 299.075C1029.15 296.824 1027.33 295 1025.07 295C1022.82 295 1021 296.824 1021 299.075C1021 301.325 1022.82 303.15 1025.07 303.15Z" fill="#FBB63B"/>
<path d="M919.533 79.4101C921.247 79.4101 922.637 78.0201 922.637 76.3055C922.637 74.5909 921.247 73.2009 919.533 73.2009C917.818 73.2009 916.428 74.5909 916.428 76.3055C916.428 78.0201 917.818 79.4101 919.533 79.4101Z" fill="#FBB63B"/>
<path d="M155.873 32.5853C158.445 32.5853 160.53 30.5003 160.53 27.9284C160.53 25.3564 158.445 23.2715 155.873 23.2715C153.301 23.2715 151.216 25.3564 151.216 27.9284C151.216 30.5003 153.301 32.5853 155.873 32.5853Z" fill="#FBB63B"/>
<path d="M30.3629 117.589C31.5417 117.589 32.4973 116.633 32.4973 115.454C32.4973 114.276 31.5417 113.32 30.3629 113.32C29.1841 113.32 28.2285 114.276 28.2285 115.454C28.2285 116.633 29.1841 117.589 30.3629 117.589Z" fill="#FBB63B"/>
<path d="M152.606 97.2461C153.784 97.2461 154.74 96.2905 154.74 95.1117C154.74 93.9329 153.784 92.9773 152.606 92.9773C151.427 92.9773 150.471 93.9329 150.471 95.1117C150.471 96.2905 151.427 97.2461 152.606 97.2461Z" fill="#FBB63B"/>
<path d="M3.671 182.739C5.38561 182.739 6.77559 181.349 6.77559 179.634C6.77559 177.92 5.38561 176.53 3.671 176.53C1.95638 176.53 0.566406 177.92 0.566406 179.634C0.566406 181.349 1.95638 182.739 3.671 182.739Z" fill="#FBB63B"/>
<path d="M76.877 177.275C79.1275 177.275 80.9518 175.45 80.9518 173.2C80.9518 170.95 79.1275 169.125 76.877 169.125C74.6266 169.125 72.8022 170.95 72.8022 173.2C72.8022 175.45 74.6266 177.275 76.877 177.275Z" fill="#FBB63B"/>
<path d="M54.1286 69.724C55.6289 69.724 56.8451 68.5078 56.8451 67.0075C56.8451 65.5072 55.6289 64.291 54.1286 64.291C52.6283 64.291 51.4121 65.5072 51.4121 67.0075C51.4121 68.5078 52.6283 69.724 54.1286 69.724Z" fill="#FBB63B"/>
<path d="M192.205 58.2138C193.92 58.2138 195.31 56.8238 195.31 55.1092C195.31 53.3946 193.92 52.0046 192.205 52.0046C190.491 52.0046 189.101 53.3946 189.101 55.1092C189.101 56.8238 190.491 58.2138 192.205 58.2138Z" fill="#FBB63B"/>
<path d="M227.621 171.423C229.918 171.423 231.781 169.56 231.781 167.262C231.781 164.965 229.918 163.102 227.621 163.102C225.323 163.102 223.46 164.965 223.46 167.262C223.46 169.56 225.323 171.423 227.621 171.423Z" fill="#FBB63B"/>
<path d="M282.075 294.504C283.129 294.504 283.984 293.649 283.984 292.595C283.984 291.54 283.129 290.685 282.075 290.685C281.02 290.685 280.166 291.54 280.166 292.595C280.166 293.649 281.02 294.504 282.075 294.504Z" fill="#FBB63B"/>
<path d="M198.64 221.794C199.694 221.794 200.549 220.94 200.549 219.885C200.549 218.831 199.694 217.976 198.64 217.976C197.585 217.976 196.73 218.831 196.73 219.885C196.73 220.94 197.585 221.794 198.64 221.794Z" fill="#FBB63B"/>
<path d="M272.319 356.673C273.85 356.673 275.09 355.433 275.09 353.902C275.09 352.372 273.85 351.132 272.319 351.132C270.789 351.132 269.548 352.372 269.548 353.902C269.548 355.433 270.789 356.673 272.319 356.673Z" fill="#FBB63B"/>
<path d="M219.665 318.363C221.675 318.363 223.305 316.733 223.305 314.723C223.305 312.712 221.675 311.083 219.665 311.083C217.655 311.083 216.025 312.712 216.025 314.723C216.025 316.733 217.655 318.363 219.665 318.363Z" fill="#FBB63B"/>
<path d="M286.685 247.05C288.027 247.05 289.115 245.963 289.115 244.621C289.115 243.279 288.027 242.192 286.685 242.192C285.344 242.192 284.256 243.279 284.256 244.621C284.256 245.963 285.344 247.05 286.685 247.05Z" fill="#FBB63B"/>
<path d="M27.4293 280.494C28.771 280.494 29.8587 279.406 29.8587 278.064C29.8587 276.723 28.771 275.635 27.4293 275.635C26.0877 275.635 25 276.723 25 278.064C25 279.406 26.0877 280.494 27.4293 280.494Z" fill="#FBB63B"/>
<path d="M187.261 173.689C188.791 173.689 190.032 172.448 190.032 170.918C190.032 169.388 188.791 168.147 187.261 168.147C185.731 168.147 184.49 169.388 184.49 170.918C184.49 172.448 185.731 173.689 187.261 173.689Z" fill="#FBB63B"/>
<path d="M180.771 111.542C182.301 111.542 183.542 110.301 183.542 108.771C183.542 107.24 182.301 106 180.771 106C179.241 106 178 107.24 178 108.771C178 110.301 179.241 111.542 180.771 111.542Z" fill="#FBB63B"/>
<path d="M476.981 115.121C479.553 115.121 481.638 113.036 481.638 110.464C481.638 107.892 479.553 105.807 476.981 105.807C474.409 105.807 472.324 107.892 472.324 110.464C472.324 113.036 474.409 115.121 476.981 115.121Z" fill="#FBB63B"/>
<path d="M434.005 242.029C435.184 242.029 436.139 241.073 436.139 239.894C436.139 238.715 435.184 237.76 434.005 237.76C432.826 237.76 431.871 238.715 431.871 239.894C431.871 241.073 432.826 242.029 434.005 242.029Z" fill="#FBB63B"/>
<path d="M532.887 134.959C534.066 134.959 535.022 134.004 535.022 132.825C535.022 131.646 534.066 130.69 532.887 130.69C531.709 130.69 530.753 131.646 530.753 132.825C530.753 134.004 531.709 134.959 532.887 134.959Z" fill="#FBB63B"/>
<path d="M376.134 84.2688C377.313 84.2688 378.269 83.3132 378.269 82.1344C378.269 80.9556 377.313 80 376.134 80C374.956 80 374 80.9556 374 82.1344C374 83.3132 374.956 84.2688 376.134 84.2688Z" fill="#FBB63B"/>
<path d="M478.899 298.447C480.613 298.447 482.003 297.057 482.003 295.342C482.003 293.628 480.613 292.238 478.899 292.238C477.184 292.238 475.794 293.628 475.794 295.342C475.794 297.057 477.184 298.447 478.899 298.447Z" fill="#FBB63B"/>
<path d="M541.371 222.322C543.621 222.322 545.445 220.498 545.445 218.247C545.445 215.997 543.621 214.173 541.371 214.173C539.12 214.173 537.296 215.997 537.296 218.247C537.296 220.498 539.12 222.322 541.371 222.322Z" fill="#FBB63B"/>
<path d="M289.717 339.433C291.217 339.433 292.433 338.217 292.433 336.717C292.433 335.216 291.217 334 289.717 334C288.216 334 287 335.216 287 336.717C287 338.217 288.216 339.433 289.717 339.433Z" fill="#FBB63B"/>
<path d="M535.495 79.705C537.21 79.705 538.6 78.3151 538.6 76.6004C538.6 74.8858 537.21 73.4958 535.495 73.4958C533.781 73.4958 532.391 74.8858 532.391 76.6004C532.391 78.3151 533.781 79.705 535.495 79.705Z" fill="#FBB63B"/>
<path d="M493.614 29.9465C496.186 29.9465 498.271 27.8615 498.271 25.2896C498.271 22.7176 496.186 20.6327 493.614 20.6327C491.042 20.6327 488.957 22.7176 488.957 25.2896C488.957 27.8615 491.042 29.9465 493.614 29.9465Z" fill="#FBB63B"/>
<path d="M176.657 29.9465C179.229 29.9465 181.314 27.8615 181.314 25.2896C181.314 22.7176 179.229 20.6327 176.657 20.6327C174.085 20.6327 172 22.7176 172 25.2896C172 27.8615 174.085 29.9465 176.657 29.9465Z" fill="#FBB63B"/>
<path d="M429.916 51.05C431.631 51.05 433.021 49.66 433.021 47.9454C433.021 46.2308 431.631 44.8408 429.916 44.8408C428.201 44.8408 426.812 46.2308 426.812 47.9454C426.812 49.66 428.201 51.05 429.916 51.05Z" fill="#FBB63B"/>
<path d="M1201.82 116.704C1204.39 116.704 1206.47 114.619 1206.47 112.047C1206.47 109.475 1204.39 107.39 1201.82 107.39C1199.25 107.39 1197.16 109.475 1197.16 112.047C1197.16 114.619 1199.25 116.704 1201.82 116.704Z" fill="#FBB63B"/>
<path d="M1286.73 144.638C1289.3 144.638 1291.39 142.553 1291.39 139.981C1291.39 137.409 1289.3 135.324 1286.73 135.324C1284.16 135.324 1282.07 137.409 1282.07 139.981C1282.07 142.553 1284.16 144.638 1286.73 144.638Z" fill="#FBB63B"/>
<path d="M1203.45 53.9915C1204.63 53.9915 1205.58 53.0359 1205.58 51.8571C1205.58 50.6783 1204.63 49.7227 1203.45 49.7227C1202.27 49.7227 1201.31 50.6783 1201.31 51.8571C1201.31 53.0359 1202.27 53.9915 1203.45 53.9915Z" fill="#FBB63B"/>
<path d="M1374.6 49.3502C1376.32 49.3502 1377.71 47.9602 1377.71 46.2456C1377.71 44.531 1376.32 43.141 1374.6 43.141C1372.89 43.141 1371.5 44.531 1371.5 46.2456C1371.5 47.9602 1372.89 49.3502 1374.6 49.3502Z" fill="#FBB63B"/>
<path d="M1280.65 18.3972C1282.9 18.3972 1284.73 16.5729 1284.73 14.3225C1284.73 12.072 1282.9 10.2477 1280.65 10.2477C1278.4 10.2477 1276.58 12.072 1276.58 14.3225C1276.58 16.5729 1278.4 18.3972 1280.65 18.3972Z" fill="#FBB63B"/>
<path d="M1320.49 89.5237C1321.99 89.5237 1323.21 88.3075 1323.21 86.8072C1323.21 85.3069 1321.99 84.0907 1320.49 84.0907C1318.99 84.0907 1317.77 85.3069 1317.77 86.8072C1317.77 88.3075 1318.99 89.5237 1320.49 89.5237Z" fill="#FBB63B"/>
<path d="M1161.1 43.2092C1162.82 43.2092 1164.21 41.8192 1164.21 40.1046C1164.21 38.39 1162.82 37 1161.1 37C1159.39 37 1158 38.39 1158 40.1046C1158 41.8192 1159.39 43.2092 1161.1 43.2092Z" fill="#FBB63B"/>
<path d="M378.657 149.314C381.229 149.314 383.314 147.229 383.314 144.657C383.314 142.085 381.229 140 378.657 140C376.085 140 374 142.085 374 144.657C374 147.229 376.085 149.314 378.657 149.314Z" fill="#FBB63B"/>
<path d="M326.82 35.395C327.999 35.395 328.955 34.4394 328.955 33.2606C328.955 32.0818 327.999 31.1262 326.82 31.1262C325.642 31.1262 324.686 32.0818 324.686 33.2606C324.686 34.4394 325.642 35.395 326.82 35.395Z" fill="#FBB63B"/>
<path d="M330.818 159.253C331.996 159.253 332.952 158.297 332.952 157.118C332.952 155.939 331.996 154.984 330.818 154.984C329.639 154.984 328.683 155.939 328.683 157.118C328.683 158.297 329.639 159.253 330.818 159.253Z" fill="#FBB63B"/>
<path d="M266.738 1.41523C268.453 1.41523 269.843 0.0252619 269.843 -1.68936C269.843 -3.40397 268.453 -4.79395 266.738 -4.79395C265.024 -4.79395 263.634 -3.40397 263.634 -1.68936C263.634 0.0252619 265.024 1.41523 266.738 1.41523Z" fill="#FBB63B"/>
<path d="M263.432 75.8012C265.683 75.8012 267.507 73.9768 267.507 71.7264C267.507 69.4759 265.683 67.6516 263.432 67.6516C261.182 67.6516 259.357 69.4759 259.357 71.7264C259.357 73.9768 261.182 75.8012 263.432 75.8012Z" fill="#FBB63B"/>
<path d="M371.705 65.9364C373.205 65.9364 374.421 64.7202 374.421 63.2199C374.421 61.7196 373.205 60.5034 371.705 60.5034C370.205 60.5034 368.988 61.7196 368.988 63.2199C368.988 64.7202 370.205 65.9364 371.705 65.9364Z" fill="#FBB63B"/>
<path d="M476.105 236.209C477.819 236.209 479.209 234.819 479.209 233.105C479.209 231.39 477.819 230 476.105 230C474.39 230 473 231.39 473 233.105C473 234.819 474.39 236.209 476.105 236.209Z" fill="#FBB63B"/>
<path d="M81.1046 163.209C82.8192 163.209 84.2092 161.819 84.2092 160.105C84.2092 158.39 82.8192 157 81.1046 157C79.39 157 78 158.39 78 160.105C78 161.819 79.39 163.209 81.1046 163.209Z" fill="#FBB63B"/>
</svg>
