<svg width="1410" height="506" viewBox="0 0 1410 506" fill="none" xmlns="http://www.w3.org/2000/svg">
<g opacity="0.5">
<path d="M222.012 142.542L220.975 144.169L221.536 146.015L219.909 144.978L218.063 145.539L219.099 143.912L218.539 142.066L220.166 143.102L222.012 142.542Z" fill="#ECCF9C"/>
<path d="M425.3 166.43L424.263 168.057L424.824 169.903L423.197 168.866L421.351 169.427L422.387 167.8L421.827 165.953L423.454 166.99L425.3 166.43Z" fill="#ECCF9C"/>
<path d="M537.158 66.7614L536.122 68.3886L536.682 70.2347L535.055 69.1981L533.209 69.7585L534.245 68.1314L533.685 66.2853L535.312 67.3219L537.158 66.7614Z" fill="#ECCF9C"/>
<path d="M340.3 7.26382L338.616 9.90797L339.526 12.9079L336.882 11.2234L333.882 12.1341L335.567 9.49L334.656 6.49008L337.3 8.17457L340.3 7.26382Z" fill="#ECCF9C"/>
<path d="M298.989 66.6213L298.082 68.045L298.572 69.6604L297.148 68.7534L295.533 69.2438L296.44 67.82L295.95 66.2046L297.374 67.1117L298.989 66.6213Z" fill="#ECCF9C"/>
<path opacity="0.4" d="M387.851 -0.813959L386.944 0.60981L387.434 2.22515L386.011 1.31812L384.395 1.80852L385.302 0.384754L384.812 -1.23059L386.236 -0.323555L387.851 -0.813959Z" fill="#ECCF9C"/>
<path d="M362.443 174.842L360.759 177.486L361.67 180.486L359.025 178.801L356.026 179.712L357.71 177.068L356.799 174.068L359.443 175.753L362.443 174.842Z" fill="#ECCF9C"/>
<path d="M129.297 175.169L127.612 177.813L128.523 180.813L125.879 179.129L122.879 180.039L124.563 177.395L123.653 174.395L126.297 176.08L129.297 175.169Z" fill="#ECCF9C"/>
<path d="M144.252 320.973L142.049 324.431L143.24 328.354L139.782 326.151L135.859 327.342L138.062 323.884L136.871 319.961L140.329 322.164L144.252 320.973Z" fill="#ECCF9C"/>
<path d="M305.807 220.156L304.641 221.986L305.271 224.063L303.441 222.897L301.364 223.528L302.53 221.697L301.9 219.62L303.73 220.786L305.807 220.156Z" fill="#ECCF9C"/>
</g>
<path d="M1263.59 22.9173C1264.37 22.4576 1264.68 21.5289 1264.28 20.8429C1263.87 20.157 1262.91 19.9735 1262.13 20.4332C1261.34 20.8928 1261.04 21.8215 1261.44 22.5075C1261.84 23.1935 1262.8 23.3769 1263.59 22.9173Z" fill="#EACA91"/>
<path d="M1057.37 352.197C1057.73 351.987 1057.87 351.561 1057.68 351.246C1057.5 350.932 1057.06 350.848 1056.7 351.059C1056.34 351.269 1056.2 351.695 1056.38 352.009C1056.57 352.324 1057.01 352.408 1057.37 352.197Z" fill="#EACA91"/>
<path d="M989.014 383.91C989.373 383.7 989.515 383.274 989.33 382.959C989.146 382.645 988.705 382.561 988.346 382.772C987.987 382.982 987.845 383.408 988.029 383.722C988.214 384.037 988.655 384.121 989.014 383.91Z" fill="#EACA91"/>
<path opacity="0.54" d="M1043.52 288.902C1044.2 288.5 1044.47 287.687 1044.12 287.087C1043.77 286.487 1042.93 286.326 1042.24 286.728C1041.56 287.13 1041.29 287.943 1041.64 288.543C1041.99 289.144 1042.83 289.304 1043.52 288.902Z" fill="#EACA91"/>
<path d="M1092.88 380.316C1093.66 379.857 1093.97 378.928 1093.57 378.242C1093.16 377.556 1092.2 377.373 1091.42 377.832C1090.64 378.292 1090.33 379.221 1090.73 379.907C1091.13 380.593 1092.09 380.776 1092.88 380.316Z" fill="#EACA91"/>
<path d="M1138.32 398.52C1138.68 398.309 1138.82 397.884 1138.63 397.569C1138.45 397.255 1138.01 397.171 1137.65 397.381C1137.29 397.592 1137.15 398.018 1137.33 398.332C1137.52 398.647 1137.96 398.731 1138.32 398.52Z" fill="#EACA91"/>
<path d="M1270.74 96.6699C1271.1 96.4592 1271.25 96.0336 1271.06 95.7192C1270.88 95.4048 1270.44 95.3207 1270.08 95.5314C1269.72 95.742 1269.58 96.1677 1269.76 96.4821C1269.94 96.7965 1270.39 96.8806 1270.74 96.6699Z" fill="#EACA91"/>
<path d="M1277.47 128.201C1277.83 127.991 1277.97 127.565 1277.78 127.251C1277.6 126.936 1277.16 126.852 1276.8 127.063C1276.44 127.274 1276.3 127.699 1276.48 128.014C1276.67 128.328 1277.11 128.412 1277.47 128.201Z" fill="#EACA91"/>
<path d="M1311.09 7.00338C1311.78 6.60117 1312.05 5.78854 1311.7 5.18832C1311.35 4.5881 1310.5 4.42758 1309.82 4.82978C1309.13 5.23199 1308.86 6.04461 1309.21 6.64483C1309.57 7.24506 1310.41 7.40558 1311.09 7.00338Z" fill="#EACA91"/>
<path d="M1329.3 53.3528C1329.76 53.0847 1329.94 52.543 1329.7 52.1428C1329.47 51.7427 1328.91 51.6356 1328.45 51.9038C1327.99 52.1719 1327.81 52.7137 1328.05 53.1138C1328.28 53.514 1328.84 53.621 1329.3 53.3528Z" fill="#EACA91"/>
<path d="M1302.83 73.8874C1303.35 73.581 1303.56 72.9618 1303.29 72.5045C1303.02 72.0472 1302.38 71.9249 1301.86 72.2313C1301.33 72.5378 1301.13 73.1569 1301.4 73.6142C1301.66 74.0715 1302.31 74.1939 1302.83 73.8874Z" fill="#EACA91"/>
<path d="M1278.98 34.9001C1279.44 34.632 1279.62 34.0902 1279.39 33.6901C1279.15 33.29 1278.59 33.1829 1278.13 33.4511C1277.68 33.7192 1277.5 34.261 1277.73 34.6611C1277.96 35.0613 1278.53 35.1683 1278.98 34.9001Z" fill="#EACA91"/>
<path d="M1357.41 4.95202C1357.93 4.64558 1358.14 4.02643 1357.87 3.56912C1357.6 3.11181 1356.96 2.9895 1356.44 3.29595C1355.92 3.60239 1355.71 4.22153 1355.98 4.67884C1356.25 5.13616 1356.89 5.25846 1357.41 4.95202Z" fill="#EACA91"/>
<path d="M1379.62 0.125022C1380.4 -0.334641 1380.71 -1.26336 1380.31 -1.94933C1379.9 -2.63529 1378.94 -2.81875 1378.16 -2.35909C1377.38 -1.89942 1377.07 -0.970708 1377.47 -0.28474C1377.87 0.401228 1378.83 0.584685 1379.62 0.125022Z" fill="#EACA91"/>
<path d="M1300.46 93.5769C1300.82 93.3662 1300.97 92.9406 1300.78 92.6262C1300.6 92.3118 1300.16 92.2277 1299.8 92.4383C1299.44 92.649 1299.3 93.0747 1299.48 93.3891C1299.66 93.7035 1300.11 93.7876 1300.46 93.5769Z" fill="#EACA91"/>
<path d="M1046.78 156.968C1047.14 156.757 1047.28 156.331 1047.09 156.017C1046.91 155.702 1046.47 155.618 1046.11 155.829C1045.75 156.04 1045.61 156.465 1045.79 156.78C1045.98 157.094 1046.42 157.178 1046.78 156.968Z" fill="#EACA91"/>
<path d="M1027.18 269.032C1027.7 268.726 1027.91 268.107 1027.64 267.65C1027.37 267.192 1026.73 267.07 1026.21 267.376C1025.68 267.683 1025.48 268.302 1025.75 268.759C1026.02 269.217 1026.66 269.339 1027.18 269.032Z" fill="#EACA91"/>
<path d="M1066.89 103.123C1067.35 102.855 1067.53 102.313 1067.29 101.913C1067.06 101.513 1066.5 101.406 1066.04 101.674C1065.58 101.942 1065.4 102.484 1065.64 102.884C1065.87 103.284 1066.43 103.391 1066.89 103.123Z" fill="#EACA91"/>
<path opacity="0.3" d="M1243.72 145.854C1244.24 145.548 1244.45 144.929 1244.18 144.471C1243.91 144.014 1243.27 143.892 1242.75 144.198C1242.23 144.505 1242.02 145.124 1242.29 145.581C1242.56 146.038 1243.2 146.161 1243.72 145.854Z" fill="#EACA91"/>
<path d="M1171.51 122.336C1171.83 122.147 1171.96 121.767 1171.8 121.485C1171.63 121.204 1171.24 121.129 1170.91 121.317C1170.59 121.506 1170.47 121.887 1170.63 122.168C1170.8 122.449 1171.19 122.524 1171.51 122.336Z" fill="#EACA91"/>
<path opacity="0.54" d="M1172.27 216.354C1172.74 216.08 1172.92 215.528 1172.68 215.119C1172.44 214.711 1171.87 214.602 1171.41 214.876C1170.94 215.149 1170.76 215.702 1170.99 216.11C1171.23 216.518 1171.81 216.627 1172.27 216.354Z" fill="#EACA91"/>
<path opacity="0.54" d="M1131.25 138.592C1131.86 138.233 1132.1 137.507 1131.79 136.971C1131.47 136.435 1130.72 136.291 1130.11 136.651C1129.5 137.01 1129.25 137.736 1129.57 138.272C1129.88 138.808 1130.64 138.952 1131.25 138.592Z" fill="#EACA91"/>
<path d="M1206.89 260.535C1207.3 260.295 1207.46 259.81 1207.25 259.452C1207.04 259.095 1206.54 258.999 1206.13 259.239C1205.72 259.478 1205.56 259.963 1205.77 260.321C1205.98 260.679 1206.48 260.774 1206.89 260.535Z" fill="#EACA91"/>
<path d="M1109.57 106.887C1110.03 106.613 1110.22 106.061 1109.98 105.652C1109.74 105.244 1109.16 105.135 1108.7 105.409C1108.23 105.682 1108.05 106.235 1108.29 106.643C1108.53 107.051 1109.1 107.16 1109.57 106.887Z" fill="#EACA91"/>
<path opacity="0.54" d="M1239.44 39.6695C1239.8 39.4588 1239.95 39.0331 1239.76 38.7187C1239.58 38.4043 1239.14 38.3202 1238.78 38.5309C1238.42 38.7416 1238.28 39.1673 1238.46 39.4817C1238.64 39.7961 1239.09 39.8802 1239.44 39.6695Z" fill="#EACA91"/>
<path d="M983.65 290.77C984.172 290.463 984.379 289.844 984.11 289.387C983.842 288.929 983.201 288.807 982.679 289.113C982.156 289.42 981.95 290.039 982.218 290.496C982.487 290.954 983.128 291.076 983.65 290.77Z" fill="#EACA91"/>
<path d="M1009.92 367.211C1010.44 366.904 1010.65 366.285 1010.38 365.828C1010.11 365.371 1009.47 365.248 1008.95 365.555C1008.42 365.861 1008.22 366.48 1008.49 366.938C1008.75 367.395 1009.39 367.517 1009.92 367.211Z" fill="#EACA91"/>
<path opacity="0.54" d="M1302.24 25.6217C1302.93 25.2195 1303.2 24.4069 1302.85 23.8066C1302.5 23.2064 1301.65 23.0459 1300.97 23.4481C1300.28 23.8503 1300.01 24.6629 1300.36 25.2631C1300.72 25.8634 1301.56 26.0239 1302.24 25.6217Z" fill="#EACA91"/>
<path opacity="0.3" d="M1309.28 48.505C1309.8 48.1985 1310.01 47.5794 1309.74 47.1221C1309.47 46.6648 1308.83 46.5425 1308.31 46.8489C1307.79 47.1553 1307.58 47.7745 1307.85 48.2318C1308.12 48.6891 1308.76 48.8114 1309.28 48.505Z" fill="#EACA91"/>
<path opacity="0.54" d="M1202.55 22.3896C1203.34 21.93 1203.65 21.0013 1203.25 20.3153C1202.84 19.6293 1201.88 19.4459 1201.1 19.9055C1200.31 20.3652 1200.01 21.2939 1200.41 21.9799C1200.81 22.6658 1201.77 22.8493 1202.55 22.3896Z" fill="#EACA91"/>
<path d="M1098 70.6153C1098.79 70.1557 1099.1 69.2269 1098.69 68.541C1098.29 67.855 1097.33 67.6716 1096.55 68.1312C1095.76 68.5909 1095.45 69.5196 1095.86 70.2056C1096.26 70.8915 1097.22 71.075 1098 70.6153Z" fill="#EACA91"/>
<path d="M1200.51 167.37C1200.87 167.16 1201.01 166.734 1200.83 166.419C1200.64 166.105 1200.2 166.021 1199.84 166.232C1199.49 166.442 1199.34 166.868 1199.53 167.182C1199.71 167.497 1200.15 167.581 1200.51 167.37Z" fill="#EACA91"/>
<path opacity="0.3" d="M1215.23 122.434C1215.75 122.128 1215.96 121.508 1215.69 121.051C1215.42 120.594 1214.78 120.471 1214.26 120.778C1213.74 121.084 1213.53 121.704 1213.8 122.161C1214.07 122.618 1214.71 122.74 1215.23 122.434Z" fill="#EACA91"/>
<path d="M1133.12 13.5402C1133.48 13.3296 1133.62 12.9039 1133.44 12.5895C1133.26 12.2751 1132.81 12.191 1132.46 12.4017C1132.1 12.6124 1131.95 13.038 1132.14 13.3524C1132.32 13.6668 1132.76 13.7509 1133.12 13.5402Z" fill="#EACA91"/>
<path d="M1158.74 360.393C1159.1 360.182 1159.24 359.756 1159.05 359.442C1158.87 359.128 1158.43 359.043 1158.07 359.254C1157.71 359.465 1157.57 359.89 1157.75 360.205C1157.94 360.519 1158.38 360.603 1158.74 360.393Z" fill="#EACA91"/>
<path d="M1221.52 72.1103C1222.04 71.8038 1222.24 71.1847 1221.98 70.7274C1221.71 70.2701 1221.07 70.1478 1220.54 70.4542C1220.02 70.7606 1219.82 71.3798 1220.08 71.8371C1220.35 72.2944 1220.99 72.4167 1221.52 72.1103Z" fill="#EACA91"/>
<g opacity="0.5">
<path d="M1312.56 230.48L1314.27 231.667L1316.15 231.182L1315.13 232.84L1315.75 234.821L1314.05 233.633L1312.16 234.119L1313.19 232.461L1312.56 230.48Z" fill="#ECCF9C"/>
<path d="M1331.95 17.2582L1333.65 18.4461L1335.54 17.9606L1334.51 19.6187L1335.14 21.5997L1333.44 20.4118L1331.55 20.8972L1332.57 19.2392L1331.95 17.2582Z" fill="#ECCF9C"/>
<path d="M1170.04 97.8275L1172.81 99.7578L1175.88 98.969L1174.21 101.663L1175.23 104.883L1172.46 102.952L1169.39 103.741L1171.06 101.047L1170.04 97.8275Z" fill="#ECCF9C"/>
<path d="M1232.3 144.852L1233.8 145.892L1235.45 145.467L1234.55 146.918L1235.1 148.651L1233.61 147.612L1231.95 148.036L1232.85 146.586L1232.3 144.852Z" fill="#ECCF9C"/>
<path opacity="0.4" d="M1160.49 47.1668L1161.98 48.2062L1163.63 47.7815L1162.74 49.2323L1163.28 50.9657L1161.79 49.9263L1160.14 50.351L1161.04 48.9002L1160.49 47.1668Z" fill="#ECCF9C"/>
<path d="M1342.24 84.0953L1345.01 86.0257L1348.08 85.2369L1346.41 87.9312L1347.43 91.1504L1344.66 89.22L1341.59 90.0088L1343.26 87.3145L1342.24 84.0953Z" fill="#ECCF9C"/>
<path d="M1348.59 330.23L1351.36 332.16L1354.43 331.371L1352.76 334.066L1353.78 337.285L1351.01 335.354L1347.94 336.143L1349.6 333.449L1348.59 330.23Z" fill="#ECCF9C"/>
<path d="M1390.42 146.49L1392.34 147.826L1394.46 147.28L1393.31 149.145L1394.01 151.374L1392.09 150.037L1389.97 150.584L1391.12 148.718L1390.42 146.49Z" fill="#ECCF9C"/>
</g>
<g opacity="0.5">
<path d="M571.902 291.091L573.892 291.69L575.536 290.641L575.076 292.536L576.286 294.224L574.297 293.626L572.653 294.674L573.113 292.779L571.902 291.091Z" fill="#ECCF9C"/>
<path d="M524.012 82.4147L526.002 83.0136L527.646 81.9648L527.186 83.86L528.396 85.5482L526.407 84.9493L524.763 85.9981L525.223 84.103L524.012 82.4147Z" fill="#ECCF9C"/>
<path d="M385.104 -2.40425L387.093 -1.80533L388.738 -2.85413L388.277 -0.958984L389.488 0.729297L387.499 0.130374L385.855 1.17918L386.315 -0.715967L385.104 -2.40425Z" fill="#ECCF9C"/>
<path d="M339.662 112.134L341.651 112.733L343.295 111.684L342.835 113.579L344.045 115.267L342.056 114.668L340.412 115.717L340.872 113.822L339.662 112.134Z" fill="#ECCF9C"/>
<path d="M395.197 209.344L398.429 210.317L401.101 208.613L400.353 211.692L402.32 214.436L399.088 213.462L396.416 215.167L397.164 212.087L395.197 209.344Z" fill="#ECCF9C"/>
<path d="M468.995 234.672L470.736 235.196L472.174 234.278L471.772 235.936L472.831 237.414L471.09 236.889L469.652 237.807L470.054 236.149L468.995 234.672Z" fill="#ECCF9C"/>
<path opacity="0.4" d="M370.36 164.167L372.101 164.691L373.54 163.773L373.137 165.432L374.196 166.909L372.456 166.385L371.017 167.302L371.42 165.644L370.36 164.167Z" fill="#ECCF9C"/>
<path d="M554.582 142.736L557.815 143.709L560.487 142.005L559.739 145.084L561.706 147.828L558.474 146.854L555.802 148.559L556.55 145.479L554.582 142.736Z" fill="#ECCF9C"/>
<path d="M840.063 331.285L844.29 332.558L847.784 330.329L846.806 334.357L849.379 337.944L845.152 336.671L841.658 338.9L842.636 334.873L840.063 331.285Z" fill="#ECCF9C"/>
<path d="M619.776 187.051L622.014 187.725L623.864 186.545L623.346 188.677L624.708 190.576L622.47 189.903L620.62 191.083L621.138 188.95L619.776 187.051Z" fill="#ECCF9C"/>
</g>
<g opacity="0.5">
<path d="M422.36 210.19L420.368 210.779L419.568 212.558L418.914 210.721L416.976 209.972L418.967 209.383L419.768 207.604L420.422 209.441L422.36 210.19Z" fill="#ECCF9C"/>
<path d="M779.484 236.694L777.492 237.284L776.692 239.062L776.038 237.225L774.1 236.477L776.092 235.887L776.892 234.109L777.546 235.946L779.484 236.694Z" fill="#ECCF9C"/>
<path d="M714.7 232.524L712.708 233.113L711.908 234.892L711.253 233.055L709.315 232.307L711.307 231.717L712.107 229.938L712.762 231.775L714.7 232.524Z" fill="#ECCF9C"/>
<path d="M614.959 181.674L611.722 182.632L610.422 185.523L609.359 182.537L606.21 181.321L609.447 180.363L610.747 177.473L611.81 180.458L614.959 181.674Z" fill="#ECCF9C"/>
<path d="M539.354 200.953L537.611 201.469L536.911 203.025L536.339 201.418L534.643 200.763L536.386 200.247L537.086 198.691L537.659 200.298L539.354 200.953Z" fill="#ECCF9C"/>
<path opacity="0.4" d="M660.498 205.839L658.755 206.355L658.055 207.911L657.483 206.304L655.787 205.649L657.53 205.133L658.23 203.577L658.803 205.184L660.498 205.839Z" fill="#ECCF9C"/>
<path d="M517.912 278.378L514.675 279.336L513.375 282.226L512.312 279.241L509.162 278.025L512.399 277.067L513.699 274.176L514.763 277.162L517.912 278.378Z" fill="#ECCF9C"/>
<path d="M234.118 297.802L229.885 299.055L228.185 302.835L226.795 298.931L222.677 297.341L226.91 296.087L228.61 292.308L230 296.212L234.118 297.802Z" fill="#ECCF9C"/>
<path d="M383.17 295.031L380.929 295.694L380.029 297.695L379.293 295.628L377.113 294.786L379.353 294.123L380.254 292.122L380.989 294.189L383.17 295.031Z" fill="#ECCF9C"/>
</g>
<g opacity="0.5">
<path d="M940.561 157.48L942.265 158.667L944.154 158.182L943.127 159.84L943.753 161.821L942.048 160.633L940.159 161.119L941.186 159.461L940.561 157.48Z" fill="#ECCF9C"/>
<path d="M798.044 24.8275L800.814 26.7578L803.883 25.969L802.215 28.6633L803.231 31.8825L800.461 29.9522L797.392 30.741L799.061 28.0467L798.044 24.8275Z" fill="#ECCF9C"/>
<path d="M860.305 71.8522L861.796 72.8916L863.449 72.4669L862.551 73.9176L863.098 75.651L861.606 74.6116L859.954 75.0364L860.852 73.5856L860.305 71.8522Z" fill="#ECCF9C"/>
<path d="M970.241 11.0953L973.011 13.0257L976.08 12.2369L974.412 14.9312L975.428 18.1504L972.659 16.22L969.589 17.0088L971.258 14.3145L970.241 11.0953Z" fill="#ECCF9C"/>
<path d="M976.589 257.23L979.358 259.16L982.427 258.371L980.759 261.066L981.775 264.285L979.006 262.354L975.936 263.143L977.605 260.449L976.589 257.23Z" fill="#ECCF9C"/>
<path d="M1018.42 73.4896L1020.34 74.826L1022.46 74.2799L1021.31 76.1452L1022.01 78.3738L1020.09 77.0375L1017.97 77.5835L1019.12 75.7183L1018.42 73.4896Z" fill="#ECCF9C"/>
</g>
<g opacity="0.5">
<path d="M1258.47 350.453L1260.27 349.424L1260.65 347.51L1261.7 349.149L1263.76 349.434L1261.96 350.464L1261.58 352.378L1260.53 350.739L1258.47 350.453Z" fill="#ECCF9C"/>
<path d="M992.268 222.714L994.072 221.684L994.445 219.77L995.501 221.409L997.559 221.694L995.755 222.724L995.382 224.638L994.326 222.999L992.268 222.714Z" fill="#ECCF9C"/>
<path d="M835.096 264.981L836.9 263.952L837.273 262.038L838.329 263.677L840.387 263.962L838.583 264.992L838.21 266.906L837.154 265.267L835.096 264.981Z" fill="#ECCF9C"/>
<path d="M954.469 448.453L956.273 447.424L956.646 445.51L957.702 447.149L959.76 447.434L957.956 448.464L957.583 450.378L956.527 448.739L954.469 448.453Z" fill="#ECCF9C"/>
<path d="M992.762 343.612L995.694 341.939L996.299 338.828L998.016 341.492L1001.36 341.956L998.428 343.628L997.823 346.739L996.106 344.076L992.762 343.612Z" fill="#ECCF9C"/>
<path d="M1064.74 367.478L1066.32 366.577L1066.65 364.902L1067.57 366.336L1069.37 366.586L1067.79 367.487L1067.47 369.162L1066.54 367.727L1064.74 367.478Z" fill="#ECCF9C"/>
<path opacity="0.4" d="M945.688 390.412L947.267 389.511L947.593 387.836L948.517 389.27L950.318 389.52L948.739 390.42L948.413 392.095L947.488 390.661L945.688 390.412Z" fill="#ECCF9C"/>
<path d="M1058.76 196.612L1061.69 194.939L1062.3 191.828L1064.02 194.492L1067.36 194.956L1064.43 196.628L1063.82 199.739L1062.11 197.076L1058.76 196.612Z" fill="#ECCF9C"/>
<path d="M1301.76 358.612L1304.69 356.939L1305.3 353.828L1307.02 356.492L1310.36 356.955L1307.43 358.628L1306.82 361.739L1305.11 359.076L1301.76 358.612Z" fill="#ECCF9C"/>
<path d="M1339.76 203.424L1343.59 201.236L1344.39 197.168L1346.63 200.651L1351 201.258L1347.17 203.445L1346.38 207.513L1344.13 204.03L1339.76 203.424Z" fill="#ECCF9C"/>
<path d="M1134.09 225.372L1136.12 224.214L1136.54 222.06L1137.72 223.904L1140.04 224.226L1138.01 225.384L1137.59 227.537L1136.4 225.693L1134.09 225.372Z" fill="#ECCF9C"/>
</g>
<path d="M1355.64 273.648L1358.75 273.86L1360.93 271.641L1360.72 274.747L1362.94 276.929L1359.83 276.717L1357.65 278.937L1357.86 275.831L1355.64 273.648Z" fill="#ECCF9C"/>
<path d="M869.407 54.7957L872.513 55.008L874.696 52.7884L874.484 55.8943L876.703 58.0772L873.597 57.8649L871.414 60.0844L871.627 56.9786L869.407 54.7957Z" fill="#ECCF9C"/>
<path d="M976.15 185.59L981.197 185.935L984.744 182.328L984.399 187.375L988.006 190.923L982.959 190.578L979.412 194.184L979.757 189.137L976.15 185.59Z" fill="#ECCF9C"/>
<path d="M1211.44 388.192L1214.15 388.378L1216.06 386.436L1215.88 389.153L1217.82 391.063L1215.1 390.878L1213.19 392.82L1213.38 390.102L1211.44 388.192Z" fill="#ECCF9C"/>
<path opacity="0.4" d="M927.989 124.455L930.707 124.641L932.617 122.699L932.431 125.416L934.373 127.326L931.655 127.141L929.745 129.083L929.931 126.365L927.989 124.455Z" fill="#ECCF9C"/>
<path d="M1196.48 24.8214L1201.53 25.1664L1205.08 21.5596L1204.73 26.6067L1208.34 30.1539L1203.29 29.8089L1199.75 33.4157L1200.09 28.3686L1196.48 24.8214Z" fill="#ECCF9C"/>
<path d="M1376.97 354.902L1382.02 355.247L1385.57 351.64L1385.22 356.687L1388.83 360.234L1383.78 359.889L1380.23 363.496L1380.58 358.449L1376.97 354.902Z" fill="#ECCF9C"/>
<path d="M1304.42 70.0774L1307.91 70.3163L1310.37 67.8193L1310.13 71.3133L1312.63 73.7691L1309.13 73.5303L1306.68 76.0273L1306.92 72.5332L1304.42 70.0774Z" fill="#ECCF9C"/>
<path d="M214.929 39.5269L213.5 41.4757L214.03 43.7499L212.107 42.425L209.771 43.042L211.199 41.0932L210.67 38.819L212.592 40.1439L214.929 39.5269Z" fill="#ECCF9C"/>
<path d="M464.569 76.1024L463.141 78.0512L463.67 80.3254L461.748 79.0005L459.411 79.6175L460.84 77.6687L460.31 75.3945L462.233 76.7194L464.569 76.1024Z" fill="#ECCF9C"/>
<path d="M385.974 84.0807L383.652 87.2474L384.513 90.9431L381.388 88.7902L377.592 89.7927L379.914 86.626L379.053 82.9303L382.177 85.0833L385.974 84.0807Z" fill="#ECCF9C"/>
<path d="M102.737 254.529L99.7008 258.67L100.827 263.503L96.7403 260.688L91.7758 261.999L94.8118 257.858L93.686 253.025L97.7722 255.84L102.737 254.529Z" fill="#ECCF9C"/>
<path d="M311.796 137.337L310.189 139.53L310.785 142.088L308.622 140.598L305.993 141.292L307.601 139.099L307.005 136.541L309.168 138.031L311.796 137.337Z" fill="#ECCF9C"/>
<g opacity="0.6">
<path d="M1004.08 177.675L1007.11 178.374L1009.62 176.526L1008.92 179.56L1010.76 182.065L1007.73 181.366L1005.23 183.214L1005.92 180.18L1004.08 177.675Z" fill="#ECCF9C"/>
<path d="M734.57 70.6967L739.499 71.8333L743.571 68.8309L742.434 73.7604L745.437 77.832L740.507 76.6955L736.436 79.6978L737.572 74.7683L734.57 70.6967Z" fill="#ECCF9C"/>
<path d="M847.115 101.528L849.769 102.14L851.962 100.524L851.35 103.178L852.966 105.37L850.312 104.758L848.12 106.375L848.732 103.721L847.115 101.528Z" fill="#ECCF9C"/>
<path opacity="0.4" d="M696.652 2.7321L699.306 3.34408L701.498 1.72746L700.886 4.38179L702.503 6.57418L699.849 5.96219L697.656 7.57882L698.268 4.92448L696.652 2.7321Z" fill="#ECCF9C"/>
<path d="M1053.57 315.433L1058.5 316.57L1062.57 313.568L1061.43 318.497L1064.43 322.569L1059.51 321.432L1055.43 324.434L1056.57 319.505L1053.57 315.433Z" fill="#ECCF9C"/>
<path d="M1317.37 199.752L1323.81 201.238L1329.14 197.312L1327.65 203.759L1331.58 209.083L1325.13 207.597L1319.81 211.523L1321.29 205.077L1317.37 199.752Z" fill="#ECCF9C"/>
<path d="M1076.95 8.39322L1080.36 9.18006L1083.18 7.10154L1082.39 10.5143L1084.47 13.333L1081.06 12.5462L1078.24 14.6247L1079.03 11.212L1076.95 8.39322Z" fill="#ECCF9C"/>
</g>
</svg>
