<svg width="1436" height="837" viewBox="0 0 1436 837" fill="none" xmlns="http://www.w3.org/2000/svg" preserveAspectRatio="none">
<path opacity="0.05" fill-rule="evenodd" clip-rule="evenodd" d="M1436 210.01L1376.08 239.717C1316.17 269.424 1196.33 328.837 1076.5 388.251C956.667 447.665 836.833 507.078 717 432.811C597.167 358.544 477.333 150.596 357.5 61.4758C237.667 -27.6447 117.833 2.06216 57.9166 16.9156L-2 31.769V836.5H57.9166C117.833 836.5 237.667 836.5 357.5 836.5C477.333 836.5 597.167 836.5 717 836.5C836.833 836.5 956.667 836.5 1076.5 836.5C1196.33 836.5 1316.17 836.5 1376.08 836.5H1436V210.01Z" fill="#2C9C98"/>
</svg>
