<svg width="1438" height="718" viewBox="0 0 1438 718" fill="none" xmlns="http://www.w3.org/2000/svg" preserveAspectRatio="none">
<path opacity="0.05" fill-rule="evenodd" clip-rule="evenodd" d="M0 44.7982H46.016C115.04 44.7982 161.056 58.5667 251.171 95.8981C343.413 134.111 408.392 201.813 504.259 216.904C600.125 231.995 752.912 235.885 851.296 173.878C941.411 117.083 977.051 82.0636 1079.46 46.5195C1223.26 -3.39094 1336.38 0.0506751 1386.23 0.0506751L1438 0.0506812V717.5H1390.07C1342.13 717.5 1246.27 717.5 1150.4 717.5C1054.53 717.5 958.667 717.5 862.8 717.5C766.933 717.5 671.067 717.5 575.2 717.5C479.333 717.5 383.467 717.5 287.6 717.5C191.733 717.5 95.8667 717.5 47.9333 717.5H0L0 44.7982Z" fill="#3796AE"/>
</svg>
